<svg width="58" height="64" viewBox="0 0 58 64" fill="none" xmlns="http://www.w3.org/2000/svg">
<path fill-rule="evenodd" clip-rule="evenodd" d="M25.5334 0.158788C16.4922 1.11594 8.41971 6.35651 3.79663 14.2702C1.23916 18.6477 -0.00162557 23.3138 1.59828e-06 28.5475C0.00192462 35.0274 1.71962 40.0715 5.97792 46.1012C6.17392 46.3787 6.0189 46.5797 3.60862 49.1737L1.0297 51.9492L2.41087 53.1834C9.17176 59.2258 17.352 63.0724 25.0612 63.8343C35.2138 64.8375 45.1047 61.2761 54.003 53.4131C54.6061 52.8804 54.7665 52.6567 54.656 52.5026C54.5754 52.3904 53.5541 51.2427 52.3865 49.9522C51.2188 48.6618 50.2319 47.5234 50.1932 47.4223C50.1546 47.3211 50.4279 46.8629 50.8003 46.4038C53.6517 42.8898 55.8552 38.0591 56.6908 33.4905C57.1707 30.8668 57.1592 26.1101 56.6664 23.4568C53.9408 8.77924 40.3282 -1.40761 25.5334 0.158788ZM33.5781 2.21356C37.3391 2.99505 40.1838 4.15429 43.3041 6.17699C44.5519 6.9858 44.7806 7.26882 44.1917 7.27535C44.0085 7.27743 43.4927 7.5456 43.0452 7.87138C42.5978 8.19702 42.054 8.53408 41.8367 8.62036C41.6196 8.70663 41.4052 8.87278 41.3607 8.98964C41.2185 9.36116 42.066 9.23554 42.6902 8.7926C44.1649 7.74606 44.8678 7.394 45.1808 7.54471C45.7506 7.81882 47.483 9.5193 47.483 9.8044C47.483 10.2663 46.8944 10.5562 46.2937 10.39C45.754 10.2408 44.8334 10.2726 44.5467 10.4503C44.3359 10.5811 44.3209 11.1323 44.5282 11.1323C44.6736 11.1323 44.7996 11.3852 45.0396 12.157C45.1326 12.4565 45.1091 12.4977 44.8927 12.4144C44.7508 12.3597 44.5402 12.394 44.4245 12.4904C44.2547 12.6319 44.0797 12.536 43.5186 11.9935C40.3844 8.96351 35.6513 6.78 30.8606 6.15427C30.3286 6.08478 30.1835 6.01662 30.3059 5.89383C30.5573 5.6414 30.5054 5.21197 30.1658 4.7331C29.8273 4.25601 29.564 4.19112 29.2935 4.51838C29.1488 4.69345 29.1847 4.80541 29.4816 5.10343C30.0997 5.72381 29.7205 5.87051 26.9955 6.06563C23.8803 6.2888 21.0029 6.98476 18.9336 8.01557C18.4861 8.23845 17.9639 8.46949 17.7733 8.52889C17.5826 8.58828 17.1295 8.83819 16.7663 9.08423C16.4032 9.33013 16.0619 9.48708 16.0079 9.43288C15.9539 9.37868 15.982 9.28781 16.0704 9.23108C16.4813 8.96693 16.4522 8.01408 16.0332 8.01408C15.9199 8.01408 15.8272 7.95855 15.8272 7.89054C15.8272 7.82253 15.5803 7.69082 15.2785 7.59787C14.5877 7.38509 14.3646 7.63202 14.814 8.11223C15.1794 8.50261 15.0896 8.6998 14.4859 8.83299C13.841 8.97509 13.978 9.37675 14.756 9.62443C15.101 9.73431 15.3834 9.87032 15.3834 9.92675C15.3834 9.98332 15.0408 10.2862 14.622 10.6C13.8752 11.1598 13.853 11.166 13.4488 10.9264C12.9456 10.6281 12.7234 10.8649 13.1953 11.1966C13.5264 11.4294 13.525 11.4317 12.3507 12.6175C11.7038 13.2707 11.0897 13.8051 10.986 13.8051C10.8727 13.8051 10.7969 13.6131 10.7955 13.3225C10.7918 12.5474 10.4834 12.2889 9.35548 12.1161C8.6379 12.0062 8.55314 12.1615 9.09661 12.5906C9.56849 12.9632 9.56849 13.328 9.09661 13.5081C8.89321 13.5858 8.7268 13.7421 8.7268 13.8556C8.7268 13.9692 8.5876 14.2396 8.41764 14.4567C8.14043 14.8102 8.03688 14.8429 7.41915 14.7704C6.74979 14.692 6.70423 14.713 5.84508 15.497C4.96686 16.2984 4.96242 16.3067 5.23934 16.6139C5.56506 16.9752 6.03665 17.0197 6.15854 16.7006C6.27066 16.4073 6.60039 16.4157 6.71473 16.7146C6.77242 16.8657 6.64269 17.1038 6.35587 17.3727C5.99123 17.7145 5.81387 17.7789 5.41551 17.714C4.92869 17.6347 4.9247 17.6389 4.95784 18.1864C4.9994 18.8737 5.18815 18.9965 6.21209 19.0019C6.65956 19.0042 7.16975 19.0451 7.34593 19.0924C7.64547 19.1731 7.6542 19.2138 7.48216 19.7214C7.38084 20.02 7.15762 20.3285 6.98603 20.407C6.62065 20.5741 6.4745 20.988 6.70053 21.2149C6.81325 21.3281 6.79003 21.6 6.62036 22.1556C5.98162 24.2476 5.84213 25.3913 5.84656 28.5054C5.84982 30.8576 5.91076 31.8272 6.1146 32.7719C8.09738 41.9598 14.8631 48.6679 24.0081 50.5129C26.4881 51.0131 30.2931 50.9852 32.7724 50.4487C38.15 49.2849 42.3612 46.6872 45.8387 42.389C48.1121 39.5787 49.5307 36.4962 50.3829 32.5145C50.8012 30.56 50.7614 26.1414 50.3069 24.0598C49.5678 20.6762 48.2619 17.7473 46.3459 15.1759C45.435 13.9537 45.2937 13.6841 45.3601 13.2946C45.5144 12.3893 45.557 12.3618 45.9966 12.8854C46.2234 13.1553 46.6339 13.4968 46.9089 13.6443C47.2488 13.8265 47.424 14.0367 47.4555 14.3009C47.4811 14.5146 47.672 14.8237 47.8799 14.9878C48.1633 15.2116 48.2395 15.3825 48.1846 15.6705C48.1239 15.9895 48.1918 16.0933 48.5838 16.281C48.8437 16.4053 49.1309 16.6843 49.2221 16.9008C49.3132 17.1174 49.5908 17.6287 49.8388 18.037C50.0867 18.4453 50.3239 18.863 50.3656 18.965C50.4073 19.0671 50.4761 19.2341 50.5184 19.3363C50.8704 20.1859 51.3408 20.7427 52.0664 21.1687C52.5126 21.4308 53.0578 21.8617 53.2779 22.1263C53.6273 22.5466 53.7436 22.5969 54.1948 22.5234C54.7083 22.4398 54.7123 22.4435 54.8594 23.1337C55.4026 25.6843 55.4568 31.0222 54.964 33.4055C53.6986 39.5236 50.9568 44.3594 46.4215 48.4724C43.3571 51.2513 37.6786 53.9419 33.0459 54.8101C30.9907 55.1951 27.1406 55.2722 25.2943 54.9653C20.7823 54.215 16.8276 52.5651 12.1291 49.4727C8.82768 47.2999 6.10025 43.9551 4.07295 39.5926C1.7532 34.6009 1.05411 28.5276 2.19017 23.2341L2.44504 22.0462L3.66927 22.0987C5.12514 22.1611 5.7053 21.9734 5.81358 21.4048C5.85485 21.1876 5.83088 20.9015 5.76032 20.7689C5.61151 20.49 4.02428 20.1304 3.62341 20.2848C3.37238 20.3816 3.37268 20.3956 3.63095 20.5852C3.77991 20.6945 4.0555 20.784 4.24336 20.784C4.48625 20.784 4.58492 20.8697 4.58492 21.081C4.58492 21.2443 4.50178 21.3839 4.40001 21.3912C4.00047 21.4197 2.73261 21.3492 2.67876 21.2956C2.6474 21.2642 2.83586 20.6185 3.09754 19.8606C4.12206 16.8938 6.64476 12.4513 7.36412 12.3469C7.60006 12.3128 7.69133 12.1979 7.69133 11.9349C7.69133 11.693 8.00256 11.2345 8.61586 10.5727C10.6102 8.42049 12.7703 6.67235 15.0625 5.35571C16.2525 4.67222 18.2127 3.70794 18.4126 3.70794C18.455 3.70794 18.4898 3.84366 18.4898 4.00967C18.4898 4.21725 18.7644 4.48334 19.3707 4.86347C19.8552 5.16713 20.2545 5.49915 20.2582 5.60116C20.2619 5.70332 20.3371 5.78677 20.4251 5.78677C20.7804 5.78677 20.44 6.12784 19.8899 6.32325C19.1892 6.57212 18.8562 6.50975 17.6397 5.90155C17.1314 5.64734 16.6739 5.48133 16.6229 5.53256C16.4384 5.71757 16.7081 6.06666 17.2259 6.3133C17.5169 6.45184 17.7929 6.62691 17.8392 6.70219C17.9866 6.94155 17.5816 7.27164 17.1404 7.27164C16.6033 7.27164 16.5754 7.61866 17.0854 7.95409C17.3947 8.15752 17.5276 8.16806 17.8883 8.01824C18.1261 7.91934 18.4355 7.71087 18.576 7.5551C18.7367 7.37677 19.0278 7.27164 19.3605 7.27164C19.6513 7.27164 20.2402 7.12568 20.6689 6.94735C21.3385 6.66878 21.4483 6.56633 21.4483 6.22035C21.4483 5.82671 21.0627 5.40679 20.0553 4.70325C19.8451 4.55655 19.6732 4.34168 19.6732 4.22586C19.6732 4.11019 19.5401 3.94389 19.3774 3.85643C19.2146 3.76897 19.0815 3.63622 19.0815 3.56123C19.0815 3.25327 22.6741 2.31052 25.5162 1.87263C25.7603 1.83506 27.3246 1.82378 28.9924 1.84754C31.4054 1.88199 32.3422 1.95682 33.5781 2.21356ZM32.1077 3.61009C31.8622 4.25868 31.7706 5.30002 31.9326 5.60383C32.0882 5.8959 32.8339 6.09666 33.9856 6.15665C34.2618 6.17105 34.6267 6.33246 34.8418 6.53514C35.0961 6.77495 35.3622 6.87741 35.6699 6.8538C35.9193 6.83479 36.4784 6.98773 36.9125 7.19383C37.3465 7.39994 37.8223 7.56906 37.9697 7.56966C38.1171 7.5701 38.4374 7.7033 38.6815 7.86559C39.1949 8.20697 40.4243 8.26695 41.0783 7.98275C41.3058 7.88371 41.7116 7.58302 41.9799 7.31456C42.2482 7.04594 42.57 6.82618 42.6948 6.82618C43.0605 6.82618 42.8355 6.45897 42.4422 6.41383C42.1808 6.38369 42.021 6.48421 41.8518 6.78505C41.5434 7.33326 40.4737 7.67152 39.8909 7.40498C39.4701 7.21254 39.4036 6.97823 39.6424 6.53024C39.8359 6.16734 39.6812 5.78677 39.34 5.78677C39.1908 5.78677 39.0276 5.71995 38.9773 5.63828C38.8557 5.44079 37.7636 5.44718 37.6411 5.64615C37.5883 5.73212 37.4678 5.77414 37.3735 5.7397C37.2793 5.7051 36.9778 5.76835 36.7034 5.88031C36.0614 6.1421 36.0583 6.1418 35.5758 5.76078C35.2745 5.5229 34.9138 5.42431 34.2054 5.38629C32.9194 5.31725 32.7914 5.22637 32.7533 4.3552C32.7358 3.95844 32.7145 3.55024 32.7061 3.44809C32.6793 3.12839 32.2457 3.24585 32.1077 3.61009ZM21.393 3.66443C21.176 3.88226 21.3557 4.16677 22.2935 5.08977C23.0286 5.81334 23.3348 6.02732 23.4715 5.91343C23.6179 5.79137 23.6102 5.68906 23.434 5.41911C23.1229 4.94247 21.5052 3.55188 21.393 3.66443ZM38.2377 6.38072C38.288 6.46238 38.2586 6.5292 38.1725 6.5292C38.0864 6.5292 38.0158 6.46238 38.0158 6.38072C38.0158 6.29905 38.0451 6.23223 38.0811 6.23223C38.117 6.23223 38.1874 6.29905 38.2377 6.38072ZM31.4332 7.98453L32.0249 8.09753L31.994 10.0347C31.9644 11.8967 31.9073 12.2002 31.419 13.0965C31.2314 13.4407 31.2261 13.6364 31.3833 14.4007C31.4851 14.8953 31.6867 15.4275 31.8313 15.5832C32.1147 15.8885 32.1201 16.7187 31.8743 22.0462C31.7787 24.1136 31.7938 24.325 32.083 24.9911C32.2545 25.3858 32.3947 26.0224 32.3947 26.4059C32.3947 27.4121 32.0395 27.6835 30.6936 27.7059C30.1241 27.7154 29.6248 27.6737 29.5841 27.6133C29.5435 27.5528 28.3898 27.4734 27.0203 27.4367C25.0792 27.3847 24.5012 27.3233 24.397 27.1581C24.2063 26.8557 24.2251 24.8316 24.4197 24.7109C24.5284 24.6435 24.5319 24.5624 24.4305 24.4606C24.3386 24.3684 24.3299 24.1795 24.4081 23.9728C24.5483 23.6028 24.3093 22.4928 23.9294 21.7492C23.7661 21.4295 23.6777 20.6329 23.6158 18.9279C23.5685 17.6212 23.5189 16.3183 23.5056 16.0324C23.4923 15.7466 23.5627 15.3122 23.6621 15.0672C24.049 14.1142 23.866 13.0263 23.1966 12.2982C22.6713 11.727 22.0495 10.0495 22.0437 9.18832C22.0403 8.6995 22.0863 8.64114 22.5947 8.4888C23.067 8.34729 24.5182 8.07793 26.2558 7.80902C26.8637 7.71503 30.7041 7.8451 31.4332 7.98453ZM35.476 9.06003C40.9117 11.11 45.136 15.1562 47.4111 20.4919C47.6936 21.1545 48.0297 22.0592 48.1581 22.5025C48.3656 23.2188 48.3668 23.3333 48.1696 23.531C48.0478 23.6535 47.8847 23.7538 47.8075 23.7538C47.7303 23.7538 47.588 23.8495 47.4913 23.9666C47.2081 24.309 46.7107 24.1805 46.5376 23.7202C46.2792 23.0333 46.0037 23.2121 46.0037 24.0668C46.0037 24.8018 45.9922 24.8224 45.6339 24.7322C45.235 24.6316 45.218 24.6483 45.3539 25.0037C45.4721 25.3129 46.0996 25.3056 46.2738 24.9932C46.3491 24.8581 46.6021 24.7273 46.836 24.7023C47.0698 24.6774 47.568 24.6131 47.9433 24.5596C48.6035 24.4653 48.6285 24.4759 48.7224 24.8876C48.7758 25.1215 48.861 26.2911 48.9118 27.4866L49.0041 29.6605L46.1355 29.6814C44.5579 29.693 41.8693 29.7625 40.1607 29.8358C38.4522 29.9092 36.8879 29.949 36.6845 29.9243C36.4811 29.8998 36.1981 29.8712 36.0558 29.8608C35.8172 29.8432 35.797 29.5699 35.797 26.3621V22.8826L35.3379 22.1415C34.9257 21.4757 34.8649 21.2218 34.7393 19.6444C34.5778 17.6168 34.3795 15.66 34.2365 14.6836C34.1668 14.2076 34.2025 13.8725 34.3548 13.5699C34.5917 13.0998 34.55 12.7657 34.2544 12.7657C33.9205 12.7657 33.5785 12.2356 33.3541 11.3709C33.2333 10.905 33.1339 10.4102 33.1334 10.2712C33.1328 10.1324 33.0497 9.85161 32.9485 9.64744C32.8473 9.44327 32.7858 9.05245 32.812 8.77909C32.8584 8.29249 32.871 8.28403 33.4037 8.38292C33.7029 8.43831 34.6356 8.74315 35.476 9.06003ZM21.3288 9.97575C21.3171 11.138 21.0448 13.0578 20.86 13.2812C20.5501 13.6562 20.5198 14.6542 20.8029 15.1645C20.9545 15.4377 21.1328 15.7013 21.1992 15.7503C21.3283 15.8455 21.4246 21.6261 21.3004 21.8169C21.2597 21.8794 21.01 22.0417 20.7457 22.1777C20.2038 22.4564 20.1834 22.5492 20.4825 23.3825C20.5998 23.7092 20.6986 24.1811 20.7022 24.4313C20.7066 24.7423 20.8541 25.0239 21.1687 25.3222L21.6286 25.7584L21.5301 27.3175C21.476 28.175 21.4107 29.0436 21.3851 29.2478C21.3595 29.452 21.33 29.7026 21.3195 29.8046C21.3045 29.9502 19.8182 29.9902 14.4336 29.9902H7.56692L7.46722 29.5347C7.41234 29.2842 7.41515 28.3153 7.47329 27.3816L7.57891 25.6841H9.40503C11.0986 25.6841 11.243 25.6618 11.3945 25.3776C11.7063 24.7929 11.3829 24.6698 9.57012 24.6832C8.14649 24.6935 7.90656 24.661 7.86632 24.452C7.84044 24.318 7.88126 24.0975 7.957 23.9616C8.07283 23.7539 8.33051 23.7192 9.58446 23.7426C10.9134 23.7674 11.0906 23.7398 11.2248 23.488C11.3354 23.2807 11.3161 23.1208 11.1522 22.8859C10.8559 22.4613 10.5636 22.482 10.2589 22.9487C10.046 23.2747 9.98948 23.2969 9.87824 23.0972C9.80635 22.9683 9.59778 22.8628 9.41465 22.8628C9.23167 22.8628 9.01865 22.8026 8.94129 22.7288C8.86407 22.655 8.68893 22.5715 8.5521 22.5431C8.32607 22.4964 8.33421 22.404 8.64204 21.5265C10.2183 17.0314 13.8451 12.7247 17.9722 10.4476C19.1501 9.79771 21.1888 8.89209 21.2764 8.97999C21.3103 9.014 21.3338 9.46213 21.3288 9.97575ZM12.1291 9.20421C11.9319 9.33428 11.9319 9.36665 12.1291 9.49673C12.4029 9.67714 12.5866 9.68115 12.8517 9.51262C13.016 9.40823 12.996 9.34988 12.7505 9.21787C12.3841 9.02112 12.4063 9.02157 12.1291 9.20421ZM49.2672 11.5144C50.9971 13.613 52.5608 16.2609 53.5378 18.7462C54.0516 20.0535 54.1041 20.4137 53.7613 20.2817C53.6224 20.2281 53.3952 20.34 53.1887 20.5638C52.7945 20.9907 52.7566 20.9638 52.1429 19.8188C50.2177 16.2277 50.1927 16.1539 50.6981 15.5617C50.8845 15.3431 50.8741 15.2944 50.6114 15.1534C50.4472 15.0652 50.1588 14.9921 49.9705 14.9909C49.3723 14.9875 48.9918 14.8255 48.9183 14.5434C48.8439 14.2577 49.0721 14.1021 49.5661 14.1021C49.7623 14.1021 49.849 13.9992 49.8475 13.768C49.8427 13.0529 49.3414 12.778 48.1966 12.8626C47.414 12.9206 47.3537 12.9018 47.309 12.5869C47.2809 12.3888 47.1386 12.2264 46.9652 12.1945C46.5596 12.1195 46.2994 11.8856 46.3005 11.5968C46.3014 11.3582 47.7473 10.5745 48.2318 10.55C48.3587 10.5436 48.8247 10.9776 49.2672 11.5144ZM10.5019 14.3747C10.5019 14.7945 9.42796 16.1179 9.13359 16.0608C8.79189 15.9945 8.80712 15.8211 9.2046 15.2469C10.0204 14.0681 10.5019 13.7444 10.5019 14.3747ZM22.4838 14.7008C22.4838 15.0808 21.8999 15.3385 21.6277 15.0788C21.3257 14.7906 21.5723 14.399 22.0558 14.399C22.3875 14.399 22.4838 14.4671 22.4838 14.7008ZM8.19945 15.7317C8.40817 15.8115 8.57887 15.9806 8.57887 16.1077C8.57887 16.2348 8.67872 16.3772 8.80076 16.4241C9.11407 16.5448 9.08034 16.7202 8.6089 17.4215C8.38125 17.7601 8.15034 18.1539 8.09575 18.2968C7.99339 18.5647 7.47432 18.6336 6.84076 18.4632C6.38028 18.3393 6.4245 18.198 6.97611 18.0306C7.65006 17.8261 7.78275 17.5304 7.60065 16.6381C7.49666 16.1289 7.49636 15.8421 7.59932 15.7387C7.7823 15.555 7.73763 15.5555 8.19945 15.7317ZM22.9786 17.7635C23.0318 18.8789 23.0755 20.1819 23.0755 20.659V21.5265H22.5684C22.0656 21.5265 22.0606 21.5198 21.9799 20.7469C21.9353 20.3182 21.9193 19.2657 21.9444 18.4082C22.0296 15.513 21.9867 15.7354 22.4608 15.7354H22.8817L22.9786 17.7635ZM33.2822 15.8839C33.2822 15.9656 33.2157 16.0324 33.1343 16.0324C33.053 16.0324 32.9864 15.9656 32.9864 15.8839C32.9864 15.8023 33.053 15.7354 33.1343 15.7354C33.2157 15.7354 33.2822 15.8023 33.2822 15.8839ZM33.9849 17.3437C34.0875 17.4717 34.1745 18.007 34.1806 18.5479C34.1865 19.0837 34.2412 19.873 34.3022 20.3025C34.3921 20.9365 34.3671 21.1245 34.1688 21.3048C33.8611 21.5842 33.2244 21.5916 32.9985 21.3184C32.674 20.9258 32.8065 17.5715 33.1645 17.1177C33.3287 16.9095 33.7238 17.0184 33.9849 17.3437ZM38.1955 20.8198C38.0049 21.0504 38.356 21.6083 38.5976 21.4583C38.8165 21.3226 38.7948 21.0017 38.5532 20.8003C38.4012 20.6737 38.3124 20.6784 38.1955 20.8198ZM45.6342 20.8044C45.5764 20.9558 45.2427 21.0008 44.309 20.9833C43.6226 20.9704 42.9987 20.9211 42.9226 20.8738C42.8464 20.8266 42.614 20.9224 42.4062 21.0865C42.0765 21.3468 41.8715 21.3757 40.7987 21.3135L39.569 21.2422L39.2349 21.7556L38.9007 22.2689H39.2537C39.4479 22.2689 39.6896 22.1687 39.7909 22.0462C39.9402 21.8656 40.4132 21.8233 42.2867 21.8225C44.0437 21.8218 44.6996 21.7686 45.0203 21.6007C45.2561 21.4773 45.5986 21.4192 45.7969 21.4693C46.0821 21.5412 46.1517 21.5008 46.1517 21.2638C46.1517 20.875 45.745 20.5141 45.6342 20.8044ZM46.8559 21.4829C46.817 21.711 46.7354 22.0145 46.6744 22.1575C46.5892 22.3575 46.6349 22.4174 46.8726 22.4174C47.1944 22.4174 47.408 21.9406 47.3112 21.4391C47.2284 21.0105 46.9317 21.039 46.8559 21.4829ZM50.7339 21.6049C50.5659 21.808 50.5679 21.8678 50.7468 21.9841C51.0963 22.2113 51.5509 22.0785 51.5509 21.7492C51.5509 21.3704 51.0071 21.2743 50.7339 21.6049ZM54.5834 21.9894C54.5834 22.0711 54.5168 22.0966 54.4354 22.0462C54.3541 21.9957 54.2875 21.8876 54.2875 21.8059C54.2875 21.7242 54.3541 21.6987 54.4354 21.7492C54.5168 21.7997 54.5834 21.9078 54.5834 21.9894ZM34.8616 22.6551C34.9116 22.7858 34.8596 22.9519 34.7461 23.0241C34.4763 23.1955 33.6188 23.1975 33.5137 23.0269C33.4201 22.8749 33.7634 22.7144 34.1819 22.7144C34.338 22.7144 34.4656 22.6475 34.4656 22.5659C34.4656 22.328 34.7621 22.3948 34.8616 22.6551ZM11.9894 22.7786C11.891 22.8976 11.8323 23.149 11.8588 23.3373C11.9048 23.663 11.9736 23.6816 13.2879 23.7224C14.5713 23.7622 14.6741 23.744 14.7473 23.4626C14.8488 23.0734 15.0875 23.0694 15.0875 23.4568C15.0875 23.8752 15.3032 23.8256 15.5153 23.3585C15.6662 23.026 15.6554 22.9258 15.4473 22.7274C15.262 22.5506 15.1828 22.5381 15.1315 22.6772C15.051 22.8949 14.4958 22.9306 14.4958 22.7181C14.4958 22.6285 14.3404 22.636 14.0891 22.7372C13.6133 22.9289 12.5856 22.9099 12.3393 22.7047C12.2261 22.6103 12.1079 22.6352 11.9894 22.7786ZM16.7887 22.7455C16.626 22.8342 16.4743 22.9209 16.4517 22.9384C16.4291 22.9558 16.4715 23.1309 16.5459 23.3273C16.6733 23.6636 16.7598 23.6869 18.0292 23.7275C19.1379 23.7628 19.3774 23.7315 19.3774 23.5515C19.3774 23.4311 19.4177 23.2269 19.4671 23.0977C19.5441 22.8965 19.3995 22.8628 18.4613 22.8628C17.8586 22.8628 17.3023 22.8002 17.2251 22.7236C17.1375 22.6368 16.973 22.6452 16.7887 22.7455ZM42.4536 23.1852C42.4536 23.4442 42.3472 23.7741 42.2172 23.9183C41.9117 24.2571 42.0243 24.4229 42.5895 24.4661C43.2534 24.5168 44.0807 24.1308 44.0807 23.7701C44.0807 23.375 43.8615 23.2593 43.6341 23.5345C43.4125 23.8023 43.0907 23.5959 42.8856 23.0545C42.6993 22.5626 42.4536 22.637 42.4536 23.1852ZM23.2973 23.0113C23.2471 23.093 23.1434 23.1598 23.0667 23.1598C22.9901 23.1598 22.9275 23.093 22.9275 23.0113C22.9275 22.9297 23.0314 22.8628 23.1582 22.8628C23.2849 22.8628 23.3476 22.9297 23.2973 23.0113ZM39.4233 23.5129C39.3815 23.6454 39.3159 23.854 39.2778 23.9765C39.1797 24.2919 38.6538 24.2525 38.1497 23.8922C37.8805 23.6997 37.6098 23.6204 37.4243 23.6795C37.2545 23.7336 37.1283 23.7063 37.1283 23.6152C37.1283 23.5281 37.0284 23.4568 36.9064 23.4568C36.5761 23.4568 36.627 24.1579 36.9706 24.3425C37.128 24.427 37.4722 24.4962 37.7357 24.4962C37.999 24.4962 38.3421 24.6123 38.4983 24.7541C38.7679 24.999 38.7917 24.999 38.9701 24.7541C39.1005 24.5749 39.3625 24.4962 39.8282 24.4962C40.4295 24.4962 40.5085 24.4558 40.5967 24.1035C40.7147 23.6311 40.5974 23.4924 39.9735 23.3673C39.6103 23.2943 39.4818 23.3284 39.4233 23.5129ZM23.4453 24.0365C24.3151 24.548 23.9272 25.0902 22.6915 25.0902C22.0549 25.0902 21.9254 24.8111 22.2808 24.207C22.5821 23.695 22.8083 23.6619 23.4453 24.0365ZM35.3251 24.3106C35.2806 24.8511 35.2607 24.8688 34.6505 24.913C33.8945 24.968 33.8615 24.8106 34.5026 24.2074C35.1603 23.5888 35.3823 23.6166 35.3251 24.3106ZM12.135 24.8603C12.0369 24.9789 11.9999 25.2128 12.0529 25.38C12.1322 25.6309 12.2733 25.6841 12.8605 25.6841C13.6024 25.6841 13.9246 25.4715 14.0073 24.9271C14.0454 24.6768 13.9518 24.6447 13.1817 24.6447C12.6029 24.6447 12.2538 24.7166 12.135 24.8603ZM15.3834 24.7899C15.0887 24.8394 14.8816 24.9549 14.9026 25.0578C14.9229 25.1573 14.8731 25.2386 14.7917 25.2386C14.7103 25.2386 14.6438 25.3404 14.6438 25.4648C14.6438 25.6603 14.9988 25.6854 17.2694 25.6504C20.0659 25.6072 19.9281 25.6452 19.8396 24.9434C19.8096 24.705 17.8906 24.7886 17.7974 25.0322C17.6886 25.3169 17.2106 25.292 17.0972 24.9957C17.0132 24.7757 16.9757 24.7789 16.7004 25.029C16.4033 25.2988 16.3905 25.2982 16.1486 25.004C15.9536 24.7668 15.7912 24.7213 15.3834 24.7899ZM40.5305 25.9958C40.5305 26.1398 40.3308 26.4006 40.0868 26.575C39.8427 26.7495 39.643 27.0174 39.643 27.1703C39.643 27.3233 39.5764 27.4897 39.4951 27.5402C39.4137 27.5907 39.3471 27.6948 39.3471 27.7717C39.3471 28.0378 39.7791 27.9098 40.1553 27.5322C40.3631 27.3237 40.5915 27.1893 40.6629 27.2336C40.9326 27.4009 41.1503 26.8845 41.0533 26.3079C40.9557 25.7275 40.5305 25.4736 40.5305 25.9958ZM44.4689 25.9512C44.4085 26.0494 44.1999 26.1296 44.0054 26.1296C43.8108 26.1296 43.5838 26.2464 43.5009 26.3894C43.3662 26.6215 43.3497 26.6135 43.3455 26.3152C43.3393 25.8471 43.095 25.8993 42.8234 26.4265C42.6972 26.6715 42.5083 26.872 42.4036 26.872C42.299 26.872 42.0684 27.0689 41.891 27.3096C41.4565 27.8994 41.7567 28.0681 42.3041 27.5417C42.6432 27.2155 42.8071 27.1581 43.1699 27.2382C43.6235 27.3381 44.088 27.049 44.265 26.5565C44.3826 26.2295 44.8939 26.6185 44.8971 27.0374C44.899 27.2906 44.9835 27.3917 45.193 27.3917C45.4422 27.3917 45.4927 27.2752 45.5307 26.6122C45.5579 26.1371 45.5145 25.8326 45.4197 25.8326C45.3342 25.8326 45.2641 25.8994 45.2641 25.9811C45.2641 26.1922 44.7091 26.1658 44.6378 25.9512C44.5918 25.8125 44.5544 25.8125 44.4689 25.9512ZM34.8402 26.6221C34.9622 27.2754 34.8729 28.1422 34.6875 28.1027C34.5093 28.0648 34.2942 26.7553 34.4062 26.3894C34.5326 25.9757 34.7402 26.0871 34.8402 26.6221ZM38.6075 26.2536C38.6075 26.5292 38.7861 26.872 38.9296 26.872C39.1352 26.872 39.0122 26.2386 38.7924 26.1659C38.6908 26.1324 38.6075 26.1717 38.6075 26.2536ZM10.5019 26.564C10.2985 26.6257 9.80798 26.6564 9.41184 26.6325C8.63287 26.5854 8.28303 26.7894 8.28303 27.2907C8.28303 27.4735 8.40714 27.6081 8.61586 27.6514C9.09439 27.7508 10.9602 27.6859 11.3525 27.5561C11.7797 27.4147 11.7817 26.9566 11.3565 26.6577C10.9943 26.4031 11.0232 26.4062 10.5019 26.564ZM12.9057 26.536L12.1291 26.5906V27.1093V27.628L13.1175 27.5842C14.0567 27.5424 14.1112 27.5199 14.2145 27.1304C14.299 26.8119 14.2621 26.6879 14.0494 26.5735C13.8988 26.4928 13.7546 26.4389 13.729 26.454C13.7033 26.4692 13.3327 26.506 12.9057 26.536ZM15.0047 26.7681C14.7553 26.9071 14.721 27.4045 14.951 27.5472C15.0386 27.6015 15.5211 27.6311 16.0235 27.6128C16.5257 27.5944 17.1222 27.5849 17.3492 27.5914C17.6608 27.6005 17.7966 27.511 17.9049 27.2253C17.9838 27.0172 18.0088 26.7832 17.9607 26.705C17.8583 26.5388 15.3188 26.5929 15.0047 26.7681ZM46.4798 26.9258C46.524 27.1578 46.4548 27.3342 46.2752 27.4468C45.9284 27.6642 45.9256 27.9114 46.27 27.9114C46.6707 27.9114 46.8913 27.611 46.8913 27.065C46.8913 26.7128 46.8241 26.575 46.6521 26.575C46.4805 26.575 46.4318 26.6741 46.4798 26.9258ZM30.7453 28.2901C30.9112 28.4406 30.5288 28.6539 30.0931 28.6539C29.6103 28.6539 29.4217 28.4209 29.688 28.1538C29.78 28.0614 30.6115 28.1686 30.7453 28.2901ZM24.7269 28.6255C24.329 28.6858 24.187 28.5937 24.3271 28.3664C24.3951 28.2558 24.5229 28.263 24.7486 28.3903L25.0724 28.5731L24.7269 28.6255ZM26.0958 28.2985C26.5055 28.4564 26.3478 28.6539 25.8121 28.6539C25.3226 28.6539 25.1718 28.5293 25.393 28.3074C25.5158 28.1842 25.7899 28.1806 26.0958 28.2985ZM8.90268 29.06L8.94869 29.619L11.4634 29.6239C12.8465 29.6268 14.0503 29.5776 14.1386 29.5148C14.2269 29.452 14.593 29.4386 14.9522 29.4851C16.6859 29.7098 17.2947 29.6964 17.4233 29.431C17.4919 29.2894 17.5437 29.0399 17.5382 28.8766C17.5286 28.5875 17.4128 28.5786 13.1925 28.5403L8.85653 28.5009L8.90268 29.06ZM34.8354 28.9508C34.8857 29.0325 34.823 29.0993 34.6963 29.0993C34.5695 29.0993 34.4656 29.0325 34.4656 28.9508C34.4656 28.8692 34.5282 28.8023 34.6048 28.8023C34.6815 28.8023 34.7852 28.8692 34.8354 28.9508ZM31.5049 29.4334C31.5036 29.5356 31.4418 29.7154 31.3675 29.8333C31.178 30.1341 30.4385 29.8042 30.5644 29.475C30.6695 29.2001 31.5082 29.163 31.5049 29.4334ZM32.8118 29.5804C32.7516 30.0039 32.2872 30.0994 32.0184 29.7435C31.7052 29.3286 31.7561 29.2478 32.3311 29.2478C32.7934 29.2478 32.8531 29.2892 32.8118 29.5804ZM33.8546 29.5956C34.05 29.832 33.9293 29.9902 33.5534 29.9902C33.2885 29.9902 33.1846 29.6924 33.3809 29.4953C33.5303 29.3454 33.6725 29.3754 33.8546 29.5956ZM2.51398 31.2524C2.51398 31.3749 2.64001 31.4751 2.794 31.4751C2.94799 31.4751 3.1144 31.5808 3.16381 31.71C3.32948 32.1435 3.25685 32.7784 3.03171 32.8653C2.79222 32.9575 2.72151 33.4055 2.94636 33.4055C3.0215 33.4055 3.58731 33.1324 4.20372 32.7986C5.43045 32.1344 5.67157 31.7082 4.91775 31.5367C4.69394 31.4858 4.13523 31.3508 3.67607 31.2369C2.62655 30.9764 2.51398 30.978 2.51398 31.2524ZM7.9641 31.6763C7.71012 32.1669 7.69133 32.1586 7.69133 31.5559C7.69133 31.0761 7.72358 31.0202 7.91011 31.1756C8.0817 31.3186 8.09339 31.4264 7.9641 31.6763ZM12.3564 31.3357C12.4585 31.5013 12.1773 33.3266 11.9933 33.6935C11.9342 33.8113 11.8076 33.9338 11.7118 33.9659C11.5908 34.0062 11.5374 33.7504 11.5374 33.1296C11.5374 32.6376 11.4708 32.1938 11.3894 32.1433C11.1275 31.9807 11.231 31.6989 11.6483 31.4392C12.1288 31.1401 12.2273 31.1257 12.3564 31.3357ZM19.2643 31.7019C19.0568 34.0492 19.0694 33.9994 18.6814 33.9994C18.3266 33.9994 18.3178 33.9734 18.3846 33.1456C18.4744 32.0342 18.7911 31.1571 19.0815 31.2157C19.2303 31.2459 19.2905 31.4059 19.2643 31.7019ZM10.1321 32.7373C10.1321 33.9743 10.1102 34.0737 9.83638 34.0737C9.67381 34.0737 9.53757 33.9734 9.53358 33.8509C9.51479 33.2677 9.27072 32.2176 9.15371 32.2176C8.95815 32.2176 8.99543 31.7103 9.20652 31.4984C9.3077 31.3969 9.55725 31.3335 9.76123 31.3574C10.1265 31.4003 10.1321 31.4214 10.1321 32.7373ZM17.2203 31.4168C17.5027 31.5255 17.5437 32.5139 17.277 32.7817C17.1793 32.8797 17.0296 33.1769 16.9441 33.4424C16.8586 33.7079 16.7221 33.9093 16.6408 33.8898C16.3844 33.8284 16.3819 32.2744 16.6374 31.7786C16.8928 31.283 16.8851 31.2876 17.2203 31.4168ZM23.963 31.5939C23.963 31.7409 23.9001 31.9247 23.8232 32.0023C23.7463 32.0798 23.6632 32.5442 23.6383 33.0342C23.5988 33.8137 23.5537 33.9308 23.2775 33.9703C23.019 34.0074 22.9453 33.92 22.8707 33.4877C22.8206 33.1974 22.74 32.7337 22.6915 32.4572C22.5623 31.7206 22.8268 31.3266 23.4505 31.3266C23.8454 31.3266 23.963 31.388 23.963 31.5939ZM14.7775 31.8092C14.8597 32.0305 14.8342 32.2409 14.7016 32.4321C14.5691 32.6235 14.5331 32.919 14.5951 33.3085C14.6701 33.7788 14.6343 33.9362 14.4161 34.0962C13.9715 34.4226 13.9104 34.3397 13.9231 33.4285C13.9299 32.9511 13.8491 32.422 13.7437 32.2526C13.5866 32.0002 13.5871 31.9025 13.7463 31.7099C14.0392 31.3554 14.63 31.4125 14.7775 31.8092ZM34.7615 31.8909C34.7615 32.3684 34.5244 32.663 34.1402 32.663C33.9371 32.663 33.8739 32.5457 33.8739 32.1681C33.8739 31.5813 33.9571 31.4751 34.4164 31.4751C34.6958 31.4751 34.7615 31.5543 34.7615 31.8909ZM4.40001 31.8569C4.64039 31.9357 4.63832 31.957 4.37176 32.1539C3.945 32.4691 3.69737 32.4124 3.69737 31.9994C3.69737 31.7417 3.7632 31.6536 3.91926 31.7025C4.0413 31.7408 4.25756 31.8103 4.40001 31.8569ZM21.539 32.0964C21.4872 32.3565 21.3458 32.6792 21.2246 32.8134C21.1036 32.9478 21.0045 33.2696 21.0045 33.5286C21.0045 33.8956 20.9412 33.9994 20.7174 33.9994C20.2784 33.9994 20.1901 33.79 20.06 32.4403C20.0285 32.1136 20.0325 31.7962 20.0686 31.735C20.1048 31.6738 20.4717 31.6236 20.8838 31.6236H21.6332L21.539 32.0964ZM30.3598 32.0691C30.339 32.2732 30.3223 32.7009 30.3227 33.0192C30.3239 34.0652 29.5924 34.4049 29.2941 33.4971C29.2031 33.2207 29.143 32.9368 29.1605 32.866C29.1778 32.7952 29.101 32.5487 28.9896 32.3182C28.7413 31.8037 28.8719 31.6979 29.7556 31.6979C30.352 31.6979 30.3951 31.7243 30.3598 32.0691ZM37.2107 31.8342C37.3685 31.95 37.4645 32.067 37.4238 32.094C37.3833 32.1212 37.1505 32.2556 36.9064 32.3928C36.5289 32.6051 36.4558 32.7437 36.4175 33.3208C36.3807 33.8768 36.3208 33.9994 36.0867 33.9994C35.8328 33.9994 35.8032 33.8964 35.8208 33.0714C35.8317 32.561 35.8998 32.0265 35.972 31.8835C36.1319 31.567 36.8099 31.54 37.2107 31.8342ZM46.0037 31.7038C46.0037 31.7479 45.8693 32.0486 45.7049 32.372C45.2909 33.1866 44.9683 33.1516 44.9683 32.2918C44.9683 31.6272 44.9711 31.6236 45.486 31.6236C45.7708 31.6236 46.0037 31.6597 46.0037 31.7038ZM41.2685 31.9929C41.5463 32.3289 41.3367 32.663 40.8478 32.663C40.5035 32.663 40.3687 32.7638 40.1802 33.1622C39.9174 33.7185 39.5599 34.0766 39.4486 33.8953C39.4087 33.83 39.3309 33.4745 39.2758 33.1051C39.1911 32.537 39.223 32.3904 39.4832 32.154C39.6525 32.0003 39.7909 31.9216 39.7909 31.9792C39.7909 32.0367 39.9075 32.0158 40.0498 31.9325C40.4316 31.7093 41.0598 31.7405 41.2685 31.9929ZM53.0301 31.9194C52.7861 31.9858 52.3376 32.0827 52.0334 32.1352C51.7111 32.1907 51.4173 32.349 51.3289 32.5147C51.195 32.7659 51.3116 32.8777 52.3256 33.4708C52.9572 33.8402 53.5572 34.1437 53.6588 34.1452C53.9454 34.1494 53.877 33.7947 53.552 33.5911C53.3915 33.4904 53.2862 33.3239 53.3177 33.2212C53.3494 33.1184 53.4153 32.8504 53.4645 32.6259C53.5251 32.3479 53.6471 32.2176 53.8465 32.2176C54.0084 32.2176 54.1396 32.1179 54.1396 31.9948C54.1396 31.7504 53.7499 31.724 53.0301 31.9194ZM26.0869 32.0521C26.1569 32.0615 26.1665 32.2529 26.1085 32.4774C26.0505 32.7019 25.9712 33.0862 25.9323 33.3312C25.8526 33.8333 25.5902 34.2037 25.5902 33.8142C25.5902 33.6797 25.4226 33.2534 25.2179 32.8667C24.7457 31.9752 24.8409 31.886 26.0869 32.0521ZM32.3274 32.2851C32.7454 32.7046 32.782 32.893 32.4687 33.0138C32.3466 33.0607 32.2468 33.2683 32.2468 33.4751C32.2468 33.7102 32.1636 33.8509 32.0249 33.8509C31.8576 33.8509 31.803 33.6704 31.803 33.1172C31.803 32.7137 31.7354 32.3415 31.6527 32.2903C31.481 32.1839 31.599 31.9206 31.8184 31.9206C31.8987 31.9206 32.1277 32.0847 32.3274 32.2851ZM27.882 32.7001C27.8777 33.0473 27.9371 33.4181 28.0139 33.5243C28.108 33.6545 28.0744 33.7966 27.9108 33.961C27.5852 34.2876 27.5422 34.2115 27.513 33.257C27.4784 32.1295 27.488 32.0691 27.7015 32.0691C27.8256 32.0691 27.8871 32.2841 27.882 32.7001ZM43.7797 32.3563C43.9806 32.7333 43.976 33.5097 43.772 33.6362C43.522 33.7912 43.3745 33.5416 43.2626 32.7744C43.1768 32.1873 43.1987 32.0691 43.393 32.0691C43.5214 32.0691 43.6954 32.1983 43.7797 32.3563ZM52.9562 32.8027C52.9562 33.2084 52.7617 33.2819 52.3861 33.0179C52.0003 32.7466 52.0966 32.5145 52.5951 32.5145C52.854 32.5145 52.9562 32.5962 52.9562 32.8027ZM4.58492 33.5682C3.16544 33.9411 2.95775 34.0253 2.95775 34.2281C2.95775 34.4814 2.97742 34.4853 3.42889 34.3181C4.07754 34.0781 4.58492 33.9941 4.58492 34.1267C4.58492 34.1999 4.31865 34.5435 3.99322 34.8903C3.44072 35.4792 3.29694 35.7752 3.47593 35.955C3.5169 35.996 4.09928 35.8839 4.77027 35.7057C5.584 35.4896 6.00543 35.304 6.03576 35.148C6.07688 34.9365 6.00085 34.9352 5.24333 35.1337C4.7824 35.2546 4.37886 35.327 4.34676 35.2948C4.31466 35.2625 4.58758 34.9411 4.95325 34.5806C5.96638 33.5819 5.84124 33.2383 4.58492 33.5682ZM50.8852 34.202C50.8852 34.3393 51.0565 34.4781 51.292 34.5317C51.5157 34.5827 52.0746 34.7176 52.5337 34.8315C53.5767 35.0905 53.5479 35.0921 53.5479 34.7721C53.5479 34.5592 53.346 34.4695 52.5494 34.328C52.0003 34.2305 51.4012 34.1088 51.2181 34.0578C50.9731 33.9893 50.8852 34.0275 50.8852 34.202ZM47.6309 34.4554C47.6309 34.7811 46.0426 34.8749 39.7909 34.9181C36.0891 34.9436 32.9716 35.022 32.863 35.0924C32.7544 35.1628 32.2385 35.2166 31.7166 35.2121C31.1946 35.2075 30.2961 35.2001 29.7198 35.1956C28.9627 35.1895 28.6886 35.137 28.7322 35.0059C28.8186 34.7454 29.4103 34.6378 30.1442 34.7488C30.4928 34.8017 30.8129 34.7883 30.8555 34.7191C30.8981 34.6499 33.8745 34.5885 37.4698 34.5824C41.0651 34.5763 44.3063 34.5262 44.6724 34.471C45.6672 34.321 47.6309 34.3106 47.6309 34.4554ZM13.4315 34.8119C13.6055 34.9866 13.2855 35.0387 11.527 35.1218C10.5158 35.1696 9.55518 35.2292 9.39246 35.254C8.96244 35.3198 8.43095 35.0835 8.43095 34.8266C8.43095 34.6361 8.77887 34.6139 10.8921 34.6691C12.2459 34.7046 13.3886 34.7687 13.4315 34.8119ZM22.1687 34.7928C22.3123 34.9667 22.3114 35.0365 22.1638 35.1281C21.8745 35.3076 14.1395 35.2512 13.8127 35.0672C13.2601 34.7558 13.3301 34.7505 19.6839 34.6204C21.577 34.5816 22.0196 34.6124 22.1687 34.7928ZM23.963 34.7419C23.963 34.8235 23.8964 34.8903 23.8151 34.8903C23.7337 34.8903 23.6672 34.8235 23.6672 34.7419C23.6672 34.6602 23.7337 34.5934 23.8151 34.5934C23.8964 34.5934 23.963 34.6602 23.963 34.7419ZM26.0061 34.9291C26.0391 35.1015 25.9619 35.1873 25.7736 35.1873C25.4115 35.1873 25.2937 35.0645 25.3971 34.7943C25.5069 34.5069 25.9437 34.6038 26.0061 34.9291ZM50.598 35.506C50.3171 35.9695 50.0601 36.7941 50.1685 36.8845C50.3459 37.0323 52.5757 37.6898 52.6802 37.625C52.9361 37.4663 52.7973 37.2856 52.2905 37.1177C51.5073 36.8581 51.6361 36.5384 52.6603 36.1996C53.0377 36.0747 53.3464 35.8739 53.373 35.7358C53.4156 35.5152 53.3569 35.5115 52.7454 35.6962C52.0768 35.8983 52.0689 35.8965 51.8836 35.5066C51.5923 34.8936 50.9691 34.8933 50.598 35.506ZM42.6649 35.7176C42.7927 35.846 42.8973 36.0799 42.8973 36.2373C42.8973 36.4961 42.7842 36.5237 41.7227 36.5237C41.0502 36.5237 40.5063 36.456 40.4505 36.3653C40.3146 36.1445 40.3974 36.0935 41.0239 36.0131C41.3252 35.9743 41.7184 35.8395 41.8977 35.7134C42.304 35.4277 42.3763 35.428 42.6649 35.7176ZM44.8203 35.6773C44.8203 35.9724 44.5026 36.2267 44.1338 36.2267C43.7165 36.2267 43.5571 35.9825 43.7902 35.7005C44.0142 35.4298 44.8203 35.4115 44.8203 35.6773ZM46.5585 35.6699C46.486 35.8886 46.079 35.9905 45.7638 35.8692C45.4135 35.7342 45.679 35.4843 46.1727 35.4843C46.4648 35.4843 46.5987 35.5487 46.5585 35.6699ZM51.4728 35.702C51.5966 35.8517 51.611 36.046 51.5187 36.3238C51.3585 36.8063 51.1802 36.8899 50.8505 36.637C50.6332 36.4705 50.6289 36.3954 50.8123 35.9669C51.0394 35.4365 51.2 35.372 51.4728 35.702ZM11.6181 36.0879C12.7534 36.101 15.5572 36.1422 17.8489 36.1795C20.2452 36.2186 22.2308 36.1878 22.5222 36.107C23.1194 35.9415 23.963 36.2246 23.963 36.5908C23.963 36.7577 23.8101 36.8207 23.4043 36.8207C23.0969 36.8207 22.7141 36.9127 22.5537 37.0251C22.1927 37.2783 18.3836 37.3373 18.092 37.0943C17.9793 37.0005 16.1856 36.8887 13.5749 36.8127C11.1931 36.7432 9.23019 36.6833 9.21273 36.6793C9.19528 36.6755 9.10519 36.5301 9.01259 36.3564C8.88197 36.1114 8.88789 36.0134 9.03936 35.9194C9.14676 35.8527 9.30651 35.858 9.39423 35.9312C9.4821 36.0044 10.4828 36.0748 11.6181 36.0879ZM5.25102 36.1733C5.07898 36.3458 5.02218 36.6161 5.05546 37.1013C5.09733 37.7076 5.06611 37.791 4.78254 37.8316C4.39602 37.8868 4.22206 37.4653 4.36377 36.8174C4.46465 36.3562 4.32605 36.249 4.0228 36.5534C3.69234 36.8851 3.89115 37.8855 4.34824 38.192C4.60237 38.3623 5.24673 38.3243 5.44288 38.1274C5.54051 38.0294 5.62039 37.5901 5.62039 37.1514C5.62039 36.4708 5.6584 36.361 5.87926 36.4049C6.06179 36.4411 6.14345 36.6086 6.15617 36.9726C6.18901 37.9152 6.18916 37.9155 6.43397 37.7116C6.756 37.4433 6.71311 36.5812 6.36001 36.2267C6.001 35.8663 5.57705 35.8459 5.25102 36.1733ZM49.4761 38.1057C49.2727 38.5673 49.1254 38.9642 49.1486 38.9876C49.2354 39.0747 51.458 39.9389 51.5953 39.9389C51.7852 39.9389 52.4331 38.3249 52.2978 38.1891C52.1677 38.0586 51.7894 38.5589 51.6763 39.0109C51.5901 39.356 51.2625 39.4391 50.8988 39.2081C50.7224 39.0958 50.7301 38.9919 50.95 38.5267C51.1372 38.1311 51.1645 37.9326 51.0485 37.8161C50.9326 37.6997 50.815 37.8279 50.6276 38.2756C50.3653 38.9019 50.2276 38.9942 49.8833 38.7751C49.7329 38.6791 49.7403 38.5464 49.9203 38.1139C50.1836 37.4813 50.2029 37.2661 49.9958 37.2661C49.9134 37.2661 49.6797 37.6439 49.4761 38.1057ZM11.2415 38.6884L11.3155 39.4192H11.9072H12.4989L12.544 38.7139C12.5687 38.3259 12.6391 38.0086 12.7002 38.0086C12.7613 38.0086 13.0367 38.1756 13.3125 38.3798C13.5882 38.584 13.9206 38.751 14.0512 38.751C14.3518 38.751 14.643 39.0382 14.646 39.3375C14.6516 39.9115 14.8702 39.9937 15.6457 39.714C16.0511 39.5676 16.4841 39.4868 16.6081 39.5346C16.7339 39.5831 16.8799 39.9037 16.9394 40.2626C16.9977 40.6154 17.1416 41.0924 17.2589 41.3225C17.3762 41.5525 17.4517 41.8866 17.4264 42.065C17.3765 42.4164 16.847 42.5443 14.7673 42.7066C13.517 42.8041 13.1057 42.5703 12.8348 41.6072C12.6179 40.8367 12.3357 40.6445 12.1523 41.1424C12.0378 41.4531 11.9675 41.3934 11.2649 40.389C10.4757 39.2609 10.2735 38.4457 10.6813 38.0365C10.9896 37.7269 11.1649 37.9308 11.2415 38.6884ZM5.81713 38.738C5.23386 38.7859 4.71125 38.871 4.65592 38.9267C4.47605 39.1081 4.75074 39.3603 5.07884 39.315C5.31699 39.282 5.46344 39.4015 5.65337 39.7832C5.8902 40.2597 5.89094 40.3147 5.66417 40.5663C5.49598 40.7529 5.46788 40.8846 5.5735 40.9907C5.67926 41.0968 6.01993 40.838 6.67213 40.1563C7.19194 39.6128 7.61071 39.1077 7.60257 39.0339C7.59444 38.9599 7.57787 38.8327 7.56559 38.751C7.55332 38.6694 7.39356 38.6134 7.21057 38.6266C7.02759 38.6398 6.40054 38.6898 5.81713 38.738ZM6.63382 39.5913C6.31622 39.9306 6.28102 39.9376 6.10499 39.6957C5.8297 39.3178 5.8689 39.2223 6.32303 39.164C6.93396 39.0854 7.00969 39.1897 6.63382 39.5913ZM48.8173 39.8326C48.0115 40.2418 47.8615 41.2325 48.5071 41.8807C48.8565 42.2314 49.0668 42.3147 49.6033 42.3147C50.1631 42.3147 50.3273 42.243 50.6502 41.8578C51.1302 41.2853 51.1531 40.634 50.7043 40.3186C50.2338 39.9876 50.035 40.0299 49.7856 40.514C49.5205 41.0285 49.648 41.2217 50.0261 40.8783C50.2219 40.7004 50.3461 40.6747 50.4597 40.7887C50.6836 41.0135 50.4833 41.538 50.0693 41.8102C49.752 42.0189 49.6715 42.0172 49.1985 41.7919C48.3886 41.4061 48.2946 40.4837 49.0461 40.2944C49.2687 40.2383 49.406 40.0965 49.406 39.9229C49.406 39.5943 49.3143 39.5802 48.8173 39.8326ZM7.05792 40.9274C6.1544 41.4588 5.94153 41.6467 6.06875 41.8005C6.20114 41.9607 6.32392 41.9414 6.7384 41.696C7.20466 41.4199 7.25377 41.4158 7.34178 41.6458C7.39444 41.7836 7.32817 42.1263 7.1946 42.4075C6.9168 42.9923 6.88795 43.2971 7.0983 43.4275C7.17892 43.4775 7.35998 43.2643 7.50065 42.9537C7.64133 42.643 7.76943 42.3668 7.78526 42.3398C7.80094 42.3128 7.95715 42.3676 8.13229 42.4617C8.38569 42.5979 8.52429 42.5845 8.81067 42.3961C9.0086 42.2659 9.17057 42.0538 9.17057 41.9248C9.17057 41.6758 8.40817 40.2313 8.28303 40.2432C8.24235 40.247 7.69103 40.555 7.05792 40.9274ZM8.51438 41.2937C8.72769 41.7077 8.72931 41.7818 8.52976 41.9821C8.33021 42.1824 8.26498 42.1619 7.92313 41.7917C7.56293 41.4015 7.55479 41.3604 7.78644 41.1034C8.12534 40.7275 8.23791 40.7569 8.51438 41.2937ZM26.8671 41.8814C27.141 42.0513 27.3663 42.1349 27.3675 42.067C27.3688 41.999 27.4287 42.0371 27.5009 42.1514C27.7105 42.4837 30.3334 42.5291 30.8875 42.2099C31.29 41.978 31.3504 41.9796 31.8922 42.2378C32.2092 42.3888 32.4783 42.4846 32.4901 42.4507C32.5441 42.2956 33.1343 42.9823 33.1343 43.2003C33.1343 43.7053 32.7865 43.9294 31.9509 43.9629C31.5035 43.9809 31.0439 44.0684 30.9297 44.1575C30.5931 44.4198 28.8501 44.3487 28.1049 44.0422C27.6481 43.8544 27.0564 43.7671 26.2189 43.764C24.8168 43.7588 24.7556 43.6778 25.3122 42.5686C25.8804 41.4366 26.0379 41.3669 26.8671 41.8814ZM47.255 41.8792C47.2013 41.9662 47.1808 42.0565 47.2093 42.0795C47.2377 42.1027 47.7503 42.439 48.3483 42.827C49.1289 43.3334 49.4808 43.4869 49.5958 43.3715C49.7902 43.1764 49.8598 43.2419 48.5665 42.4063C47.4015 41.6538 47.3953 41.6513 47.255 41.8792ZM36.5736 42.4632C37.048 42.4632 37.2762 42.7306 37.2762 43.2866C37.2762 43.9739 36.919 44.1929 35.6121 44.3064L34.4656 44.4059V43.5938C34.4656 42.857 34.5094 42.7473 34.938 42.4106C35.3743 42.0678 35.4411 42.0558 35.8181 42.2515C36.0425 42.3679 36.3824 42.4632 36.5736 42.4632ZM46.825 42.5992C46.779 42.6741 47.0195 42.9743 47.3596 43.2665C47.6997 43.5588 47.9458 43.8299 47.9066 43.8692C47.8674 43.9086 47.4123 43.8724 46.8951 43.7888C46.1555 43.6692 45.9132 43.6784 45.7601 43.832C45.5993 43.9934 45.7511 44.1739 46.634 44.8723C47.3355 45.427 47.7526 45.6671 47.8482 45.5712C47.9439 45.4751 47.7664 45.2232 47.3317 44.8378L46.6694 44.2507L47.5569 44.3344C48.0451 44.3806 48.5229 44.4423 48.6186 44.4714C48.7143 44.5005 48.8652 44.4366 48.9539 44.3293C49.0789 44.1782 48.8829 43.9457 48.0852 43.2988C46.987 42.4081 46.954 42.3897 46.825 42.5992ZM8.1351 43.4054C8.1351 43.5152 8.26158 43.72 8.41631 43.8605C8.75875 44.1716 8.96096 43.9417 8.72843 43.5057C8.5487 43.1685 8.1351 43.0986 8.1351 43.4054ZM9.54038 43.965C8.5703 44.7523 8.44441 45.0322 8.82709 45.5497C8.99099 45.7714 9.28092 46.0318 9.4713 46.1286C9.86641 46.3295 10.0166 46.2697 11.1248 45.4705C11.6968 45.058 11.8073 44.9124 11.6723 44.749C11.5328 44.5803 11.3724 44.6487 10.7612 45.137C9.98978 45.7537 9.64881 45.8536 9.34808 45.5518C9.00948 45.2119 9.17427 44.842 9.91019 44.2905C10.6158 43.7617 10.8622 43.348 10.4649 43.3595C10.3633 43.3623 9.94718 43.6349 9.54038 43.965ZM18.858 44.7452C19.126 44.9419 19.125 44.9538 18.822 45.1164C18.65 45.2089 18.3654 45.2845 18.1895 45.2845C18.0136 45.2845 17.6839 45.3947 17.4567 45.5295C17.0042 45.7978 16.6121 45.7241 16.4666 45.3437C16.3409 45.0148 16.7564 44.786 17.6762 44.6776C18.083 44.6296 18.453 44.5796 18.4985 44.5662C18.5439 44.5529 18.7058 44.6335 18.858 44.7452ZM11.1115 45.9836L10.2001 46.9921L10.7455 47.4747C11.522 48.1619 12.2277 48.1476 12.8533 47.4324C13.5555 46.6296 13.4724 46.2326 12.4088 45.3099L12.0229 44.9752L11.1115 45.9836ZM43.898 45.7149L43.2671 46.3086L44.2195 47.2764C44.9668 48.036 45.2149 48.2085 45.3717 48.0778C45.535 47.9417 45.4978 47.8342 45.1683 47.4888L44.765 47.0663L45.1746 46.6372C45.7091 46.0771 45.4314 45.9049 44.8229 46.4189C44.3909 46.7836 44.3386 46.7947 44.1143 46.5696C43.89 46.3445 43.9081 46.2893 44.3591 45.8223C45.0677 45.0885 44.6635 44.9945 43.898 45.7149ZM12.6484 46.0829C12.9429 46.534 12.7336 47.0555 12.1095 47.4255C11.7047 47.6656 11.6439 47.6671 11.3085 47.4466C10.8216 47.1263 10.8489 46.9556 11.4934 46.293C12.1316 45.637 12.3335 45.6003 12.6484 46.0829ZM20.3943 46.2682C20.6486 46.3193 20.8566 46.4231 20.8566 46.4991C20.8566 46.7073 19.484 46.5759 19.4136 46.361C19.3463 46.1559 19.6785 46.1245 20.3943 46.2682ZM22.8351 46.7823C23.7392 47.0343 23.9973 47.0887 24.6287 47.1606C24.9541 47.1976 25.7862 47.3012 26.4777 47.3909C29.1057 47.732 34.7519 47.599 36.7585 47.1489L37.2022 47.0494L36.8324 47.2766C35.6881 47.9798 34.1145 48.3574 31.729 48.5009C30.9968 48.5448 30.3164 48.6476 30.217 48.7292C29.9723 48.93 27.0759 48.9141 26.8734 48.7108C26.786 48.6231 26.6279 48.5512 26.5221 48.5512C26.4163 48.5512 26.1967 48.4176 26.034 48.2542C25.7863 48.0057 25.5409 47.9573 24.5266 47.9573C23.0428 47.9573 21.5962 47.6812 21.5962 47.398C21.5962 47.0804 21.8839 46.6207 22.0822 46.6218C22.181 46.6222 22.5199 46.6944 22.8351 46.7823ZM41.9145 47.2698C40.6314 48.3776 42.5041 50.3368 43.8389 49.2828C44.144 49.042 44.2286 48.846 44.2286 48.3804C44.2286 47.1357 42.8411 46.4697 41.9145 47.2698ZM43.4426 47.6861C43.8118 48.0345 43.8946 48.6786 43.6074 48.967C43.1202 49.4559 42.0098 48.8599 42.0098 48.1096C42.0098 47.3357 42.8176 47.0969 43.4426 47.6861ZM14.1501 48.516C13.7707 49.0684 13.4604 49.5667 13.4604 49.6234C13.4604 49.6802 13.7586 49.902 14.1232 50.1166C14.6222 50.41 14.896 50.4821 15.2307 50.4083C15.9572 50.2481 16.5671 49.2541 16.3535 48.5785C16.2664 48.3026 15.2383 47.5118 14.967 47.5118C14.8972 47.5118 14.5296 47.9636 14.1501 48.516ZM8.65284 49.0957C13.7364 52.9178 18.5228 55.2663 23.4611 56.3618C24.8523 56.6704 25.7646 56.7681 27.8218 56.8286C31.5894 56.9396 34.3267 56.5363 37.6499 55.3806C40.5427 54.3746 45.2277 51.782 48.0707 49.6141C48.5159 49.2745 48.956 48.9967 49.0485 48.9967C49.242 48.9967 52.1198 52.1955 52.1874 52.4858C52.2374 52.6996 50.7848 53.9429 48.9294 55.2743C43.1115 59.4489 37.2542 61.6619 30.5374 62.2235C26.497 62.5613 21.3983 61.8 17.0764 60.2139C14.7856 59.373 11.0431 57.4513 8.86215 55.9958C6.90866 54.6921 3.69057 52.1825 3.60019 51.8922C3.50108 51.5741 7.07049 47.9014 7.30495 48.0804C7.39533 48.1494 8.00197 48.6063 8.65284 49.0957ZM12.937 48.1149C12.8196 48.3058 13.2783 48.8482 13.5573 48.8482C13.8721 48.8482 13.7805 48.5015 13.3907 48.217C13.1555 48.0453 13.0012 48.0106 12.937 48.1149ZM15.6513 48.4085C16.0539 48.7849 16.0532 48.8362 15.6372 49.4573C15.2417 50.0478 14.8216 50.1559 14.3716 49.7832L14.0494 49.5164L14.5315 48.8158C14.7966 48.4305 15.0843 48.1132 15.1705 48.1105C15.2569 48.108 15.4733 48.2421 15.6513 48.4085ZM39.8205 48.7294C39.7229 48.8274 39.643 49.1628 39.643 49.4748V50.0422L39.0473 49.737C38.6319 49.5244 38.3772 49.4736 38.2065 49.5695C38.0075 49.6813 38.1268 49.792 38.8392 50.1571C39.3943 50.4416 39.8093 50.7744 39.968 51.0623C40.1295 51.3552 40.2968 51.4877 40.437 51.4336C40.6209 51.3628 40.6077 51.2691 40.3526 50.8349C40.099 50.4037 40.0662 50.1767 40.1496 49.4357C40.2483 48.561 40.1655 48.3831 39.8205 48.7294ZM16.5837 49.8765C16.2489 50.4419 15.9751 50.9754 15.9751 51.0618C15.9751 51.1855 16.8832 51.7462 17.6392 52.0894C17.7002 52.117 17.7502 52.0462 17.7502 51.9318C17.7502 51.8176 17.4839 51.574 17.1585 51.3903C16.5085 51.0237 16.4769 50.9586 16.7589 50.5715C16.9413 50.321 16.9791 50.3244 17.5079 50.6376C17.8987 50.8691 18.1114 50.9208 18.221 50.8107C18.3305 50.7009 18.1953 50.561 17.7678 50.3421C17.1086 50.0046 17.0403 49.8739 17.3762 49.594C17.5515 49.4481 17.6975 49.477 18.1267 49.7433C18.4796 49.9621 18.709 50.0239 18.8064 49.9262C18.9037 49.8285 18.676 49.6217 18.1321 49.3134C17.6805 49.0575 17.2842 48.8482 17.2515 48.8482C17.2188 48.8482 16.9184 49.3109 16.5837 49.8765ZM18.8218 50.9658C18.5571 51.557 18.341 52.1119 18.3413 52.199C18.3419 52.3577 19.741 53.0058 20.0828 53.0058C20.4886 53.0058 20.2247 52.7181 19.5992 52.4783C18.8988 52.2098 18.8414 52.1197 19.0824 51.6677C19.2198 51.4099 19.2707 51.405 19.7433 51.6032C20.3466 51.8562 20.5607 51.8732 20.5607 51.6683C20.5607 51.5858 20.2945 51.4117 19.9691 51.2808C19.3389 51.0278 19.3037 50.9769 19.5205 50.6326C19.6424 50.4392 19.7408 50.4426 20.3284 50.6612C21.2038 50.9868 21.3825 50.7184 20.5332 50.3534C19.2701 49.8105 19.3521 49.7811 18.8218 50.9658ZM36.6224 50.265C36.1407 50.4658 35.6368 50.63 35.5023 50.63C35.2162 50.63 33.8507 51.0697 33.6892 51.2139C33.6084 51.2859 34.2142 53.4673 34.3806 53.7037C34.392 53.7199 34.8485 53.5962 35.395 53.4289C36.4642 53.1012 36.7824 52.7445 35.8339 52.9366C34.9056 53.1248 34.7334 53.0979 34.6003 52.7443C34.4853 52.4388 34.5337 52.3924 35.1354 52.2309C35.5195 52.1278 35.797 51.9661 35.797 51.8456C35.797 51.7263 35.7067 51.6724 35.5856 51.719C35.4693 51.7639 35.1458 51.8435 34.8665 51.8962C34.4344 51.9774 34.3469 51.9458 34.2785 51.6836C34.2099 51.4201 34.3051 51.3437 34.9353 51.1558C36.6438 50.6465 36.5889 50.6317 37.0546 51.7312C37.2823 52.2689 37.5584 52.7089 37.6682 52.7089C37.9485 52.7089 37.9214 52.5307 37.4823 51.4834L37.0968 50.5638L37.4083 50.3561C37.7126 50.1534 37.8306 49.8814 37.609 49.8938C37.5479 49.8974 37.104 50.0644 36.6224 50.265ZM21.1233 51.966C20.7732 53.0379 20.7761 53.462 21.1322 53.2412C21.2023 53.1975 21.3442 52.8596 21.4473 52.49C21.6224 51.862 21.8921 51.5732 21.8921 52.0136C21.8921 52.1214 21.9944 52.5558 22.1197 52.9788C22.4523 54.103 22.7793 54.0289 23.1942 52.7354C23.3729 52.1785 23.5192 51.6049 23.5192 51.461C23.5192 50.9834 23.1724 51.3061 22.9373 52.0022C22.8099 52.3794 22.6636 52.7292 22.6123 52.7797C22.561 52.8302 22.404 52.4004 22.2637 51.8249C21.908 50.3685 21.6339 50.4024 21.1233 51.966ZM6.67316 51.985C6.06209 52.8045 5.9297 53.0718 6.08517 53.171C6.22481 53.26 6.40394 53.1562 6.67228 52.8306L7.05851 52.3621L7.59681 52.6961C8.23258 53.0906 8.35403 52.821 7.75612 52.3424C7.49651 52.1347 7.4082 51.9574 7.4761 51.7799C7.60391 51.4454 7.81011 51.4543 8.35699 51.8179C8.85254 52.1473 9.02265 52.1856 9.02265 51.9673C9.02265 51.7905 7.86544 50.927 7.62831 50.927C7.53675 50.927 7.10688 51.4031 6.67316 51.985ZM32.8976 51.3232C32.7831 51.3649 32.8068 51.7438 32.9777 52.6017C33.1679 53.5567 33.2799 53.8323 33.4944 53.8737C33.7176 53.917 33.7509 53.862 33.6742 53.5777C33.6225 53.3857 33.5062 52.8106 33.4158 52.2998C33.2475 51.3475 33.18 51.2206 32.8976 51.3232ZM25.0829 51.7542C24.6393 52.1995 24.8066 52.5336 25.7011 52.9889C26.3693 53.3289 26.4348 53.435 26.1523 53.7186C25.8838 53.9881 25.467 53.9325 25.26 53.5998C25.023 53.2189 24.7026 53.2167 24.7026 53.5959C24.7026 53.906 25.371 54.3422 25.8458 54.3422C26.2808 54.3422 26.7736 53.9098 26.7736 53.5279C26.7736 53.1736 26.1629 52.5604 25.8103 52.5604C25.7091 52.5604 25.5508 52.469 25.4585 52.3574C25.3307 52.2027 25.3455 52.1087 25.5205 51.9629C25.7121 51.8032 25.8226 51.8248 26.182 52.0916C26.8928 52.619 27.2216 52.4162 26.6256 51.8179C26.2668 51.4577 25.4136 51.4225 25.0829 51.7542ZM30.8363 51.6567C30.2709 51.8972 30.1195 52.2417 30.1588 53.1981C30.1816 53.7527 30.7865 54.3422 31.3326 54.3422C31.8119 54.3422 32.5426 53.8426 32.5426 53.5147C32.5426 53.1996 32.1329 53.2584 31.9509 53.5998C31.5875 54.2815 30.6196 53.7254 30.6196 52.8349C30.6196 52.1471 31.3379 51.7075 31.7635 52.1347C31.8557 52.2272 32.0472 52.258 32.1891 52.2034C32.4138 52.1168 32.4197 52.0763 32.2341 51.8901C31.9602 51.6151 31.2231 51.492 30.8363 51.6567ZM27.9953 51.7741C27.524 51.8653 27.2173 52.3801 27.2173 53.0801C27.2173 53.8518 27.5392 54.3058 28.1706 54.4246C28.9009 54.5623 29.4708 54.2359 29.6937 53.5529C29.9289 52.8325 29.6402 52.0369 29.0639 51.817C28.6686 51.6662 28.5726 51.6623 27.9953 51.7741ZM47.4738 52.2727C47.1583 52.5893 47.1504 52.8698 47.4543 52.9715C47.5504 53.0036 47.6964 52.852 47.7788 52.6346C47.9692 52.1318 48.2949 52.2306 48.302 52.7932C48.3065 53.1424 48.3723 53.2231 48.6548 53.2256C49.1183 53.2296 49.3817 53.6425 49.1217 53.9572C48.9923 54.1136 48.8054 54.1599 48.5562 54.0971C48.2778 54.027 48.201 54.0553 48.2517 54.2099C48.3541 54.5223 49.0937 54.5516 49.419 54.2561C49.8495 53.8651 49.7798 53.3335 49.259 53.036C49.0155 52.897 48.8158 52.6796 48.8152 52.5529C48.8128 51.9433 47.976 51.7685 47.4738 52.2727ZM29.0559 52.3482C29.3211 52.6146 29.3615 53.3334 29.1352 53.7581C28.9452 54.1143 28.3025 54.1364 27.9317 53.7995C27.5974 53.4958 27.5756 52.6674 27.8935 52.3482C28.0215 52.2199 28.283 52.1149 28.4747 52.1149C28.6664 52.1149 28.9279 52.2199 29.0559 52.3482ZM8.51334 53.3359C7.99147 54.0837 8.42415 54.9362 9.3256 54.9362C9.78594 54.9362 10.354 54.3773 10.354 53.9244C10.354 53.0914 8.98848 52.6548 8.51334 53.3359ZM45.7409 53.237C45.5536 53.3686 45.412 53.6243 45.412 53.831C45.412 54.296 45.675 54.2998 45.8503 53.8369C46.0375 53.3428 46.286 53.2256 46.561 53.5016C46.7574 53.6987 46.7667 53.8267 46.6207 54.3159C46.4361 54.9345 46.3875 55.8271 46.5385 55.8271C46.711 55.8271 48.0747 55.0373 48.0747 54.9374C48.0747 54.6892 47.8555 54.6686 47.4504 54.8789C47.2092 55.004 46.988 55.0827 46.959 55.0536C46.93 55.0247 46.9775 54.7195 47.0645 54.3756C47.3413 53.2808 46.5934 52.6376 45.7409 53.237ZM9.73269 53.481C10.0192 53.7686 9.93786 54.1686 9.53964 54.4306C8.89248 54.8563 8.43613 54.1683 8.97161 53.5744C9.25607 53.2589 9.48358 53.2309 9.73269 53.481ZM10.7386 54.5261C10.527 54.8885 10.354 55.2827 10.354 55.4021C10.354 55.7025 10.6547 55.9756 10.9858 55.9756C11.1381 55.9756 11.3672 56.0807 11.4952 56.209C11.7067 56.4213 11.7659 56.3775 12.1478 55.7264C12.5916 54.9699 12.6574 54.7091 12.439 54.5737C12.3653 54.528 12.1297 54.7914 11.915 55.1589C11.66 55.5956 11.423 55.8271 11.2306 55.8271C10.7868 55.8271 10.7418 55.4799 11.0952 54.7844C11.5526 53.8844 11.2439 53.6607 10.7386 54.5261ZM43.7214 54.2785C43.0185 54.9843 43.9395 56.1487 44.769 55.6032C45.0851 55.3953 45.1305 55.3948 45.2086 55.5992C45.3514 55.9728 45.1462 56.2956 44.7982 56.2449C44.3844 56.1847 44.2677 56.5149 44.6587 56.6395C45.3162 56.8488 45.8536 56.133 45.6501 55.3188C45.6005 55.1209 45.3876 54.7534 45.177 54.5021C44.7465 53.9885 44.1081 53.8904 43.7214 54.2785ZM44.7554 54.8163C44.8847 55.225 44.5968 55.5 44.2615 55.2881C43.9408 55.0854 43.8448 54.6371 44.0897 54.4851C44.3531 54.3217 44.6451 54.4671 44.7554 54.8163ZM12.7805 55.7686C12.5122 56.3193 12.431 56.635 12.5317 56.7361C12.6324 56.8373 12.8103 56.665 13.077 56.2081C13.4877 55.5046 13.7442 55.3806 14.0428 55.7416C14.1799 55.9074 14.1519 56.0821 13.9129 56.5523C13.5487 57.2689 13.5441 57.312 13.8321 57.312C13.9552 57.312 14.2028 57.0086 14.3822 56.6377C14.7592 55.859 14.6432 55.486 14.0002 55.409C13.7846 55.3831 13.6083 55.3066 13.6083 55.2392C13.6083 55.1717 13.5117 55.0792 13.3937 55.0337C13.2446 54.9764 13.0573 55.2009 12.7805 55.7686ZM41.9568 55.4743C41.6761 56.0653 41.7283 56.2717 42.0837 55.9756C42.3586 55.7466 42.3231 55.7117 42.813 56.6907C43.0303 57.125 43.2763 57.4573 43.3597 57.4294C43.443 57.4017 43.5087 57.3136 43.5057 57.234C43.4939 56.9171 42.5175 54.946 42.37 54.9412C42.2834 54.9384 42.0975 55.1784 41.9568 55.4743ZM16.8393 56.1904C16.7427 56.4032 16.6252 56.5566 16.5783 56.5315C15.7548 56.0908 15.6936 56.0806 15.3284 56.3207C14.5632 56.824 14.7109 58.0544 15.5365 58.0544C15.7778 58.0544 15.9751 58.1212 15.9751 58.2029C15.9751 58.2846 16.0672 58.3514 16.18 58.3514C16.3619 58.3514 17.3264 56.4209 17.328 56.0535C17.3293 55.7358 17.0044 55.8268 16.8393 56.1904ZM16.369 56.8018C16.5239 57.2067 16.1681 57.7574 15.7517 57.7574C15.2673 57.7574 15.137 57.4107 15.4445 56.9396C15.7152 56.5248 16.2337 56.4475 16.369 56.8018ZM17.6628 57.0123C17.2884 57.1626 16.9487 57.922 17.0759 58.3245C17.1907 58.6871 17.9196 59.0056 18.3332 58.8739C18.745 58.7427 18.5645 58.4754 18.137 58.5832C17.9261 58.6362 17.7292 58.5792 17.6049 58.4289C17.2703 58.0241 17.6184 57.8724 18.3151 58.1192L18.9336 58.3382V57.8433C18.9336 57.1439 18.3255 56.7462 17.6628 57.0123ZM21.0653 57.3862C20.9594 57.8094 20.9448 57.8153 20.5372 57.5963C19.8872 57.2471 19.2294 57.8155 19.2294 58.7262C19.2294 59.1549 19.8087 59.5917 20.185 59.4468C20.338 59.3878 20.4942 59.4313 20.5695 59.5535C20.652 59.6876 20.7434 59.7081 20.8313 59.6123C20.9701 59.4607 21.5962 57.4679 21.5962 57.1776C21.5962 56.8521 21.1556 57.0252 21.0653 57.3862ZM18.4898 57.6248C18.4898 57.8491 18.4235 57.9122 18.2558 57.8476C18.1271 57.798 17.9607 57.7574 17.886 57.7574C17.8113 57.7574 17.7502 57.6572 17.7502 57.5347C17.7502 57.3962 17.8898 57.312 18.12 57.312C18.3975 57.312 18.4898 57.3901 18.4898 57.6248ZM36.9891 57.7487C36.6017 58.1376 36.6005 58.6503 36.9861 59.0658C37.5099 59.6302 38.7105 59.3687 38.5855 58.7176C38.5349 58.4534 38.5103 58.4576 38.2078 58.7835C37.8305 59.19 37.4971 59.12 37.2531 58.5827C37.013 58.0535 37.3166 57.7101 37.909 57.8407C38.2402 57.9138 38.3307 57.8883 38.2808 57.7359C38.1697 57.3965 37.3318 57.4046 36.9891 57.7487ZM23.0864 57.8185C22.8468 58.1082 23.1339 58.2616 23.4936 58.036C23.8297 57.8253 24.2589 57.9552 24.2589 58.2676C24.2589 58.3901 23.8927 58.7677 23.4453 59.1069C22.6656 59.6977 22.4058 60.1332 22.8329 60.1332C22.9437 60.1332 23.3431 60.1757 23.7204 60.2277C24.5032 60.3353 24.7149 60.0392 23.963 59.8882C23.7189 59.8392 23.5192 59.7638 23.5192 59.7206C23.5192 59.6774 23.7855 59.4132 24.1109 59.1336C24.7156 58.6141 24.8651 58.1284 24.5251 57.7871C24.2803 57.5414 23.2978 57.5629 23.0864 57.8185ZM32.2838 57.7176C31.5699 57.7822 31.5863 57.7261 31.821 59.3105C31.9792 60.3785 32.0048 60.4302 32.3758 60.4293C33.0654 60.428 33.866 60.1286 34.0368 59.8083C34.301 59.3127 34.0983 58.3278 33.6529 57.9433C33.4399 57.7594 33.1862 57.6207 33.0891 57.6349C32.9919 57.6492 32.6295 57.6865 32.2838 57.7176ZM25.7681 58.1181C25.0656 58.6167 25.0204 58.6984 25.4946 58.6121L25.9168 58.5352L25.8177 59.4631C25.7385 60.206 25.7619 60.4076 25.9351 60.4743C26.1578 60.5601 26.1814 60.4656 26.4196 58.537C26.4725 58.1083 26.4573 57.7607 26.3859 57.7647C26.3143 57.7687 26.0363 57.9277 25.7681 58.1181ZM20.6797 58.3698C20.7408 58.8977 20.3426 59.2944 19.9588 59.0883C19.6383 58.9162 19.597 58.6233 19.8312 58.1842C20.0628 57.7496 20.6221 57.8719 20.6797 58.3698ZM29.6211 58.0748C29.5195 58.178 29.4362 58.3435 29.4362 58.443C29.4362 58.5423 29.3531 58.6576 29.2513 58.699C29.1185 58.753 29.1127 58.8087 29.2307 58.8969C29.3211 58.9643 29.4423 59.3409 29.5 59.7335C29.608 60.469 29.8297 60.6877 30.2868 60.5098C30.5319 60.4143 30.5316 60.3986 30.28 60.2127C30.134 60.1047 29.9754 59.7754 29.9279 59.4808C29.8581 59.0493 29.8881 58.9453 30.0825 58.9453C30.3795 58.9453 30.4005 58.7097 30.1134 58.5991C29.9976 58.5545 29.8812 58.3762 29.8545 58.2026C29.8155 57.9493 29.7696 57.9242 29.6211 58.0748ZM35.0573 58.0972C34.5253 58.3661 34.4479 59.4059 34.9346 59.7481C35.39 60.0684 35.844 60.0458 36.1677 59.6869C36.5215 59.2944 36.3296 59.1155 35.9372 59.472C35.7199 59.6694 35.5668 59.7084 35.407 59.6073C35.0294 59.3681 35.1585 59.1745 35.7881 59.0356C36.4851 58.8819 36.5457 58.6454 35.9989 58.2137C35.5434 57.8541 35.5394 57.8535 35.0573 58.0972ZM33.3457 58.2877C33.4852 58.4279 33.5781 58.7774 33.5781 59.1627C33.5781 59.8374 33.4337 59.9848 32.7728 59.9848C32.4811 59.9848 32.4127 59.8707 32.2666 59.1402C32.1336 58.4757 32.1372 58.2702 32.2832 58.1772C32.5855 57.9845 33.0964 58.0376 33.3457 58.2877ZM40.4055 58.1886C40.2626 58.2773 40.2727 58.3466 40.4496 58.4941C40.5755 58.5989 40.6795 58.7934 40.6807 58.9263C40.6826 59.1192 40.7088 59.1272 40.8106 58.966C40.9419 58.7578 40.868 58.2463 40.6906 58.1361C40.6354 58.1019 40.5072 58.1255 40.4055 58.1886ZM35.797 58.5741C35.797 58.6966 35.7359 58.7968 35.6612 58.7968C35.5865 58.7968 35.42 58.8374 35.2914 58.887C35.1236 58.9516 35.0573 58.8885 35.0573 58.6642C35.0573 58.4295 35.1496 58.3514 35.4271 58.3514C35.6573 58.3514 35.797 58.4356 35.797 58.5741ZM39.3906 58.4729C39.294 58.5328 39.263 58.6602 39.3218 58.7559C39.3908 58.8677 39.5063 58.8816 39.6457 58.7952C39.7902 58.7055 39.8131 58.6112 39.7144 58.5122C39.6331 58.4305 39.4874 58.4129 39.3906 58.4729ZM27.3712 58.864C27.0821 59.2137 27.2554 59.5751 27.8002 59.7591C28.0799 59.8536 28.3351 60.0098 28.3672 60.1064C28.4411 60.3292 27.7157 60.342 27.5792 60.1203C27.5076 60.0041 27.4348 60.0041 27.319 60.1203C27.1212 60.3188 27.321 60.5411 27.7351 60.583C28.3919 60.6494 28.6942 60.5637 28.8529 60.2658C29.055 59.8869 28.8984 59.6867 28.2182 59.4548C27.463 59.1972 27.4999 58.8943 28.2722 59.0104C28.8731 59.1005 28.8984 59.0913 28.6314 58.8779C28.2694 58.5887 27.6049 58.5812 27.3712 58.864Z" fill="white"/>
</svg>
