<svg width="33" height="36" viewBox="0 0 33 36" fill="none" xmlns="http://www.w3.org/2000/svg">
<path fill-rule="evenodd" clip-rule="evenodd" d="M14.3625 0.089318C9.27688 0.627716 4.73609 3.57554 2.1356 8.02697C0.69703 10.4893 -0.000914383 13.114 8.99033e-07 16.058C0.0010826 19.7029 0.967287 22.5402 3.36258 25.9319C3.47283 26.088 3.38563 26.2011 2.02985 27.6602L0.579208 29.2214L1.35612 29.9157C5.15911 33.3145 9.76048 35.4782 14.0969 35.9068C19.8078 36.4711 25.3714 34.4678 30.3767 30.0449C30.716 29.7452 30.8061 29.6194 30.744 29.5327C30.6986 29.4696 30.1242 28.824 29.4674 28.0981C28.8106 27.3723 28.2554 26.7319 28.2337 26.675C28.212 26.6181 28.3657 26.3604 28.5752 26.1021C30.1791 24.1255 31.4186 21.4082 31.8886 18.8384C32.1585 17.3626 32.152 14.6869 31.8749 13.1944C30.3417 4.93832 22.6846 -0.79178 14.3625 0.089318ZM18.8877 1.24513C21.0032 1.68472 22.6034 2.33679 24.3586 3.47456C25.0604 3.92951 25.1891 4.08871 24.8578 4.09239C24.7548 4.09356 24.4647 4.2444 24.213 4.42765C23.9613 4.61082 23.6554 4.80042 23.5331 4.84895C23.411 4.89748 23.2904 4.99094 23.2654 5.05667C23.1854 5.26565 23.6621 5.19499 24.0133 4.94584C24.8428 4.35716 25.2382 4.15912 25.4142 4.2439C25.7347 4.39809 26.7092 5.35461 26.7092 5.51497C26.7092 5.77482 26.3781 5.93786 26.0402 5.84439C25.7366 5.76045 25.2188 5.77832 25.0575 5.8783C24.9389 5.95189 24.9305 6.26193 25.0471 6.26193C25.1289 6.26193 25.1998 6.40417 25.3348 6.83833C25.3871 7.0068 25.3739 7.02994 25.2521 6.98308C25.1723 6.95234 25.0538 6.97164 24.9888 7.02584C24.8933 7.10544 24.7948 7.05149 24.4792 6.74637C22.7162 5.04198 20.0538 3.81375 17.3591 3.46178C17.0599 3.42269 16.9782 3.38435 17.047 3.31528C17.1885 3.17329 17.1593 2.93173 16.9682 2.66237C16.7779 2.394 16.6298 2.3575 16.4776 2.54159C16.3962 2.64007 16.4164 2.70304 16.5834 2.87068C16.9311 3.21964 16.7178 3.30216 15.1849 3.41191C13.4327 3.53745 11.8141 3.92893 10.6501 4.50876C10.3984 4.63413 10.1047 4.76409 9.99746 4.7975C9.89021 4.83091 9.63534 4.97148 9.43107 5.10988C9.22679 5.2482 9.03483 5.33648 9.00446 5.30599C8.97409 5.27551 8.9899 5.22439 9.03958 5.19249C9.27073 5.0439 9.25433 4.50792 9.01869 4.50792C8.95495 4.50792 8.90278 4.47668 8.90278 4.43843C8.90278 4.40017 8.76391 4.32609 8.59417 4.2738C8.20559 4.15411 8.08011 4.29301 8.3329 4.56313C8.53842 4.78272 8.48791 4.89364 8.14834 4.96856C7.78556 5.04849 7.86261 5.27442 8.30028 5.41374C8.49432 5.47555 8.65316 5.55206 8.65316 5.5838C8.65316 5.61562 8.46045 5.78601 8.22489 5.9625C7.80478 6.27738 7.7923 6.28089 7.56497 6.14608C7.2819 5.97828 7.15692 6.1115 7.42236 6.2981C7.60857 6.42906 7.60783 6.43032 6.94724 7.09734C6.58337 7.46476 6.23798 7.76537 6.17965 7.76537C6.11591 7.76537 6.07323 7.65737 6.07248 7.49391C6.0704 7.05792 5.89691 6.9125 5.26246 6.81528C4.85882 6.75347 4.81114 6.84084 5.11684 7.08222C5.38228 7.29178 5.38228 7.497 5.11684 7.59832C5.00243 7.642 4.90882 7.72995 4.90882 7.79377C4.90882 7.85766 4.83053 8.00976 4.73492 8.13187C4.57899 8.33074 4.52075 8.34912 4.17327 8.30836C3.79676 8.26426 3.77113 8.27604 3.28786 8.71704C2.79386 9.16782 2.79136 9.1725 2.94713 9.34531C3.13035 9.54853 3.39561 9.57359 3.46418 9.39409C3.52725 9.22913 3.71272 9.23381 3.77704 9.40194C3.80949 9.48697 3.73652 9.62086 3.57518 9.77212C3.37007 9.9644 3.2703 10.0006 3.04623 9.96414C2.77239 9.91954 2.77014 9.92188 2.78878 10.2298C2.81216 10.6165 2.91834 10.6855 3.4943 10.6886C3.746 10.6899 4.03298 10.7129 4.13208 10.7395C4.30058 10.7849 4.30549 10.8077 4.20872 11.0933C4.15172 11.2613 4.02616 11.4348 3.92964 11.4789C3.72412 11.5729 3.64191 11.8058 3.76905 11.9334C3.83245 11.997 3.81939 12.15 3.72395 12.4625C3.36466 13.6393 3.2862 14.2826 3.28869 16.0343C3.29052 17.3574 3.3248 17.9028 3.43946 18.4342C4.55478 23.6024 8.36052 27.3757 13.5046 28.4135C14.8995 28.6949 17.0399 28.6792 18.4344 28.3774C21.4594 27.7227 23.8282 26.2616 25.7842 23.8438C27.0631 22.263 27.861 20.5291 28.3404 18.2894C28.5757 17.19 28.5533 14.7046 28.2976 13.5336C27.8819 11.6304 27.1473 9.98285 26.0696 8.53646C25.5572 7.84898 25.4777 7.6973 25.5151 7.47821C25.6019 6.96896 25.6258 6.95351 25.8731 7.24802C26.0007 7.39987 26.2316 7.59197 26.3862 7.67491C26.5775 7.7774 26.676 7.89567 26.6937 8.04426C26.7081 8.16445 26.8155 8.33834 26.9324 8.43064C27.0919 8.55651 27.1347 8.65265 27.1038 8.81468C27.0697 8.99409 27.1079 9.05248 27.3284 9.15805C27.4746 9.22796 27.6361 9.3849 27.6874 9.50668C27.7387 9.62854 27.8948 9.91612 28.0343 10.1458C28.1738 10.3755 28.3072 10.6105 28.3306 10.6678C28.3541 10.7252 28.3928 10.8192 28.4166 10.8766C28.6146 11.3546 28.8792 11.6678 29.2874 11.9074C29.5383 12.0548 29.845 12.2972 29.9688 12.4461C30.1654 12.6824 30.2308 12.7108 30.4845 12.6694C30.7734 12.6224 30.7757 12.6245 30.8584 13.0127C31.1639 14.4474 31.1945 17.45 30.9172 18.7906C30.2055 22.232 28.6632 24.9522 26.1121 27.2657C24.3884 28.8289 21.1942 30.3423 18.5883 30.8307C17.4323 31.0473 15.2666 31.0906 14.2281 30.918C11.6901 30.4959 9.46552 29.5679 6.8226 27.8284C4.96557 26.6062 3.43139 24.7247 2.29104 22.2709C0.986176 19.463 0.592937 16.0468 1.23197 13.0692L1.37534 12.401L2.06396 12.4305C2.88289 12.4656 3.20923 12.36 3.27014 12.0402C3.29335 11.918 3.27987 11.7571 3.24018 11.6825C3.15648 11.5256 2.26366 11.3233 2.03817 11.4102C1.89696 11.4647 1.89713 11.4725 2.04241 11.5792C2.1262 11.6406 2.28122 11.691 2.38689 11.691C2.52352 11.691 2.57902 11.7392 2.57902 11.8581C2.57902 11.9499 2.53225 12.0284 2.47501 12.0325C2.25026 12.0486 1.53709 12.0089 1.5068 11.9788C1.48916 11.9611 1.59517 11.5979 1.74237 11.1716C2.31866 9.50276 3.73768 7.00388 4.14232 6.94516C4.27503 6.92595 4.32637 6.8613 4.32637 6.71338C4.32637 6.57732 4.50144 6.3194 4.84642 5.94713C5.96822 4.73653 7.1833 3.75319 8.47268 3.01258C9.142 2.62812 10.2447 2.08572 10.3571 2.08572C10.381 2.08572 10.4005 2.16206 10.4005 2.25544C10.4005 2.3722 10.555 2.52188 10.896 2.7357C11.1685 2.90651 11.3932 3.09327 11.3953 3.15065C11.3973 3.20812 11.4396 3.25506 11.4891 3.25506C11.689 3.25506 11.4975 3.44691 11.1881 3.55683C10.7939 3.69682 10.6066 3.66174 9.92232 3.31962C9.63642 3.17663 9.37906 3.08325 9.35036 3.11206C9.2466 3.21613 9.39828 3.4125 9.68959 3.55123C9.85326 3.62916 10.0085 3.72764 10.0346 3.76998C10.1174 3.90462 9.88962 4.0903 9.6415 4.0903C9.33937 4.0903 9.32365 4.2855 9.61055 4.47418C9.78453 4.5886 9.85925 4.59453 10.0622 4.51026C10.1959 4.45463 10.37 4.33736 10.449 4.24975C10.5394 4.14943 10.7031 4.0903 10.8903 4.0903C11.0539 4.0903 11.3851 4.00819 11.6262 3.90788C12.0029 3.75119 12.0647 3.69356 12.0647 3.49895C12.0647 3.27752 11.8477 3.04132 11.2811 2.64558C11.1629 2.56306 11.0662 2.4422 11.0662 2.37705C11.0662 2.31198 10.9913 2.21844 10.8998 2.16924C10.8082 2.12004 10.7333 2.04537 10.7333 2.00319C10.7333 1.82996 12.7542 1.29967 14.3529 1.05336C14.4902 1.03222 15.3701 1.02588 16.3082 1.03924C17.6655 1.05862 18.1925 1.10071 18.8877 1.24513ZM18.0606 2.03067C17.9225 2.39551 17.871 2.98126 17.9621 3.15215C18.0496 3.31645 18.4691 3.42937 19.1169 3.46311C19.2723 3.47122 19.4775 3.56201 19.5985 3.67602C19.7416 3.81091 19.8912 3.86854 20.0643 3.85526C20.2046 3.84457 20.5191 3.9306 20.7633 4.04653C21.0074 4.16246 21.2751 4.2576 21.3579 4.25793C21.4409 4.25818 21.621 4.3331 21.7583 4.4244C22.0471 4.61642 22.7387 4.65016 23.1065 4.4903C23.2345 4.43459 23.4628 4.26545 23.6137 4.11444C23.7646 3.96334 23.9456 3.83973 24.0158 3.83973C24.2215 3.83973 24.095 3.63317 23.8737 3.60778C23.7267 3.59082 23.6368 3.64737 23.5416 3.81659C23.3681 4.12496 22.7665 4.31523 22.4386 4.1653C22.2019 4.05706 22.1646 3.92526 22.2988 3.67326C22.4077 3.46913 22.3207 3.25506 22.1288 3.25506C22.0448 3.25506 21.953 3.21747 21.9247 3.17153C21.8564 3.06044 21.242 3.06404 21.1731 3.17596C21.1434 3.22432 21.0756 3.24796 21.0226 3.22858C20.9696 3.20912 20.8 3.2447 20.6457 3.30768C20.2846 3.45493 20.2828 3.45476 20.0114 3.24044C19.8419 3.10663 19.639 3.05117 19.2406 3.02979C18.5172 2.99095 18.4452 2.93984 18.4237 2.4498C18.4139 2.22662 18.4019 1.99701 18.3972 1.93955C18.3821 1.75972 18.1382 1.82579 18.0606 2.03067ZM12.0335 2.06124C11.9115 2.18377 12.0126 2.34381 12.5401 2.86299C12.9536 3.27001 13.1258 3.39037 13.2027 3.3263C13.2851 3.25764 13.2807 3.2001 13.1816 3.04825C13.0067 2.78014 12.0967 1.99793 12.0335 2.06124ZM21.5087 3.58915C21.537 3.63509 21.5204 3.67268 21.472 3.67268C21.4236 3.67268 21.3839 3.63509 21.3839 3.58915C21.3839 3.54321 21.4004 3.50563 21.4206 3.50563C21.4408 3.50563 21.4804 3.54321 21.5087 3.58915ZM17.6812 4.4913L18.014 4.55486L17.9966 5.64452C17.98 6.69191 17.9478 6.86264 17.6732 7.36679C17.5677 7.5604 17.5647 7.67048 17.6531 8.10038C17.7104 8.3786 17.8238 8.67795 17.9051 8.76557C18.0645 8.9373 18.0676 9.40428 17.9293 12.401C17.8755 13.5639 17.884 13.6828 18.0467 14.0575C18.1431 14.2795 18.222 14.6376 18.222 14.8533C18.222 15.4193 18.0222 15.572 17.2651 15.5846C16.9448 15.5899 16.664 15.5665 16.6411 15.5325C16.6182 15.4985 15.9693 15.4538 15.1989 15.4331C14.1071 15.4039 13.7819 15.3693 13.7233 15.2765C13.6161 15.1063 13.6266 13.9678 13.7361 13.8999C13.7972 13.862 13.7992 13.8164 13.7421 13.7591C13.6905 13.7072 13.6855 13.601 13.7296 13.4847C13.8084 13.2766 13.674 12.6522 13.4603 12.2339C13.3684 12.0541 13.3187 11.606 13.2839 10.647C13.2573 9.91194 13.2294 9.17902 13.2219 9.01823C13.2144 8.85745 13.254 8.61314 13.3099 8.47532C13.5275 7.93927 13.4246 7.32728 13.0481 6.91776C12.7526 6.59645 12.4028 5.65287 12.3996 5.16843C12.3977 4.89347 12.4235 4.86064 12.7095 4.77495C12.9752 4.69535 13.7915 4.54384 14.7689 4.39257C15.1108 4.3397 17.271 4.41287 17.6812 4.4913ZM19.9552 5.09627C23.0129 6.2494 25.389 8.52536 26.6687 11.5267C26.8277 11.8994 27.0167 12.4083 27.0889 12.6576C27.2057 13.0606 27.2063 13.125 27.0954 13.2362C27.0269 13.3051 26.9352 13.3615 26.8917 13.3615C26.8483 13.3615 26.7683 13.4154 26.7138 13.4812C26.5546 13.6738 26.2748 13.6015 26.1774 13.3426C26.032 12.9562 25.8771 13.0568 25.8771 13.5376C25.8771 13.951 25.8706 13.9626 25.6691 13.9118C25.4447 13.8553 25.4351 13.8646 25.5116 14.0646C25.5781 14.2385 25.931 14.2344 26.029 14.0587C26.0714 13.9827 26.2137 13.9091 26.3452 13.895C26.4768 13.881 26.757 13.8449 26.9681 13.8148C27.3395 13.7617 27.3535 13.7677 27.4064 13.9993C27.4364 14.1308 27.4843 14.7888 27.5129 15.4612L27.5648 16.684L25.9512 16.6958C25.0638 16.7023 23.5515 16.7414 22.5904 16.7826C21.6294 16.8239 20.7494 16.8463 20.635 16.8324C20.5206 16.8186 20.3614 16.8025 20.2814 16.7967C20.1472 16.7868 20.1358 16.6331 20.1358 14.8287V12.8715L19.8776 12.4546C19.6457 12.0801 19.6115 11.9372 19.5409 11.05C19.45 9.90944 19.3385 8.80875 19.258 8.2595C19.2188 7.9918 19.2389 7.80329 19.3246 7.63307C19.4578 7.36863 19.4344 7.1807 19.2681 7.1807C19.0803 7.1807 18.8879 6.88252 18.7617 6.39615C18.6937 6.13406 18.6378 5.85575 18.6376 5.77757C18.6372 5.69948 18.5905 5.54153 18.5335 5.42669C18.4766 5.31184 18.442 5.09201 18.4567 4.93824C18.4829 4.66453 18.4899 4.65977 18.7896 4.71539C18.9579 4.74655 19.4825 4.91802 19.9552 5.09627ZM11.9974 5.61136C11.9909 6.2651 11.8377 7.34499 11.7337 7.47069C11.5594 7.68159 11.5424 8.24296 11.7016 8.53003C11.7869 8.68372 11.8872 8.83197 11.9245 8.85954C11.9972 8.91308 12.0514 12.1647 11.9815 12.272C11.9586 12.3072 11.8181 12.3985 11.6694 12.475C11.3646 12.6317 11.3532 12.6839 11.5214 13.1527C11.5874 13.3364 11.643 13.6019 11.645 13.7426C11.6475 13.9175 11.7304 14.076 11.9074 14.2438L12.1661 14.4891L12.1107 15.3661C12.0802 15.8484 12.0435 16.337 12.0291 16.4519C12.0147 16.5667 11.9981 16.7077 11.9922 16.7651C11.9838 16.847 11.1477 16.8695 8.11889 16.8695H4.25639L4.20031 16.6133C4.16944 16.4724 4.17102 15.9274 4.20372 15.4022L4.26313 14.4473H5.29033C6.24297 14.4473 6.32418 14.4348 6.40939 14.2749C6.58479 13.946 6.4029 13.8768 5.38319 13.8843C4.5824 13.8901 4.44744 13.8718 4.42481 13.7542C4.41025 13.6789 4.43321 13.5549 4.47581 13.4784C4.54096 13.3616 4.68591 13.342 5.39126 13.3552C6.1388 13.3692 6.23848 13.3536 6.31395 13.212C6.37619 13.0954 6.36529 13.0054 6.27309 12.8733C6.10643 12.6345 5.94201 12.6461 5.7706 12.9086C5.65087 13.092 5.61908 13.1045 5.55651 12.9922C5.51607 12.9197 5.39875 12.8603 5.29574 12.8603C5.19281 12.8603 5.07299 12.8264 5.02948 12.7849C4.98604 12.7434 4.88752 12.6965 4.81056 12.6805C4.68342 12.6542 4.68799 12.6023 4.86115 12.1086C5.74781 9.58018 7.78789 7.15765 10.1094 5.8768C10.772 5.51121 11.9187 5.0018 11.968 5.05125C11.987 5.07037 12.0003 5.32245 11.9974 5.61136ZM6.8226 5.17737C6.71168 5.25054 6.71168 5.26874 6.8226 5.34191C6.97661 5.44339 7.07996 5.44565 7.22906 5.35085C7.32151 5.29213 7.31028 5.25931 7.17215 5.18505C6.96605 5.07438 6.97853 5.07463 6.8226 5.17737ZM27.7128 6.47684C28.6859 7.65729 29.5654 9.14678 30.115 10.5447C30.404 11.2801 30.4335 11.4827 30.2408 11.4084C30.1626 11.3783 30.0348 11.4413 29.9187 11.5671C29.6969 11.8073 29.6756 11.7922 29.3304 11.1481C28.2474 9.12807 28.2334 9.08656 28.5177 8.75346C28.6225 8.63051 28.6167 8.60312 28.4689 8.52377C28.3766 8.47416 28.2143 8.43306 28.1084 8.43239C27.7719 8.43047 27.5579 8.33935 27.5165 8.18065C27.4747 8.01995 27.6031 7.93242 27.8809 7.93242C27.9913 7.93242 28.0401 7.87453 28.0392 7.74449C28.0365 7.34223 27.7545 7.18763 27.1106 7.23524C26.6704 7.26781 26.6365 7.25729 26.6113 7.08013C26.5955 6.96871 26.5155 6.87734 26.418 6.85938C26.1898 6.8172 26.0434 6.68565 26.044 6.52319C26.0445 6.38897 26.8579 5.94813 27.1304 5.93435C27.2018 5.93076 27.4639 6.1749 27.7128 6.47684ZM5.90731 8.08577C5.90731 8.32189 5.30323 9.06634 5.13765 9.03418C4.94544 8.99693 4.95401 8.89938 5.17759 8.57639C5.63647 7.91329 5.90731 7.73121 5.90731 8.08577ZM12.6471 8.26919C12.6471 8.48292 12.3187 8.62792 12.1656 8.48184C11.9957 8.31972 12.1344 8.09947 12.4064 8.09947C12.5929 8.09947 12.6471 8.13772 12.6471 8.26919ZM4.61219 8.8491C4.7296 8.89395 4.82562 8.98908 4.82562 9.06058C4.82562 9.13208 4.88178 9.21218 4.95043 9.23857C5.12666 9.30647 5.10769 9.40512 4.84251 9.7996C4.71445 9.99004 4.58457 10.2115 4.55386 10.292C4.49628 10.4427 4.20431 10.4814 3.84793 10.3855C3.5889 10.3159 3.61378 10.2364 3.92406 10.1422C4.30316 10.0272 4.37779 9.86082 4.27537 9.35893C4.21687 9.07252 4.21671 8.91115 4.27462 8.85302C4.37754 8.7497 4.35242 8.74995 4.61219 8.8491ZM12.9254 9.99196C12.9554 10.6194 12.9799 11.3523 12.9799 11.6207V12.1086H12.6947C12.4119 12.1086 12.4091 12.1049 12.3637 11.6701C12.3386 11.429 12.3296 10.837 12.3437 10.3546C12.3917 8.72606 12.3675 8.85118 12.6342 8.85118H12.8709L12.9254 9.99196ZM18.7213 8.93471C18.7213 8.98065 18.6838 9.01823 18.6381 9.01823C18.5923 9.01823 18.5548 8.98065 18.5548 8.93471C18.5548 8.88877 18.5923 8.85118 18.6381 8.85118C18.6838 8.85118 18.7213 8.88877 18.7213 8.93471ZM19.1165 9.75583C19.1742 9.82783 19.2232 10.1289 19.2266 10.4332C19.2299 10.7346 19.2607 11.1786 19.295 11.4201C19.3456 11.7768 19.3315 11.8825 19.2199 11.9839C19.0469 12.1411 18.6887 12.1453 18.5617 11.9916C18.3791 11.7708 18.4537 9.88396 18.655 9.62871C18.7474 9.51161 18.9696 9.57283 19.1165 9.75583ZM21.485 11.7111C21.3777 11.8409 21.5753 12.1547 21.7112 12.0703C21.8343 11.994 21.8221 11.8135 21.6862 11.7002C21.6007 11.629 21.5507 11.6316 21.485 11.7111ZM25.6693 11.7025C25.6367 11.7876 25.449 11.813 24.9238 11.8031C24.5377 11.7958 24.1867 11.7681 24.144 11.7415C24.1011 11.715 23.9704 11.7689 23.8535 11.8611C23.668 12.0076 23.5527 12.0239 22.9493 11.9889L22.2576 11.9488L22.0696 12.2375L21.8816 12.5263H22.0802C22.1894 12.5263 22.3254 12.4699 22.3824 12.401C22.4663 12.2994 22.7324 12.2756 23.7863 12.2752C24.7746 12.2748 25.1435 12.2449 25.3239 12.1504C25.4566 12.081 25.6492 12.0483 25.7608 12.0765C25.9212 12.1169 25.9603 12.0942 25.9603 11.9609C25.9603 11.7422 25.7316 11.5392 25.6693 11.7025ZM26.3565 12.0842C26.3346 12.2125 26.2886 12.3832 26.2544 12.4636C26.2064 12.5761 26.2321 12.6098 26.3659 12.6098C26.5468 12.6098 26.667 12.3416 26.6126 12.0595C26.566 11.8184 26.3991 11.8344 26.3565 12.0842ZM28.5378 12.1527C28.4433 12.267 28.4445 12.3007 28.5451 12.3661C28.7417 12.4938 28.9974 12.4192 28.9974 12.2339C28.9974 12.0208 28.6915 11.9668 28.5378 12.1527ZM30.7031 12.3691C30.7031 12.415 30.6657 12.4294 30.6199 12.401C30.5742 12.3726 30.5367 12.3118 30.5367 12.2658C30.5367 12.2199 30.5742 12.2055 30.6199 12.2339C30.6657 12.2623 30.7031 12.3231 30.7031 12.3691ZM19.6097 12.7435C19.6378 12.817 19.6085 12.9105 19.5447 12.9511C19.3929 13.0474 18.9106 13.0486 18.8515 12.9526C18.7988 12.8671 18.9919 12.7768 19.2273 12.7768C19.3151 12.7768 19.3869 12.7392 19.3869 12.6933C19.3869 12.5595 19.5537 12.5971 19.6097 12.7435ZM6.74405 12.813C6.68872 12.8799 6.65568 13.0213 6.67058 13.1272C6.69645 13.3105 6.73515 13.3209 7.47444 13.3439C8.19635 13.3663 8.25418 13.356 8.29537 13.1977C8.35245 12.9788 8.48675 12.9765 8.48675 13.1944C8.48675 13.4298 8.60806 13.4019 8.72738 13.1392C8.81225 12.9521 8.80618 12.8958 8.68911 12.7842C8.58485 12.6847 8.54033 12.6777 8.51146 12.7559C8.46619 12.8784 8.15392 12.8984 8.15392 12.7789C8.15392 12.7285 8.06646 12.7327 7.9251 12.7897C7.6575 12.8975 7.07938 12.8868 6.94083 12.7714C6.87718 12.7183 6.8107 12.7323 6.74405 12.813ZM9.44363 12.7944C9.3521 12.8442 9.26682 12.893 9.25408 12.9029C9.24135 12.9126 9.26523 13.0111 9.30709 13.1216C9.37873 13.3108 9.42741 13.3239 10.1414 13.3467C10.765 13.3666 10.8998 13.349 10.8998 13.2477C10.8998 13.18 10.9225 13.0652 10.9503 12.9925C10.9935 12.8793 10.9122 12.8603 10.3845 12.8603C10.0455 12.8603 9.73253 12.8251 9.68909 12.782C9.63983 12.7332 9.54731 12.7379 9.44363 12.7944ZM23.8801 13.0417C23.8801 13.1873 23.8203 13.3729 23.7472 13.454C23.5753 13.6446 23.6387 13.7379 23.9566 13.7622C24.33 13.7907 24.7954 13.5736 24.7954 13.3707C24.7954 13.1484 24.6721 13.0834 24.5442 13.2381C24.4196 13.3888 24.2385 13.2727 24.1232 12.9682C24.0183 12.6915 23.8801 12.7333 23.8801 13.0417ZM13.1048 12.9439C13.0765 12.9898 13.0181 13.0274 12.975 13.0274C12.9319 13.0274 12.8967 12.9898 12.8967 12.9439C12.8967 12.8979 12.9552 12.8603 13.0265 12.8603C13.0978 12.8603 13.133 12.8979 13.1048 12.9439ZM22.1756 13.226C22.1521 13.3005 22.1152 13.4179 22.0937 13.4868C22.0386 13.6642 21.7428 13.6421 21.4592 13.4393C21.3078 13.3311 21.1555 13.2865 21.0512 13.3197C20.9556 13.3501 20.8847 13.3348 20.8847 13.2836C20.8847 13.2345 20.8285 13.1944 20.7598 13.1944C20.574 13.1944 20.6027 13.5888 20.796 13.6927C20.8845 13.7402 21.0781 13.7791 21.2263 13.7791C21.3744 13.7791 21.5675 13.8444 21.6553 13.9242C21.8069 14.0619 21.8203 14.0619 21.9207 13.9242C21.9941 13.8234 22.1414 13.7791 22.4034 13.7791C22.7416 13.7791 22.786 13.7564 22.8356 13.5582C22.902 13.2925 22.836 13.2145 22.4851 13.1441C22.2808 13.1031 22.2085 13.1222 22.1756 13.226ZM13.188 13.5205C13.6772 13.8083 13.4591 14.1132 12.7639 14.1132C12.4059 14.1132 12.333 13.9563 12.533 13.6164C12.7025 13.3284 12.8297 13.3098 13.188 13.5205ZM19.8704 13.6747C19.8453 13.9787 19.8342 13.9887 19.4909 14.0136C19.0657 14.0445 19.0471 13.9559 19.4077 13.6167C19.7777 13.2687 19.9026 13.2843 19.8704 13.6747ZM6.82592 13.9839C6.77076 14.0507 6.74996 14.1822 6.77974 14.2763C6.82434 14.4174 6.90372 14.4473 7.23406 14.4473C7.65134 14.4473 7.83257 14.3277 7.87908 14.0215C7.90055 13.8807 7.84788 13.8626 7.4147 13.8626C7.08911 13.8626 6.89274 13.9031 6.82592 13.9839ZM8.65316 13.9443C8.48741 13.9721 8.37092 14.0371 8.38274 14.095C8.39414 14.151 8.36609 14.1967 8.32033 14.1967C8.27457 14.1967 8.23712 14.254 8.23712 14.3239C8.23712 14.4339 8.43682 14.4481 9.71406 14.4284C11.2871 14.404 11.2095 14.4254 11.1598 14.0307C11.1429 13.8966 10.0634 13.9436 10.011 14.0806C9.94987 14.2408 9.68094 14.2267 9.6172 14.0601C9.56994 13.9363 9.54881 13.9381 9.39396 14.0788C9.22688 14.2306 9.21964 14.2302 9.08359 14.0648C8.97393 13.9313 8.88256 13.9057 8.65316 13.9443ZM22.7984 14.6226C22.7984 14.7036 22.6861 14.8503 22.5488 14.9485C22.4115 15.0466 22.2992 15.1973 22.2992 15.2833C22.2992 15.3693 22.2617 15.463 22.216 15.4914C22.1702 15.5198 22.1328 15.5783 22.1328 15.6216C22.1328 15.7713 22.3757 15.6993 22.5873 15.4869C22.7042 15.3696 22.8327 15.294 22.8729 15.3189C23.0246 15.413 23.1471 15.1225 23.0925 14.7982C23.0376 14.4717 22.7984 14.3289 22.7984 14.6226ZM25.0137 14.5976C24.9798 14.6528 24.8625 14.6979 24.7531 14.6979C24.6436 14.6979 24.5159 14.7636 24.4692 14.8441C24.3935 14.9746 24.3842 14.9701 24.3819 14.8023C24.3784 14.539 24.2409 14.5683 24.0881 14.8649C24.0172 15.0027 23.9109 15.1155 23.852 15.1155C23.7932 15.1155 23.6635 15.2263 23.5637 15.3617C23.3193 15.6934 23.4881 15.7883 23.7961 15.4922C23.9868 15.3087 24.079 15.2765 24.2831 15.3215C24.5382 15.3777 24.7995 15.2151 24.8991 14.938C24.9652 14.7541 25.2528 14.9729 25.2546 15.2086C25.2557 15.351 25.3032 15.4078 25.421 15.4078C25.5612 15.4078 25.5896 15.3423 25.611 14.9693C25.6263 14.7021 25.6019 14.5308 25.5486 14.5308C25.5005 14.5308 25.4611 14.5684 25.4611 14.6144C25.4611 14.7331 25.1489 14.7183 25.1088 14.5976C25.0829 14.5196 25.0618 14.5196 25.0137 14.5976ZM19.5976 14.9749C19.6663 15.3424 19.616 15.83 19.5117 15.8078C19.4115 15.7865 19.2905 15.0499 19.3535 14.8441C19.4246 14.6114 19.5414 14.674 19.5976 14.9749ZM21.7167 14.7676C21.7167 14.9226 21.8172 15.1155 21.8979 15.1155C22.0135 15.1155 21.9444 14.7592 21.8207 14.7183C21.7636 14.6995 21.7167 14.7216 21.7167 14.7676ZM5.90731 14.9423C5.7929 14.9769 5.51699 14.9942 5.29416 14.9808C4.85599 14.9543 4.6592 15.0691 4.6592 15.351C4.6592 15.4539 4.72901 15.5295 4.84642 15.5539C5.1156 15.6098 6.16509 15.5733 6.38576 15.5003C6.62606 15.4208 6.62722 15.1631 6.388 14.995C6.18431 14.8517 6.20054 14.8535 5.90731 14.9423ZM7.25944 14.9265L6.8226 14.9572V15.249V15.5407L7.37859 15.5161C7.90687 15.4926 7.93758 15.4799 7.99566 15.2608C8.04317 15.0817 8.02245 15.0119 7.9028 14.9476C7.81809 14.9022 7.73696 14.8719 7.72257 14.8804C7.70809 14.8889 7.49966 14.9096 7.25944 14.9265ZM8.44015 15.057C8.29986 15.1352 8.28056 15.415 8.40994 15.4953C8.4592 15.5259 8.73063 15.5425 9.0132 15.5322C9.29569 15.5219 9.63126 15.5165 9.7589 15.5202C9.93422 15.5253 10.0106 15.4749 10.0715 15.3142C10.1159 15.1972 10.1299 15.0656 10.1029 15.0215C10.0453 14.9281 8.6168 14.9585 8.44015 15.057ZM26.1449 15.1457C26.1697 15.2763 26.1308 15.3755 26.0298 15.4388C25.8347 15.5611 25.8332 15.7002 26.0269 15.7002C26.2523 15.7002 26.3763 15.5312 26.3763 15.2241C26.3763 15.026 26.3386 14.9485 26.2418 14.9485C26.1453 14.9485 26.1179 15.0042 26.1449 15.1457ZM17.2943 15.9132C17.3875 15.9979 17.1724 16.1178 16.9274 16.1178C16.6558 16.1178 16.5497 15.9867 16.6995 15.8365C16.7512 15.7845 17.219 15.8448 17.2943 15.9132ZM13.9089 16.1018C13.685 16.1358 13.6052 16.084 13.684 15.9561C13.7222 15.8939 13.7941 15.898 13.9211 15.9695L14.1032 16.0724L13.9089 16.1018ZM14.6789 15.9179C14.9094 16.0067 14.8207 16.1178 14.5193 16.1178C14.244 16.1178 14.1592 16.0477 14.2836 15.9229C14.3526 15.8536 14.5068 15.8516 14.6789 15.9179ZM5.00776 16.3462L5.03364 16.6607L6.44816 16.6635C7.22615 16.665 7.9033 16.6374 7.95297 16.6021C8.00265 16.5667 8.20858 16.5592 8.41061 16.5854C9.3858 16.7117 9.72828 16.7042 9.80059 16.555C9.8392 16.4753 9.86832 16.335 9.86524 16.2431C9.85984 16.0805 9.79468 16.0754 7.42077 16.0539L4.9818 16.0318L5.00776 16.3462ZM19.5949 16.2848C19.6232 16.3308 19.588 16.3684 19.5166 16.3684C19.4453 16.3684 19.3869 16.3308 19.3869 16.2848C19.3869 16.2389 19.4221 16.2013 19.4652 16.2013C19.5083 16.2013 19.5667 16.2389 19.5949 16.2848ZM17.7215 16.5563C17.7208 16.6138 17.686 16.7149 17.6442 16.7812C17.5376 16.9504 17.1217 16.7649 17.1925 16.5797C17.2516 16.4251 17.7234 16.4042 17.7215 16.5563ZM18.4567 16.639C18.4228 16.8772 18.1615 16.9309 18.0103 16.7307C17.8342 16.4973 17.8628 16.4519 18.1862 16.4519C18.4463 16.4519 18.4799 16.4752 18.4567 16.639ZM19.0432 16.6475C19.1531 16.7805 19.0852 16.8695 18.8738 16.8695C18.7248 16.8695 18.6663 16.702 18.7768 16.5911C18.8608 16.5068 18.9408 16.5236 19.0432 16.6475ZM1.41411 17.5795C1.41411 17.6484 1.485 17.7048 1.57162 17.7048C1.65824 17.7048 1.75185 17.7642 1.77964 17.8369C1.87283 18.0807 1.83198 18.4379 1.70534 18.4867C1.57062 18.5386 1.53085 18.7906 1.65733 18.7906C1.6996 18.7906 2.01786 18.637 2.36459 18.4492C3.05463 18.0756 3.19026 17.8359 2.76623 17.7394C2.64034 17.7108 2.32607 17.6348 2.06779 17.5708C1.47743 17.4242 1.41411 17.4251 1.41411 17.5795ZM4.47981 17.8179C4.33694 18.0939 4.32637 18.0892 4.32637 17.7502C4.32637 17.4803 4.34451 17.4488 4.44944 17.5363C4.54596 17.6167 4.55253 17.6774 4.47981 17.8179ZM6.95049 17.6263C7.0079 17.7195 6.84972 18.7462 6.74621 18.9526C6.71301 19.0188 6.64179 19.0878 6.58787 19.1058C6.5198 19.1285 6.48977 18.9846 6.48977 18.6354C6.48977 18.3587 6.45232 18.109 6.40656 18.0806C6.2592 17.9892 6.31744 17.8306 6.55217 17.6845C6.82243 17.5163 6.87785 17.5082 6.95049 17.6263ZM10.8362 17.8323C10.7195 19.1527 10.7265 19.1247 10.5083 19.1247C10.3087 19.1247 10.3037 19.1101 10.3414 18.6444C10.3919 18.0192 10.57 17.5259 10.7333 17.5588C10.8171 17.5758 10.8509 17.6658 10.8362 17.8323ZM5.6993 18.4147C5.6993 19.1106 5.68698 19.1664 5.53296 19.1664C5.44152 19.1664 5.36489 19.1101 5.36264 19.0411C5.35207 18.7131 5.21478 18.1224 5.14896 18.1224C5.03896 18.1224 5.05993 17.8371 5.17867 17.7179C5.23558 17.6607 5.37595 17.6251 5.49069 17.6385C5.69613 17.6627 5.6993 17.6745 5.6993 18.4147ZM9.68643 17.6719C9.84527 17.7331 9.86832 18.2891 9.7183 18.4397C9.66338 18.4948 9.57918 18.662 9.53108 18.8114C9.48299 18.9607 9.40619 19.074 9.36042 19.063C9.21623 19.0285 9.21481 18.1544 9.35851 17.8755C9.50221 17.5967 9.49788 17.5993 9.68643 17.6719ZM13.4792 17.7716C13.4792 17.8543 13.4438 17.9577 13.4006 18.0013C13.3573 18.0449 13.3105 18.3061 13.2966 18.5818C13.2743 19.0202 13.249 19.0861 13.0936 19.1083C12.9482 19.1292 12.9067 19.08 12.8648 18.8368C12.8366 18.6736 12.7912 18.4127 12.7639 18.2572C12.6913 17.8428 12.8401 17.6212 13.1909 17.6212C13.413 17.6212 13.4792 17.6557 13.4792 17.7716ZM8.31234 17.8927C8.35861 18.0171 8.34421 18.1355 8.26966 18.2431C8.1951 18.3507 8.17488 18.5169 8.20975 18.736C8.25194 19.0006 8.2318 19.0891 8.10907 19.1791C7.85895 19.3627 7.82458 19.3161 7.83174 18.8035C7.83556 18.535 7.79013 18.2374 7.73081 18.1421C7.64244 18.0001 7.64277 17.9451 7.7323 17.8368C7.89705 17.6374 8.22939 17.6695 8.31234 17.8927ZM19.5533 17.9386C19.5533 18.2072 19.42 18.373 19.2039 18.373C19.0896 18.373 19.0541 18.307 19.0541 18.0946C19.0541 17.7645 19.1009 17.7048 19.3592 17.7048C19.5164 17.7048 19.5533 17.7493 19.5533 17.9386ZM2.47501 17.9195C2.61022 17.9639 2.60905 17.9758 2.45911 18.0865C2.21906 18.2639 2.07977 18.232 2.07977 17.9997C2.07977 17.8547 2.1168 17.8052 2.20458 17.8326C2.27323 17.8542 2.39488 17.8933 2.47501 17.9195ZM12.1157 18.0542C12.0866 18.2006 12.007 18.3821 11.9389 18.4576C11.8708 18.5332 11.815 18.7141 11.815 18.8598C11.815 19.0663 11.7794 19.1247 11.6535 19.1247C11.4066 19.1247 11.3569 19.0069 11.2838 18.2477C11.266 18.0639 11.2683 17.8853 11.2886 17.8509C11.309 17.8165 11.5153 17.7883 11.7471 17.7883H12.1687L12.1157 18.0542ZM17.0774 18.0389C17.0657 18.1537 17.0563 18.3943 17.0565 18.5733C17.0572 19.1617 16.6457 19.3528 16.4779 18.8421C16.4267 18.6867 16.393 18.527 16.4028 18.4871C16.4125 18.4473 16.3693 18.3086 16.3067 18.179C16.167 17.8896 16.2404 17.83 16.7375 17.83C17.073 17.83 17.0972 17.8449 17.0774 18.0389ZM20.931 17.9067C21.0198 17.9719 21.0738 18.0377 21.0509 18.0529C21.0281 18.0682 20.8971 18.1438 20.7598 18.2209C20.5475 18.3404 20.5064 18.4183 20.4848 18.743C20.4641 19.0557 20.4304 19.1247 20.2988 19.1247C20.1559 19.1247 20.1393 19.0667 20.1492 18.6026C20.1553 18.3156 20.1936 18.0149 20.2342 17.9345C20.3242 17.7565 20.7056 17.7413 20.931 17.9067ZM25.8771 17.8334C25.8771 17.8582 25.8015 18.0273 25.709 18.2092C25.4761 18.6675 25.2947 18.6477 25.2947 18.1641C25.2947 17.7903 25.2962 17.7883 25.5859 17.7883C25.7461 17.7883 25.8771 17.8086 25.8771 17.8334ZM23.2136 17.996C23.3698 18.185 23.2519 18.373 22.9769 18.373C22.7832 18.373 22.7074 18.4297 22.6014 18.6538C22.4535 18.9666 22.2524 19.1681 22.1898 19.0661C22.1674 19.0294 22.1236 18.8294 22.0927 18.6216C22.045 18.302 22.063 18.2196 22.2093 18.0866C22.3045 18.0002 22.3824 17.9559 22.3824 17.9883C22.3824 18.0206 22.448 18.0089 22.528 17.962C22.7428 17.8365 23.0961 17.854 23.2136 17.996ZM29.8295 17.9547C29.6922 17.992 29.4399 18.0465 29.2688 18.076C29.0875 18.1073 28.9222 18.1963 28.8725 18.2895C28.7972 18.4308 28.8628 18.4937 29.4331 18.8273C29.7884 19.0351 30.1259 19.2059 30.1831 19.2067C30.3443 19.209 30.3058 19.0095 30.123 18.895C30.0327 18.8384 29.9735 18.7447 29.9912 18.6869C30.009 18.6291 30.0461 18.4784 30.0738 18.3521C30.1079 18.1957 30.1765 18.1224 30.2887 18.1224C30.3797 18.1224 30.4535 18.0663 30.4535 17.9971C30.4535 17.8596 30.2343 17.8447 29.8295 17.9547ZM14.6739 18.0293C14.7132 18.0346 14.7187 18.1423 14.686 18.2685C14.6534 18.3948 14.6088 18.611 14.5869 18.7488C14.5421 19.0312 14.3945 19.2396 14.3945 19.0205C14.3945 18.9448 14.3002 18.705 14.185 18.4875C13.9194 17.9861 13.973 17.9359 14.6739 18.0293ZM18.1842 18.1604C18.4193 18.3963 18.4399 18.5023 18.2636 18.5702C18.195 18.5966 18.1388 18.7134 18.1388 18.8297C18.1388 18.962 18.092 19.0411 18.014 19.0411C17.9199 19.0411 17.8892 18.9396 17.8892 18.6285C17.8892 18.4014 17.8512 18.1921 17.8046 18.1633C17.708 18.1034 17.7744 17.9553 17.8978 17.9553C17.943 17.9553 18.0718 18.0476 18.1842 18.1604ZM15.6836 18.3938C15.6812 18.5891 15.7146 18.7977 15.7578 18.8574C15.8107 18.9306 15.7919 19.0106 15.6998 19.103C15.5167 19.2868 15.4925 19.2439 15.4761 18.7071C15.4566 18.0728 15.462 18.0389 15.5821 18.0389C15.6519 18.0389 15.6865 18.1598 15.6836 18.3938ZM24.6261 18.2004C24.7391 18.4125 24.7365 18.8492 24.6218 18.9204C24.4811 19.0076 24.3982 18.8672 24.3352 18.4356C24.2869 18.1053 24.2992 18.0389 24.4086 18.0389C24.4808 18.0389 24.5786 18.1115 24.6261 18.2004ZM29.7879 18.4515C29.7879 18.6797 29.6784 18.7211 29.4672 18.5726C29.2502 18.42 29.3043 18.2894 29.5847 18.2894C29.7304 18.2894 29.7879 18.3354 29.7879 18.4515ZM2.57902 18.8821C1.78056 19.0918 1.66373 19.1392 1.66373 19.2533C1.66373 19.3958 1.6748 19.398 1.92875 19.3039C2.29361 19.1689 2.57902 19.1217 2.57902 19.1963C2.57902 19.2374 2.42924 19.4307 2.24619 19.6258C1.93541 19.9571 1.85453 20.1235 1.95521 20.2247C1.97826 20.2477 2.30585 20.1847 2.68327 20.0844C3.141 19.9629 3.37806 19.8585 3.39511 19.7707C3.41825 19.6518 3.37548 19.651 2.94937 19.7627C2.6901 19.8307 2.46311 19.8715 2.44505 19.8533C2.427 19.8351 2.58051 19.6544 2.7862 19.4516C3.35609 18.8898 3.2857 18.6965 2.57902 18.8821ZM28.6229 19.2386C28.6229 19.3159 28.7193 19.394 28.8518 19.4241C28.9776 19.4528 29.2919 19.5287 29.5502 19.5927C30.1369 19.7384 30.1207 19.7393 30.1207 19.5593C30.1207 19.4396 30.0071 19.3891 29.559 19.3095C29.2502 19.2546 28.9132 19.1862 28.8102 19.1575C28.6724 19.119 28.6229 19.1405 28.6229 19.2386ZM26.7924 19.3812C26.7924 19.5643 25.899 19.6171 22.3824 19.6414C20.3001 19.6558 18.5465 19.6999 18.4855 19.7395C18.4244 19.7791 18.1341 19.8093 17.8406 19.8068C17.547 19.8042 17.0416 19.8 16.7174 19.7975C16.2915 19.7941 16.1373 19.7646 16.1619 19.6908C16.2105 19.5443 16.5433 19.4837 16.9561 19.5462C17.1522 19.576 17.3323 19.5684 17.3562 19.5295C17.3802 19.4906 19.0544 19.456 21.0768 19.4526C23.0991 19.4492 24.9223 19.421 25.1282 19.3899C25.6878 19.3056 26.7924 19.2997 26.7924 19.3812ZM7.55524 19.5817C7.65309 19.6799 7.47311 19.7093 6.48394 19.756C5.91514 19.7829 5.37479 19.8164 5.28326 19.8304C5.04137 19.8674 4.74241 19.7345 4.74241 19.59C4.74241 19.4828 4.93811 19.4703 6.12682 19.5014C6.88833 19.5213 7.53111 19.5574 7.55524 19.5817ZM12.4699 19.5709C12.5507 19.6687 12.5502 19.708 12.4671 19.7595C12.3044 19.8605 7.95347 19.8288 7.76966 19.7253C7.4588 19.5501 7.49816 19.5471 11.0722 19.474C12.1371 19.4522 12.386 19.4695 12.4699 19.5709ZM13.4792 19.5423C13.4792 19.5882 13.4417 19.6258 13.396 19.6258C13.3502 19.6258 13.3128 19.5882 13.3128 19.5423C13.3128 19.4964 13.3502 19.4588 13.396 19.4588C13.4417 19.4588 13.4792 19.4964 13.4792 19.5423ZM14.6285 19.6476C14.647 19.7446 14.6036 19.7929 14.4977 19.7929C14.294 19.7929 14.2277 19.7238 14.2859 19.5718C14.3476 19.4102 14.5933 19.4646 14.6285 19.6476ZM28.4614 19.9721C28.3034 20.2329 28.1588 20.6967 28.2198 20.7475C28.3196 20.8307 29.5738 21.2005 29.6326 21.1641C29.7765 21.0748 29.6985 20.9731 29.4134 20.8787C28.9728 20.7327 29.0453 20.5529 29.6214 20.3622C29.8337 20.292 30.0074 20.1791 30.0223 20.1014C30.0463 19.9773 30.0133 19.9752 29.6693 20.0791C29.2932 20.1928 29.2888 20.1918 29.1845 19.9724C29.0207 19.6277 28.6701 19.6275 28.4614 19.9721ZM23.999 20.0911C24.0709 20.1634 24.1297 20.2949 24.1297 20.3835C24.1297 20.529 24.0661 20.5446 23.469 20.5446C23.0907 20.5446 22.7848 20.5065 22.7534 20.4555C22.6769 20.3313 22.7235 20.3026 23.0759 20.2573C23.2454 20.2355 23.4666 20.1597 23.5674 20.0888C23.796 19.9281 23.8367 19.9283 23.999 20.0911ZM25.2114 20.0685C25.2114 20.2345 25.0327 20.3775 24.8253 20.3775C24.5905 20.3775 24.5009 20.2401 24.632 20.0815C24.758 19.9293 25.2114 19.919 25.2114 20.0685ZM26.1891 20.0643C26.1484 20.1874 25.9195 20.2446 25.7421 20.1764C25.5451 20.1005 25.6945 19.9599 25.9721 19.9599C26.1365 19.9599 26.2118 19.9962 26.1891 20.0643ZM28.9534 20.0824C29.0231 20.1666 29.0312 20.2759 28.9792 20.4322C28.8891 20.7035 28.7889 20.7506 28.6034 20.6083C28.4812 20.5147 28.4788 20.4724 28.5819 20.2314C28.7097 19.933 28.8 19.8968 28.9534 20.0824ZM6.5352 20.2994C7.17382 20.3068 8.75093 20.33 10.04 20.351C11.3879 20.3729 12.5048 20.3557 12.6688 20.3102C13.0047 20.2171 13.4792 20.3764 13.4792 20.5823C13.4792 20.6762 13.3932 20.7116 13.1649 20.7116C12.992 20.7116 12.7767 20.7634 12.6865 20.8266C12.4834 20.9691 10.3408 21.0022 10.1768 20.8656C10.1134 20.8128 9.10439 20.7499 7.63587 20.7071C6.29614 20.668 5.19198 20.6344 5.18216 20.6321C5.17234 20.6299 5.12167 20.5482 5.06958 20.4505C4.99611 20.3126 4.99944 20.2575 5.08464 20.2046C5.14505 20.1671 5.23491 20.1701 5.28426 20.2113C5.33368 20.2525 5.89658 20.2921 6.5352 20.2994ZM2.9537 20.3475C2.85693 20.4445 2.82498 20.5965 2.8437 20.8695C2.86725 21.2105 2.84969 21.2575 2.69018 21.2803C2.47276 21.3113 2.37491 21.0742 2.45462 20.7098C2.51137 20.4504 2.4334 20.3901 2.26283 20.5613C2.07694 20.7479 2.18877 21.3106 2.44588 21.483C2.58883 21.5788 2.95129 21.5574 3.06162 21.4466C3.11654 21.3915 3.16147 21.1445 3.16147 20.8976C3.16147 20.5148 3.18285 20.453 3.30708 20.4778C3.40976 20.4981 3.45569 20.5924 3.46285 20.7971C3.48132 21.3273 3.4814 21.3275 3.61911 21.2128C3.80025 21.0618 3.77612 20.5769 3.57751 20.3775C3.37556 20.1748 3.13709 20.1633 2.9537 20.3475ZM27.8303 21.4345C27.7159 21.6941 27.633 21.9174 27.6461 21.9305C27.6949 21.9795 28.9451 22.4656 29.0223 22.4656C29.1292 22.4656 29.4936 21.5577 29.4175 21.4814C29.3444 21.408 29.1315 21.6894 29.0679 21.9436C29.0194 22.1377 28.8351 22.1845 28.6306 22.0545C28.5313 21.9914 28.5357 21.9329 28.6594 21.6712C28.7647 21.4487 28.78 21.3371 28.7148 21.2716C28.6496 21.2061 28.5834 21.2782 28.478 21.53C28.3305 21.8823 28.253 21.9343 28.0594 21.811C27.9748 21.757 27.9789 21.6824 28.0802 21.439C28.2283 21.0832 28.2391 20.9622 28.1226 20.9622C28.0763 20.9622 27.9448 21.1747 27.8303 21.4345ZM6.32335 21.7622L6.36496 22.1733H6.69779H7.03061L7.05599 21.7766C7.06989 21.5583 7.1095 21.3798 7.14386 21.3798C7.17822 21.3798 7.33316 21.4738 7.48826 21.5886C7.64335 21.7035 7.83032 21.7974 7.90379 21.7974C8.07287 21.7974 8.23671 21.959 8.23837 22.1274C8.24153 22.4502 8.36451 22.4965 8.80069 22.3391C9.02876 22.2567 9.27231 22.2113 9.34204 22.2382C9.41285 22.2655 9.49497 22.4458 9.52842 22.6477C9.5612 22.8462 9.64216 23.1145 9.70815 23.2439C9.77413 23.3733 9.81657 23.5612 9.80234 23.6615C9.7743 23.8592 9.47642 23.9312 8.3066 24.0225C7.60333 24.0773 7.37193 23.9458 7.21958 23.404C7.0976 22.9706 6.93884 22.8626 6.83566 23.1426C6.77126 23.3173 6.73173 23.2838 6.3365 22.7188C5.89259 22.0843 5.77884 21.6257 6.00824 21.3955C6.18165 21.2214 6.28025 21.3361 6.32335 21.7622ZM3.27213 21.7901C2.94405 21.8171 2.65008 21.8649 2.61896 21.8963C2.51778 21.9983 2.67229 22.1402 2.85685 22.1147C2.99081 22.0961 3.07319 22.1634 3.18002 22.378C3.31324 22.6461 3.31365 22.677 3.1861 22.8185C3.09149 22.9235 3.07568 22.9976 3.13509 23.0572C3.19458 23.117 3.38621 22.9714 3.75307 22.5879C4.04546 22.2822 4.28102 21.9981 4.27645 21.9566C4.27187 21.915 4.26255 21.8434 4.25565 21.7974C4.24874 21.7515 4.15888 21.72 4.05595 21.7275C3.95302 21.7349 3.6003 21.763 3.27213 21.7901ZM3.73152 22.2701C3.55288 22.461 3.53307 22.4649 3.43406 22.3288C3.27921 22.1163 3.30126 22.0626 3.5567 22.0297C3.90035 21.9855 3.94295 22.0442 3.73152 22.2701ZM27.4597 22.4058C27.0065 22.636 26.9221 23.1933 27.2852 23.5579C27.4818 23.7552 27.6001 23.802 27.9019 23.802C28.2167 23.802 28.3091 23.7617 28.4907 23.545C28.7607 23.223 28.7736 22.8566 28.5212 22.6792C28.2565 22.493 28.1447 22.5168 28.0044 22.7891C27.8553 23.0785 27.927 23.1872 28.1397 22.994C28.2498 22.894 28.3197 22.8795 28.3836 22.9437C28.5095 23.0701 28.3969 23.3651 28.164 23.5182C27.9855 23.6357 27.9402 23.6347 27.6741 23.5079C27.2186 23.2909 27.1657 22.7721 27.5884 22.6656C27.7137 22.634 27.7909 22.5543 27.7909 22.4566C27.7909 22.2718 27.7393 22.2638 27.4597 22.4058ZM3.97008 23.0217C3.46185 23.3206 3.34211 23.4263 3.41367 23.5128C3.48814 23.6029 3.5572 23.5921 3.79035 23.454C4.05262 23.2987 4.08025 23.2964 4.12975 23.4258C4.15938 23.5033 4.1221 23.696 4.04696 23.8542C3.8907 24.1832 3.87447 24.3546 3.99279 24.428C4.03814 24.4561 4.13999 24.3362 4.21912 24.1614C4.29825 23.9867 4.37031 23.8314 4.37921 23.8161C4.38803 23.8009 4.4759 23.8318 4.57441 23.8847C4.71695 23.9613 4.79491 23.9538 4.956 23.8478C5.06734 23.7746 5.15845 23.6553 5.15845 23.5827C5.15845 23.4426 4.7296 22.6301 4.6592 22.6368C4.63632 22.639 4.32621 22.8122 3.97008 23.0217ZM4.78934 23.2277C4.90932 23.4606 4.91024 23.5023 4.79799 23.6149C4.68575 23.7276 4.64905 23.7161 4.45676 23.5079C4.25415 23.2884 4.24957 23.2652 4.37987 23.1206C4.5705 22.9092 4.63382 22.9258 4.78934 23.2277ZM15.1127 23.5583C15.2668 23.6539 15.3935 23.7009 15.3942 23.6627C15.395 23.6245 15.4287 23.6458 15.4693 23.7102C15.5872 23.8971 17.0625 23.9226 17.3742 23.7431C17.6006 23.6126 17.6346 23.6135 17.9394 23.7588C18.1177 23.8437 18.269 23.8976 18.2757 23.8785C18.3061 23.7913 18.6381 24.1776 18.6381 24.3002C18.6381 24.5842 18.4424 24.7103 17.9724 24.7292C17.7207 24.7393 17.4622 24.7885 17.3979 24.8386C17.2086 24.9862 16.2282 24.9461 15.809 24.7738C15.5521 24.6681 15.2192 24.619 14.7481 24.6172C13.9595 24.6143 13.925 24.5688 14.2381 23.9449C14.5577 23.3081 14.6463 23.2689 15.1127 23.5583ZM26.581 23.5571C26.5508 23.606 26.5392 23.6568 26.5552 23.6697C26.5712 23.6828 26.8595 23.8719 27.1959 24.0902C27.635 24.375 27.833 24.4614 27.8976 24.3965C28.007 24.2867 28.0462 24.3236 27.3187 23.8536C26.6633 23.4303 26.6598 23.4288 26.581 23.5571ZM20.5726 23.8856C20.8395 23.8856 20.9679 24.036 20.9679 24.3487C20.9679 24.7353 20.7669 24.8585 20.0318 24.9223L19.3869 24.9783V24.5215C19.3869 24.1071 19.4116 24.0453 19.6526 23.856C19.8981 23.6631 19.9356 23.6564 20.1477 23.7665C20.2739 23.8319 20.4651 23.8856 20.5726 23.8856ZM26.3391 23.9621C26.3132 24.0042 26.4485 24.173 26.6398 24.3374C26.8311 24.5018 26.9695 24.6543 26.9475 24.6764C26.9254 24.6986 26.6694 24.6782 26.3785 24.6312C25.9625 24.5639 25.8262 24.5691 25.7401 24.6555C25.6496 24.7463 25.735 24.8478 26.2316 25.2407C26.6262 25.5527 26.8609 25.6878 26.9146 25.6338C26.9685 25.5798 26.8686 25.438 26.6241 25.2213L26.2515 24.891L26.7508 24.9381C27.0254 24.9641 27.2941 24.9988 27.348 25.0151C27.4018 25.0315 27.4867 24.9956 27.5366 24.9352C27.6069 24.8503 27.4967 24.7195 27.0479 24.3555C26.4302 23.8546 26.4116 23.8442 26.3391 23.9621ZM4.57599 24.4155C4.57599 24.4773 4.64714 24.5925 4.73417 24.6715C4.9268 24.8465 5.04054 24.7172 4.90974 24.472C4.80864 24.2823 4.57599 24.243 4.57599 24.4155ZM5.36647 24.7303C4.82079 25.1732 4.74998 25.3306 4.96524 25.6217C5.05743 25.7464 5.22052 25.8929 5.32761 25.9474C5.54985 26.0604 5.63431 26.0267 6.2577 25.5772C6.57946 25.3451 6.64162 25.2632 6.56565 25.1713C6.48719 25.0764 6.39699 25.1149 6.05318 25.3896C5.61925 25.7365 5.42746 25.7927 5.2583 25.6229C5.06783 25.4317 5.16053 25.2236 5.57448 24.9134C5.97138 24.616 6.11001 24.3833 5.88651 24.3897C5.82935 24.3913 5.59529 24.5446 5.36647 24.7303ZM10.6076 25.1692C10.7584 25.2798 10.7578 25.2865 10.5874 25.378C10.4906 25.43 10.3305 25.4725 10.2316 25.4725C10.1327 25.4725 9.9472 25.5345 9.8194 25.6103C9.56487 25.7613 9.34428 25.7198 9.26249 25.5058C9.19176 25.3208 9.42549 25.1921 9.94288 25.1312C10.1717 25.1042 10.3798 25.076 10.4054 25.0685C10.431 25.061 10.522 25.1063 10.6076 25.1692ZM6.25021 25.8658L5.73757 26.433L6.04436 26.7045C6.48111 27.0911 6.8781 27.083 7.22998 26.6807C7.62497 26.2292 7.5782 26.0058 6.97994 25.4868L6.76285 25.2985L6.25021 25.8658ZM24.6926 25.7147L24.3378 26.0486L24.8735 26.593C25.2938 27.0202 25.4334 27.1173 25.5216 27.0438C25.6134 26.9672 25.5925 26.9067 25.4071 26.7124L25.1803 26.4748L25.4107 26.2334C25.7114 25.9184 25.5552 25.8215 25.2129 26.1106C24.9699 26.3158 24.9404 26.322 24.8143 26.1954C24.6882 26.0688 24.6983 26.0377 24.952 25.775C25.3506 25.3623 25.1232 25.3094 24.6926 25.7147ZM7.11474 25.9216C7.2804 26.1754 7.16266 26.4687 6.81161 26.6769C6.58387 26.8119 6.54968 26.8127 6.36104 26.6887C6.08713 26.5086 6.10252 26.4125 6.46505 26.0398C6.82401 25.6708 6.93759 25.6502 7.11474 25.9216ZM11.4718 26.0259C11.6148 26.0546 11.7318 26.113 11.7318 26.1557C11.7318 26.2728 10.9598 26.1989 10.9201 26.0781C10.8823 25.9627 11.0692 25.945 11.4718 26.0259ZM12.8447 26.315C13.3533 26.4568 13.4985 26.4874 13.8536 26.5278C14.0367 26.5486 14.5047 26.6069 14.8937 26.6574C16.372 26.8493 19.5479 26.7744 20.6766 26.5212L20.9263 26.4653L20.7182 26.5931C20.0745 26.9887 19.1894 27.2011 17.8476 27.2817C17.4357 27.3065 17.053 27.3643 16.997 27.4102C16.8594 27.5231 15.2302 27.5142 15.1163 27.3998C15.0671 27.3505 14.9782 27.3101 14.9187 27.3101C14.8592 27.3101 14.7356 27.2349 14.6441 27.143C14.5048 27.0032 14.3668 26.976 13.7962 26.976C12.9616 26.976 12.1479 26.8207 12.1479 26.6614C12.1479 26.4827 12.3097 26.2242 12.4212 26.2247C12.4768 26.225 12.6674 26.2656 12.8447 26.315ZM23.5769 26.5892C22.8552 27.2124 23.9086 28.3144 24.6594 27.7216C24.831 27.5861 24.8786 27.4758 24.8786 27.214C24.8786 26.5138 24.0981 26.1392 23.5769 26.5892ZM24.4364 26.8234C24.6441 27.0194 24.6907 27.3817 24.5291 27.5439C24.2551 27.819 23.6305 27.4837 23.6305 27.0617C23.6305 26.6263 24.0849 26.492 24.4364 26.8234ZM7.95946 27.2903C7.74603 27.601 7.57146 27.8813 7.57146 27.9132C7.57146 27.9451 7.73921 28.0699 7.94432 28.1906C8.22498 28.3556 8.37899 28.3962 8.56729 28.3547C8.97592 28.2646 9.31899 27.7055 9.19883 27.3254C9.14983 27.1702 8.57153 26.7254 8.41893 26.7254C8.37966 26.7254 8.17289 26.9795 7.95946 27.2903ZM4.86722 27.6163C7.72673 29.7663 10.4191 31.0873 13.1969 31.7035C13.9794 31.8771 14.4926 31.932 15.6497 31.9661C17.769 32.0285 19.3088 31.8017 21.178 31.1516C22.8053 30.5857 25.4406 29.1274 27.0398 27.9079C27.2902 27.7169 27.5378 27.5606 27.5898 27.5606C27.6986 27.5606 29.3174 29.36 29.3554 29.5233C29.3835 29.6436 28.5665 30.3429 27.5228 31.0918C24.2502 33.44 20.9555 34.6848 17.1773 35.0007C14.9045 35.1907 12.0365 34.7625 9.60547 33.8703C8.31692 33.3973 6.21177 32.3163 4.98496 31.4976C3.88612 30.7643 2.07594 29.3526 2.0251 29.1894C1.96936 29.0104 3.97715 26.9446 4.10904 27.0452C4.15987 27.084 4.50111 27.341 4.86722 27.6163ZM7.27708 27.0647C7.21101 27.172 7.46904 27.4771 7.62596 27.4771C7.80303 27.4771 7.75152 27.2821 7.53227 27.122C7.39997 27.0255 7.31319 27.0059 7.27708 27.0647ZM8.80385 27.2298C9.03034 27.4415 9.02992 27.4703 8.79595 27.8197C8.57345 28.1519 8.33714 28.2127 8.08402 28.0031L7.9028 27.853L8.17397 27.4589C8.32308 27.2421 8.48492 27.0637 8.53343 27.0622C8.58202 27.0607 8.70375 27.1362 8.80385 27.2298ZM22.399 27.4103C22.3441 27.4654 22.2992 27.6541 22.2992 27.8296V28.1487L21.9641 27.9771C21.7305 27.8575 21.5872 27.8289 21.4912 27.8829C21.3792 27.9458 21.4463 28.008 21.847 28.2134C22.1593 28.3734 22.3927 28.5606 22.482 28.7225C22.5729 28.8873 22.667 28.9618 22.7458 28.9314C22.8493 28.8916 22.8419 28.8389 22.6983 28.5947C22.5557 28.3521 22.5372 28.2244 22.5842 27.8076C22.6397 27.3156 22.5931 27.2155 22.399 27.4103ZM9.32831 28.0555C9.14001 28.3736 8.98599 28.6737 8.98599 28.7223C8.98599 28.7919 9.4968 29.1072 9.92207 29.3003C9.95636 29.3158 9.98448 29.276 9.98448 29.2117C9.98448 29.1474 9.83471 29.0104 9.65165 28.907C9.28604 28.7008 9.26823 28.6642 9.42691 28.4465C9.5295 28.3056 9.55072 28.3075 9.84819 28.4837C10.068 28.6139 10.1877 28.6429 10.2493 28.581C10.3109 28.5192 10.2349 28.4406 9.99438 28.3174C9.62361 28.1276 9.58517 28.0541 9.77413 27.8966C9.87273 27.8145 9.95486 27.8308 10.1962 27.9806C10.3948 28.1037 10.5238 28.1384 10.5786 28.0835C10.6333 28.0285 10.5053 27.9122 10.1993 27.7388C9.94529 27.5949 9.72238 27.4771 9.70399 27.4771C9.6856 27.4771 9.5166 27.7374 9.32831 28.0555ZM10.5872 28.6682C10.4384 29.0008 10.3168 29.313 10.317 29.3619C10.3173 29.4512 11.1043 29.8158 11.2966 29.8158C11.5248 29.8158 11.3764 29.6539 11.0246 29.519C10.6306 29.368 10.5983 29.3173 10.7338 29.0631C10.8111 28.9181 10.8398 28.9153 11.1056 29.0268C11.4449 29.1691 11.5654 29.1787 11.5654 29.0634C11.5654 29.017 11.4156 28.9191 11.2326 28.8455C10.8781 28.7032 10.8583 28.6745 10.9803 28.4808C11.0489 28.3721 11.1042 28.374 11.4347 28.4969C11.9271 28.6801 12.0276 28.5291 11.5499 28.3238C10.8394 28.0184 10.8855 28.0019 10.5872 28.6682ZM20.6001 28.2741C20.3292 28.387 20.0457 28.4794 19.97 28.4794C19.8091 28.4794 19.041 28.7267 18.9502 28.8078C18.9047 28.8483 19.2455 30.0754 19.3391 30.2083C19.3455 30.2175 19.6023 30.1479 19.9097 30.0537C20.5111 29.8694 20.6901 29.6688 20.1566 29.7769C19.6344 29.8827 19.5375 29.8676 19.4626 29.6687C19.398 29.4968 19.4252 29.4707 19.7637 29.3799C19.9797 29.3219 20.1358 29.2309 20.1358 29.1631C20.1358 29.0961 20.085 29.0657 20.0169 29.092C19.9515 29.1172 19.7695 29.162 19.6124 29.1916C19.3694 29.2373 19.3201 29.2195 19.2817 29.072C19.2431 28.9238 19.2966 28.8808 19.6511 28.7752C20.6122 28.4887 20.5813 28.4803 20.8432 29.0988C20.9713 29.4012 21.1266 29.6487 21.1884 29.6487C21.346 29.6487 21.3308 29.5485 21.0838 28.9594L20.8669 28.4421L21.0422 28.3253C21.2133 28.2113 21.2797 28.0583 21.1551 28.0653C21.1207 28.0673 20.871 28.1612 20.6001 28.2741ZM11.8819 29.2309C11.6849 29.8338 11.6866 30.0724 11.8869 29.9482C11.9263 29.9236 12.0061 29.7335 12.0641 29.5256C12.1626 29.1724 12.3143 29.0099 12.3143 29.2577C12.3143 29.3183 12.3719 29.5626 12.4423 29.8006C12.6294 30.4329 12.8134 30.3913 13.0468 29.6637C13.1473 29.3504 13.2296 29.0277 13.2296 28.9468C13.2296 28.6782 13.0344 28.8597 12.9022 29.2512C12.8306 29.4634 12.7483 29.6602 12.7194 29.6886C12.6906 29.717 12.6023 29.4753 12.5233 29.1515C12.3233 28.3323 12.1691 28.3514 11.8819 29.2309ZM3.75366 29.2416C3.40993 29.7025 3.33545 29.8529 3.42291 29.9087C3.50145 29.9588 3.60222 29.9004 3.75316 29.7172L3.97041 29.4537L4.2732 29.6416C4.63083 29.8635 4.69914 29.7118 4.36282 29.4426C4.21679 29.3257 4.16711 29.226 4.20531 29.1262C4.2772 28.938 4.39319 28.943 4.70081 29.1476C4.97955 29.3328 5.07524 29.3544 5.07524 29.2316C5.07524 29.1321 4.42431 28.6464 4.29093 28.6464C4.23942 28.6464 3.99762 28.9142 3.75366 29.2416ZM18.5049 28.8693C18.4405 28.8928 18.4538 29.1059 18.5499 29.5884C18.6569 30.1257 18.7199 30.2807 18.8406 30.304C18.9661 30.3283 18.9849 30.2974 18.9418 30.1374C18.9126 30.0294 18.8472 29.7059 18.7964 29.4186C18.7017 28.883 18.6638 28.8116 18.5049 28.8693ZM14.1092 29.1118C13.8596 29.3622 13.9537 29.5502 14.4569 29.8063C14.8327 29.9975 14.8696 30.0572 14.7107 30.2167C14.5596 30.3683 14.3252 30.3371 14.2088 30.1499C14.0755 29.9356 13.8952 29.9344 13.8952 30.1477C13.8952 30.3221 14.2712 30.5675 14.5383 30.5675C14.783 30.5675 15.0601 30.3243 15.0601 30.1095C15.0601 29.9102 14.7167 29.5652 14.5183 29.5652C14.4614 29.5652 14.3723 29.5138 14.3204 29.451C14.2485 29.364 14.2569 29.3111 14.3553 29.2291C14.463 29.1393 14.5252 29.1514 14.7274 29.3015C15.1272 29.5982 15.3122 29.4841 14.9769 29.1476C14.7751 28.945 14.2951 28.9252 14.1092 29.1118ZM17.3454 29.0569C17.0274 29.1922 16.9422 29.386 16.9643 29.9239C16.9772 30.2359 17.3174 30.5675 17.6246 30.5675C17.8942 30.5675 18.3052 30.2864 18.3052 30.102C18.3052 29.9248 18.0747 29.9579 17.9724 30.1499C17.768 30.5333 17.2235 30.2205 17.2235 29.7196C17.2235 29.3328 17.6276 29.0854 17.867 29.3257C17.9188 29.3778 18.0266 29.3952 18.1064 29.3644C18.2327 29.3157 18.2361 29.2929 18.1317 29.1882C17.9776 29.0335 17.563 28.9643 17.3454 29.0569ZM15.7473 29.1229C15.4822 29.1742 15.3098 29.4638 15.3098 29.8575C15.3098 30.2916 15.4908 30.547 15.8459 30.6139C16.2567 30.6913 16.5773 30.5077 16.7027 30.1235C16.835 29.7183 16.6726 29.2708 16.3484 29.1471C16.1261 29.0622 16.0721 29.0601 15.7473 29.1229ZM26.704 29.4034C26.5265 29.5815 26.5221 29.7393 26.693 29.7965C26.7471 29.8145 26.8292 29.7293 26.8756 29.607C26.9827 29.3242 27.1659 29.3797 27.1699 29.6962C27.1724 29.8926 27.2094 29.938 27.3683 29.9394C27.629 29.9417 27.7772 30.1739 27.631 30.3509C27.5581 30.4389 27.4531 30.4649 27.3128 30.4296C27.1563 30.3902 27.1131 30.4061 27.1416 30.4931C27.1992 30.6688 27.6152 30.6853 27.7982 30.5191C28.0403 30.2991 28.0011 30.0001 27.7082 29.8327C27.5712 29.7546 27.4589 29.6323 27.4585 29.561C27.4572 29.2181 26.9865 29.1198 26.704 29.4034ZM16.3439 29.4459C16.4931 29.5957 16.5158 30 16.3885 30.2389C16.2817 30.4393 15.9202 30.4517 15.7116 30.2622C15.5235 30.0914 15.5113 29.6254 15.6901 29.4459C15.7621 29.3737 15.9092 29.3146 16.017 29.3146C16.1249 29.3146 16.272 29.3737 16.3439 29.4459ZM4.78876 30.0015C4.4952 30.4221 4.73858 30.9016 5.24565 30.9016C5.50459 30.9016 5.82411 30.5872 5.82411 30.3325C5.82411 29.8639 5.05602 29.6183 4.78876 30.0015ZM25.7292 29.9458C25.6239 30.0198 25.5443 30.1637 25.5443 30.2799C25.5443 30.5415 25.6922 30.5436 25.7908 30.2833C25.8961 30.0053 26.0359 29.9394 26.1905 30.0947C26.301 30.2055 26.3063 30.2775 26.2242 30.5527C26.1203 30.9007 26.0929 31.4027 26.1779 31.4027C26.2749 31.4027 27.042 30.9585 27.042 30.9023C27.042 30.7627 26.9187 30.7511 26.6909 30.8694C26.5552 30.9398 26.4308 30.984 26.4145 30.9677C26.3981 30.9514 26.4249 30.7797 26.4738 30.5863C26.6295 29.9705 26.2088 29.6086 25.7292 29.9458ZM5.47464 30.0831C5.63581 30.2448 5.59004 30.4699 5.36605 30.6172C5.00202 30.8567 4.74532 30.4697 5.04653 30.1356C5.20654 29.9581 5.33451 29.9424 5.47464 30.0831ZM6.04045 30.6709C5.92146 30.8748 5.82411 31.0965 5.82411 31.1637C5.82411 31.3327 5.99327 31.4863 6.17949 31.4863C6.26519 31.4863 6.39408 31.5454 6.46605 31.6176C6.58504 31.737 6.61832 31.7124 6.83316 31.3461C7.08279 30.9206 7.11981 30.7739 6.99692 30.6977C6.95548 30.672 6.82293 30.8202 6.70219 31.0269C6.55874 31.2725 6.42545 31.4027 6.31719 31.4027C6.06757 31.4027 6.04228 31.2075 6.24106 30.8162C6.49834 30.31 6.32468 30.1841 6.04045 30.6709ZM24.5933 30.5317C24.1979 30.9287 24.7159 31.5837 25.1826 31.2768C25.3604 31.1599 25.3859 31.1596 25.4299 31.2745C25.5102 31.4847 25.3948 31.6663 25.199 31.6378C24.9662 31.6039 24.9006 31.7896 25.1205 31.8597C25.4904 31.9775 25.7926 31.5748 25.6782 31.1168C25.6503 31.0055 25.5305 30.7988 25.4121 30.6575C25.1699 30.3685 24.8108 30.3133 24.5933 30.5317ZM25.1749 30.8342C25.2476 31.0641 25.0857 31.2187 24.8971 31.0996C24.7167 30.9855 24.6627 30.7334 24.8005 30.6479C24.9486 30.556 25.1128 30.6377 25.1749 30.8342ZM7.18904 31.3698C7.0381 31.6796 6.99242 31.8572 7.04909 31.9141C7.10575 31.971 7.20577 31.8741 7.35579 31.6171C7.58686 31.2213 7.73114 31.1516 7.89905 31.3546C7.97618 31.4479 7.96046 31.5462 7.826 31.8107C7.62114 32.2138 7.61856 32.238 7.78056 32.238C7.84979 32.238 7.98908 32.0673 8.09001 31.8587C8.30202 31.4207 8.23679 31.2109 7.87509 31.1675C7.75385 31.153 7.65467 31.11 7.65467 31.0721C7.65467 31.0341 7.60034 30.982 7.53394 30.9565C7.45006 30.9242 7.34472 31.0505 7.18904 31.3698ZM23.6007 31.2043C23.4428 31.5367 23.4722 31.6528 23.6721 31.4863C23.8267 31.3575 23.8067 31.3378 24.0823 31.8885C24.2045 32.1328 24.3429 32.3198 24.3899 32.3041C24.4367 32.2884 24.4736 32.2389 24.472 32.1941C24.4653 32.0159 23.9161 30.9071 23.8331 30.9044C23.7844 30.9029 23.6798 31.0378 23.6007 31.2043ZM9.47209 31.6071C9.41775 31.7268 9.35169 31.8131 9.32531 31.799C8.86209 31.5511 8.82765 31.5453 8.62221 31.6804C8.19178 31.9635 8.2749 32.6556 8.73928 32.6556C8.87499 32.6556 8.98599 32.6932 8.98599 32.7391C8.98599 32.7851 9.03783 32.8227 9.10123 32.8227C9.20358 32.8227 9.74609 31.7368 9.74701 31.5301C9.74775 31.3514 9.56495 31.4026 9.47209 31.6071ZM9.20757 31.951C9.29469 32.1788 9.09458 32.4886 8.86035 32.4886C8.58784 32.4886 8.51454 32.2935 8.68752 32.0285C8.83979 31.7952 9.13144 31.7517 9.20757 31.951ZM9.9353 32.0694C9.72471 32.154 9.53366 32.5811 9.60522 32.8075C9.66979 33.0115 10.0798 33.1907 10.3124 33.1166C10.544 33.0427 10.4425 32.8924 10.2021 32.953C10.0834 32.9829 9.97266 32.9508 9.90277 32.8663C9.71455 32.6386 9.91034 32.5532 10.3022 32.692L10.6501 32.8152V32.5368C10.6501 32.1434 10.3081 31.9198 9.9353 32.0694ZM11.8492 32.2797C11.7897 32.5178 11.7814 32.5211 11.5522 32.3979C11.1866 32.2015 10.8166 32.5212 10.8166 33.0335C10.8166 33.2746 11.1424 33.5203 11.3541 33.4388C11.4401 33.4057 11.528 33.4301 11.5703 33.4989C11.6168 33.5743 11.6682 33.5858 11.7176 33.5319C11.7957 33.4467 12.1479 32.3257 12.1479 32.1624C12.1479 31.9793 11.9 32.0767 11.8492 32.2797ZM10.4005 32.414C10.4005 32.5401 10.3632 32.5756 10.2689 32.5393C10.1965 32.5114 10.1029 32.4886 10.0609 32.4886C10.0188 32.4886 9.98448 32.4322 9.98448 32.3633C9.98448 32.2853 10.063 32.238 10.1925 32.238C10.3486 32.238 10.4005 32.2819 10.4005 32.414ZM20.8064 32.4836C20.5884 32.7024 20.5878 32.9908 20.8047 33.2245C21.0993 33.542 21.7746 33.3949 21.7043 33.0286C21.6759 32.88 21.6621 32.8824 21.4919 33.0657C21.2796 33.2944 21.0921 33.255 20.9549 32.9528C20.8198 32.6551 20.9906 32.4619 21.3238 32.5354C21.5101 32.5765 21.561 32.5621 21.5329 32.4764C21.4704 32.2855 20.9991 32.2901 20.8064 32.4836ZM12.9861 32.5229C12.8513 32.6858 13.0128 32.7721 13.2152 32.6453C13.4042 32.5267 13.6456 32.5998 13.6456 32.7756C13.6456 32.8445 13.4397 33.0569 13.188 33.2476C12.7494 33.58 12.6033 33.8249 12.8435 33.8249C12.9058 33.8249 13.1305 33.8488 13.3427 33.8781C13.7831 33.9386 13.9021 33.7721 13.4792 33.6871C13.3419 33.6596 13.2296 33.6171 13.2296 33.5928C13.2296 33.5685 13.3793 33.4199 13.5624 33.2627C13.9026 32.9704 13.9866 32.6972 13.7954 32.5053C13.6577 32.367 13.105 32.3791 12.9861 32.5229ZM18.1596 32.4662C17.7581 32.5025 17.7673 32.4709 17.8993 33.3621C17.9883 33.9629 18.0027 33.992 18.2114 33.9915C18.5993 33.9907 19.0496 33.8224 19.1457 33.6422C19.2943 33.3634 19.1803 32.8094 18.9298 32.5931C18.81 32.4896 18.6673 32.4116 18.6126 32.4197C18.5579 32.4277 18.3541 32.4486 18.1596 32.4662ZM14.4946 32.6914C14.0994 32.9719 14.074 33.0179 14.3407 32.9693L14.5782 32.9261L14.5224 33.448C14.4779 33.8659 14.4911 33.9793 14.5885 34.0168C14.7137 34.0651 14.7271 34.0119 14.861 32.9271C14.8908 32.6859 14.8822 32.4904 14.842 32.4927C14.8018 32.4949 14.6454 32.5844 14.4946 32.6914ZM11.6323 32.833C11.6667 33.1299 11.4427 33.3531 11.2269 33.2372C11.0465 33.1404 11.0233 32.9756 11.155 32.7286C11.2853 32.4841 11.6 32.553 11.6323 32.833ZM16.6619 32.667C16.6047 32.7251 16.5579 32.8182 16.5579 32.8742C16.5579 32.9301 16.5111 32.9949 16.4539 33.0182C16.3791 33.0486 16.3759 33.0799 16.4423 33.1295C16.4931 33.1674 16.5613 33.3793 16.5937 33.6001C16.6545 34.0138 16.7792 34.1368 17.0363 34.0368C17.1742 33.9831 17.174 33.9742 17.0325 33.8696C16.9504 33.8089 16.8612 33.6237 16.8345 33.4579C16.7952 33.2152 16.8121 33.1568 16.9214 33.1568C17.0885 33.1568 17.1003 33.0242 16.9388 32.962C16.8736 32.9369 16.8082 32.8366 16.7932 32.739C16.7712 32.5965 16.7454 32.5824 16.6619 32.667ZM19.7198 32.6797C19.4205 32.8309 19.3769 33.4158 19.6507 33.6083C19.9069 33.7884 20.1623 33.7758 20.3443 33.5739C20.5433 33.3531 20.4354 33.2525 20.2147 33.453C20.0924 33.564 20.0063 33.586 19.9165 33.5291C19.704 33.3945 19.7767 33.2856 20.1308 33.2075C20.5229 33.1211 20.557 32.988 20.2494 32.7452C19.9932 32.5429 19.9909 32.5426 19.7198 32.6797ZM18.757 32.7868C18.8354 32.8657 18.8877 33.0623 18.8877 33.279C18.8877 33.6586 18.8065 33.7414 18.4347 33.7414C18.2706 33.7414 18.2322 33.6773 18.15 33.2663C18.0752 32.8926 18.0772 32.777 18.1593 32.7247C18.3294 32.6163 18.6168 32.6462 18.757 32.7868ZM22.7281 32.7311C22.6477 32.781 22.6534 32.82 22.7529 32.9029C22.8237 32.9619 22.8822 33.0713 22.8829 33.1461C22.884 33.2546 22.8987 33.2591 22.9559 33.1684C23.0298 33.0513 22.9882 32.7635 22.8885 32.7015C22.8574 32.6823 22.7853 32.6956 22.7281 32.7311ZM20.1358 32.9479C20.1358 33.0168 20.1014 33.0732 20.0594 33.0732C20.0174 33.0732 19.9238 33.096 19.8514 33.1239C19.757 33.1603 19.7198 33.1248 19.7198 32.9986C19.7198 32.8666 19.7717 32.8227 19.9278 32.8227C20.0572 32.8227 20.1358 32.87 20.1358 32.9479ZM22.1572 32.891C22.1029 32.9247 22.0854 32.9964 22.1185 33.0502C22.1573 33.1131 22.2223 33.1209 22.3007 33.0723C22.382 33.0219 22.3949 32.9688 22.3394 32.9131C22.2936 32.8672 22.2116 32.8572 22.1572 32.891ZM15.3963 33.111C15.2337 33.3077 15.3311 33.511 15.6376 33.6145C15.7949 33.6677 15.9385 33.7555 15.9565 33.8098C15.9981 33.9352 15.5901 33.9424 15.5133 33.8177C15.473 33.7523 15.4321 33.7523 15.3669 33.8177C15.2557 33.9294 15.3681 34.0544 15.601 34.0779C15.9704 34.1153 16.1405 34.0671 16.2298 33.8995C16.3434 33.6864 16.2553 33.5738 15.8727 33.4433C15.448 33.2984 15.4687 33.128 15.9031 33.1933C16.2411 33.244 16.2553 33.2389 16.1051 33.1188C15.9015 32.9561 15.5278 32.952 15.3963 33.111Z" fill="#09610A"/>
</svg>
