<svg width="28" height="28" viewBox="0 0 28 28" fill="none" xmlns="http://www.w3.org/2000/svg">
<path d="M14 14C12.7166 14 11.6666 12.95 11.6666 11.6667C11.6666 10.3833 12.7166 9.33334 14 9.33334C15.2833 9.33334 16.3333 10.3833 16.3333 11.6667C16.3333 12.95 15.2833 14 14 14ZM21 11.9C21 7.66501 17.9083 4.66668 14 4.66668C10.0916 4.66668 6.99996 7.66501 6.99996 11.9C6.99996 14.63 9.27496 18.2467 14 22.5633C18.725 18.2467 21 14.63 21 11.9ZM14 2.33334C18.9 2.33334 23.3333 6.09001 23.3333 11.9C23.3333 15.7733 20.2183 20.3583 14 25.6667C7.78163 20.3583 4.66663 15.7733 4.66663 11.9C4.66663 6.09001 9.09996 2.33334 14 2.33334Z" fill="#067910"/>
</svg>
