<svg width="42" height="42" viewBox="0 0 42 42" fill="none" xmlns="http://www.w3.org/2000/svg">
<g id="Group 860">
<circle id="Ellipse 34" cx="21" cy="21" r="21" fill="#FBF0B6"/>
<g id="Group 859">
<g id="event_note_black_24dp">
<path id="Vector" d="M29.1667 10.5H28V8.16663H25.6667V10.5H16.3333V8.16663H14V10.5H12.8333C11.55 10.5 10.5 11.55 10.5 12.8333V29.1666C10.5 30.45 11.55 31.5 12.8333 31.5H29.1667C30.45 31.5 31.5 30.45 31.5 29.1666V12.8333C31.5 11.55 30.45 10.5 29.1667 10.5ZM29.1667 29.1666H12.8333V17.5H29.1667V29.1666ZM12.8333 15.1666V12.8333H29.1667V15.1666H12.8333ZM15.1667 19.8333H26.8333V22.1666H15.1667V19.8333ZM15.1667 24.5H23.3333V26.8333H15.1667V24.5Z" fill="#4C2D00"/>
</g>
</g>
</g>
</svg>
