<svg width="267" height="180" viewBox="0 0 267 180" fill="none" xmlns="http://www.w3.org/2000/svg">
<circle cx="154" cy="90" r="90" fill="#E5FFFB"/>
<path d="M46.9673 17.5H169.291C176.975 17.5 183.203 23.7287 183.203 31.4121V152.178C183.203 159.862 176.975 166.09 169.291 166.09H46.9673C39.2838 166.09 33.0552 159.862 33.0552 152.178V31.4121C33.0552 23.7287 39.2838 17.5 46.9673 17.5Z" fill="#F2F2F2" stroke="#044904"/>
<path d="M72.6548 19.964C62.8058 19.964 53.3602 23.8765 46.3959 30.8408C39.4316 37.8051 35.519 47.2507 35.519 57.0997V152.179C35.519 153.682 35.8152 155.171 36.3905 156.56C36.9658 157.949 37.8091 159.211 38.8722 160.274C39.9352 161.337 41.1973 162.18 42.5862 162.755C43.9752 163.331 45.4639 163.627 46.9673 163.627H125.037C139.811 163.627 153.979 157.758 164.425 147.312C174.871 136.866 180.739 122.698 180.739 107.925V31.4122C180.739 28.376 179.533 25.4641 177.386 23.3171C175.239 21.1702 172.327 19.964 169.291 19.964H72.6548Z" fill="white"/>
<path d="M126.786 112.68H43.8011C43.3264 112.68 42.8712 112.492 42.5356 112.156C42.2 111.82 42.0115 111.365 42.0115 110.89C42.0115 110.416 42.2 109.961 42.5356 109.625C42.8712 109.289 43.3264 109.101 43.8011 109.101H126.786C127.261 109.101 127.716 109.289 128.051 109.625C128.387 109.961 128.576 110.416 128.576 110.89C128.576 111.365 128.387 111.82 128.051 112.156C127.716 112.492 127.261 112.68 126.786 112.68Z" fill="#E5FFFB"/>
<path d="M126.786 61.6349H1.79268C1.55741 61.6353 1.32437 61.5893 1.10689 61.4995C0.889407 61.4098 0.691762 61.278 0.525256 61.1118C0.358749 60.9456 0.22666 60.7482 0.136531 60.5309C0.0464024 60.3135 0 60.0806 0 59.8453C0 59.61 0.0464024 59.3771 0.136531 59.1598C0.22666 58.9424 0.358749 58.745 0.525256 58.5788C0.691762 58.4126 0.889407 58.2808 1.10689 58.1911C1.32437 58.1013 1.55741 58.0553 1.79268 58.0557H126.786C127.26 58.0566 127.715 58.2455 128.05 58.581C128.385 58.9165 128.573 59.3712 128.573 59.8453C128.573 60.3194 128.385 60.7741 128.05 61.1096C127.715 61.4451 127.26 61.6341 126.786 61.6349Z" fill="#E5FFFB"/>
<path d="M126.789 74.4141H1.7898C1.31535 74.4149 0.860616 74.604 0.525416 74.9398C0.190217 75.2756 0.00195312 75.7306 0.00195312 76.2051C0.00195312 76.6795 0.190217 77.1346 0.525416 77.4704C0.860616 77.8062 1.31535 77.9952 1.7898 77.996H126.789C127.263 77.9952 127.718 77.8062 128.053 77.4704C128.388 77.1346 128.576 76.6795 128.576 76.2051C128.576 75.7306 128.388 75.2756 128.053 74.9398C127.718 74.604 127.263 74.4149 126.789 74.4141Z" fill="#E5FFFB"/>
<path d="M126.786 94.3568H1.79251C1.31788 94.3568 0.862694 94.1683 0.527084 93.8326C0.191473 93.497 0.00292969 93.0419 0.00292969 92.5672C0.00292969 92.0926 0.191473 91.6374 0.527084 91.3018C0.862694 90.9662 1.31788 90.7776 1.79251 90.7776H126.786C127.261 90.7776 127.716 90.9662 128.051 91.3018C128.387 91.6374 128.576 92.0926 128.576 92.5672C128.576 93.0419 128.387 93.497 128.051 93.8326C127.716 94.1683 127.261 94.3568 126.786 94.3568Z" fill="#E5FFFB"/>
<path d="M251.89 45.0859H129.566C121.606 45.0859 115.154 51.5385 115.154 59.498V122.603C115.154 130.563 121.606 137.015 129.566 137.015H251.89C259.85 137.015 266.302 130.563 266.302 122.603V59.498C266.302 51.5385 259.85 45.0859 251.89 45.0859Z" fill="white"/>
<path d="M251.89 137.554H129.566C125.602 137.55 121.802 135.973 118.999 133.17C116.196 130.367 114.619 126.567 114.615 122.603V59.498C114.619 55.5341 116.196 51.7339 118.999 48.931C121.802 46.1281 125.602 44.5515 129.566 44.547H251.89C255.854 44.5515 259.654 46.1282 262.457 48.9311C265.26 51.734 266.836 55.5342 266.841 59.498V122.603C266.836 126.567 265.26 130.367 262.457 133.17C259.654 135.973 255.854 137.55 251.89 137.554ZM129.566 45.6248C125.887 45.6248 122.358 47.0864 119.756 49.6882C117.154 52.2899 115.693 55.8186 115.693 59.498V83.085C115.693 97.2453 121.318 110.826 131.331 120.839C141.344 130.851 154.924 136.477 169.084 136.477H251.89C255.569 136.477 259.098 135.015 261.7 132.413C264.301 129.812 265.763 126.283 265.763 122.604V59.498C265.763 57.6762 265.404 55.8722 264.707 54.189C264.01 52.5058 262.988 50.9764 261.7 49.6882C260.411 48.3999 258.882 47.378 257.199 46.6808C255.516 45.9836 253.712 45.6248 251.89 45.6248L129.566 45.6248Z" fill="#044904"/>
<path d="M161.897 112.067H133.336C132.294 112.067 131.45 112.912 131.45 113.954C131.45 114.995 132.294 115.84 133.336 115.84H161.897C162.939 115.84 163.783 114.995 163.783 113.954C163.783 112.912 162.939 112.067 161.897 112.067Z" fill="#E5FFFB"/>
<path d="M248.119 106.948H228.181C227.139 106.948 226.294 107.792 226.294 108.834V119.073C226.294 120.115 227.139 120.959 228.181 120.959H248.119C249.161 120.959 250.006 120.115 250.006 119.073V108.834C250.006 107.792 249.161 106.948 248.119 106.948Z" fill="#B6FBEA"/>
<path d="M141.15 80.5422C146.507 80.5422 150.85 76.1993 150.85 70.8422C150.85 65.485 146.507 61.1422 141.15 61.1422C135.793 61.1422 131.45 65.485 131.45 70.8422C131.45 76.1993 135.793 80.5422 141.15 80.5422Z" fill="#B6FBEA"/>
<path d="M167.15 80.5421C172.507 80.5421 176.85 76.1993 176.85 70.8421C176.85 65.4849 172.507 61.1421 167.15 61.1421C161.793 61.1421 157.45 65.4849 157.45 70.8421C157.45 76.1993 161.793 80.5421 167.15 80.5421Z" fill="#B6FBEA"/>
<path d="M154.164 136.309L128.902 135.77C125.759 135.766 122.747 134.515 120.525 132.293C118.304 130.07 117.054 127.057 117.051 123.915L115.973 97.5026C119.075 119.036 130.995 132.695 154.164 136.309Z" fill="#E5FFFB"/>
</svg>
