<svg width="0" height="0" class="hidden">
  <symbol fill="none" xmlns="http://www.w3.org/2000/svg" viewBox="0 0 16 16" id="arrow-left">
    <path d="M16 7H3.83L9.42 1.41L8 0L0 8L8 16L9.41 14.59L3.83 9H16V7Z" fill="white"></path>
  </symbol>
  <symbol fill="none" xmlns="http://www.w3.org/2000/svg" viewBox="0 0 16 16" id="arrow-right">
    <path d="M0 9L12.17 9L6.58 14.59L8 16L16 8L8 0L6.59 1.41L12.17 7L0 7L0 9Z" fill="#333333"></path>
  </symbol>
  <symbol fill="none" xmlns="http://www.w3.org/2000/svg" viewBox="0 0 48 54" id="calendar">
    <path d="M42.6667 5.99996H40V0.666626H34.6667V5.99996H13.3333V0.666626H8V5.99996H5.33333C2.37333 5.99996 0 8.39996 0 11.3333V48.6666C0 51.6 2.37333 54 5.33333 54H42.6667C45.6 54 48 51.6 48 48.6666V11.3333C48 8.39996 45.6 5.99996 42.6667 5.99996ZM42.6667 48.6666H5.33333V22H42.6667V48.6666ZM42.6667 16.6666H5.33333V11.3333H42.6667V16.6666ZM10.6667 27.3333H24V40.6666H10.6667V27.3333Z" fill="url(#paint0_linear_66_3942)"></path>
    <defs>
      <linearGradient id="paint0_linear_66_3942" x1="24" y1="0.666626" x2="24" y2="54" gradientUnits="userSpaceOnUse">
        <stop stop-color="#37D279"></stop>
        <stop offset="1" stop-color="#61DC95" stop-opacity="0.5"></stop>
      </linearGradient>
    </defs>
  </symbol>
  <symbol fill="none" xmlns="http://www.w3.org/2000/svg" viewBox="0 0 16 16" id="cash">
    <path d="M12.6667 9.33332V3.99999C12.6667 3.26666 12.0667 2.66666 11.3334 2.66666H2.00008C1.26675 2.66666 0.666748 3.26666 0.666748 3.99999V9.33332C0.666748 10.0667 1.26675 10.6667 2.00008 10.6667H11.3334C12.0667 10.6667 12.6667 10.0667 12.6667 9.33332ZM11.3334 9.33332H2.00008V3.99999H11.3334V9.33332ZM6.66675 4.66666C5.56008 4.66666 4.66675 5.55999 4.66675 6.66666C4.66675 7.77332 5.56008 8.66666 6.66675 8.66666C7.77341 8.66666 8.66675 7.77332 8.66675 6.66666C8.66675 5.55999 7.77341 4.66666 6.66675 4.66666ZM15.3334 4.66666V12C15.3334 12.7333 14.7334 13.3333 14.0001 13.3333H2.66675C2.66675 12.6667 2.66675 12.7333 2.66675 12H14.0001V4.66666C14.7334 4.66666 14.6667 4.66666 15.3334 4.66666Z" fill="#333333"></path>
  </symbol>
  <symbol fill="none" xmlns="http://www.w3.org/2000/svg" viewBox="0 0 54 54" id="clock">
    <path d="M27 0.333374C12.3334 0.333374 0.333374 12.3334 0.333374 27C0.333374 41.6667 12.3334 53.6667 27 53.6667C41.6667 53.6667 53.6667 41.6667 53.6667 27C53.6667 12.3334 41.6667 0.333374 27 0.333374ZM27 48.3334C15.24 48.3334 5.66671 38.76 5.66671 27C5.66671 15.24 15.24 5.66671 27 5.66671C38.76 5.66671 48.3334 15.24 48.3334 27C48.3334 38.76 38.76 48.3334 27 48.3334ZM28.3334 13.6667H24.3334V29.6667L38.2 38.2L40.3334 34.7334L28.3334 27.5334V13.6667Z" fill="url(#paint0_linear_66_3930)"></path>
    <defs>
      <linearGradient id="paint0_linear_66_3930" x1="27" y1="0.333374" x2="27" y2="53.6667" gradientUnits="userSpaceOnUse">
        <stop stop-color="#F2994A"></stop>
        <stop offset="1" stop-color="#F5B47A" stop-opacity="0.5"></stop>
      </linearGradient>
    </defs>
  </symbol>
  <symbol fill="none" xmlns="http://www.w3.org/2000/svg" viewBox="0 0 16 16" id="dot">
    <path d="M3.99998 10C4.73331 10 5.33331 10.6 5.33331 11.3333C5.33331 12.0667 4.73331 12.6667 3.99998 12.6667C3.26665 12.6667 2.66665 12.0667 2.66665 11.3333C2.66665 10.6 3.26665 10 3.99998 10ZM3.99998 8.66667C2.53331 8.66667 1.33331 9.86667 1.33331 11.3333C1.33331 12.8 2.53331 14 3.99998 14C5.46665 14 6.66665 12.8 6.66665 11.3333C6.66665 9.86667 5.46665 8.66667 3.99998 8.66667ZM7.99998 3.33333C8.73331 3.33333 9.33331 3.93333 9.33331 4.66667C9.33331 5.4 8.73331 6 7.99998 6C7.26665 6 6.66665 5.4 6.66665 4.66667C6.66665 3.93333 7.26665 3.33333 7.99998 3.33333ZM7.99998 2C6.53331 2 5.33331 3.2 5.33331 4.66667C5.33331 6.13333 6.53331 7.33333 7.99998 7.33333C9.46665 7.33333 10.6666 6.13333 10.6666 4.66667C10.6666 3.2 9.46665 2 7.99998 2ZM12 10C12.7333 10 13.3333 10.6 13.3333 11.3333C13.3333 12.0667 12.7333 12.6667 12 12.6667C11.2666 12.6667 10.6666 12.0667 10.6666 11.3333C10.6666 10.6 11.2666 10 12 10ZM12 8.66667C10.5333 8.66667 9.33331 9.86667 9.33331 11.3333C9.33331 12.8 10.5333 14 12 14C13.4666 14 14.6666 12.8 14.6666 11.3333C14.6666 9.86667 13.4666 8.66667 12 8.66667Z" fill="#333333"></path>
  </symbol>
  <symbol fill="none" xmlns="http://www.w3.org/2000/svg" viewBox="0 0 16 15" id="heart">
    <path d="M11.375 0.25C10.07 0.25 8.8175 0.8575 8 1.8175C7.1825 0.8575 5.93 0.25 4.625 0.25C2.315 0.25 0.5 2.065 0.5 4.375C0.5 7.21 3.05 9.52 6.9125 13.03L8 14.0125L9.0875 13.0225C12.95 9.52 15.5 7.21 15.5 4.375C15.5 2.065 13.685 0.25 11.375 0.25ZM8.075 11.9125L8 11.9875L7.925 11.9125C4.355 8.68 2 6.5425 2 4.375C2 2.875 3.125 1.75 4.625 1.75C5.78 1.75 6.905 2.4925 7.3025 3.52H8.705C9.095 2.4925 10.22 1.75 11.375 1.75C12.875 1.75 14 2.875 14 4.375C14 6.5425 11.645 8.68 8.075 11.9125Z" fill="#CFCEC9"></path>
  </symbol>
  <symbol fill="none" xmlns="http://www.w3.org/2000/svg" viewBox="0 0 96 96" id="money">
    <path d="M76 56V24C76 19.6 72.4 16 68 16H12C7.6 16 4 19.6 4 24V56C4 60.4 7.6 64 12 64H68C72.4 64 76 60.4 76 56ZM68 56H12V24H68V56ZM40 28C33.36 28 28 33.36 28 40C28 46.64 33.36 52 40 52C46.64 52 52 46.64 52 40C52 33.36 46.64 28 40 28ZM92 28V72C92 76.4 88.4 80 84 80H16C16 76 16 76.4 16 72H84V28C88.4 28 88 28 92 28Z" fill="url(#paint0_linear_14_95)"></path>
    <defs>
      <linearGradient id="paint0_linear_14_95" x1="48" y1="16" x2="48" y2="80" gradientUnits="userSpaceOnUse">
        <stop stop-color="white"></stop>
        <stop offset="1" stop-color="#CCCCCC" stop-opacity="0.5"></stop>
      </linearGradient>
    </defs>
  </symbol>
  <symbol fill="none" xmlns="http://www.w3.org/2000/svg" viewBox="0 0 16 16" id="user">
    <path d="M7.99999 3.99999C8.73332 3.99999 9.33332 4.59999 9.33332 5.33332C9.33332 6.06666 8.73332 6.66666 7.99999 6.66666C7.26666 6.66666 6.66666 6.06666 6.66666 5.33332C6.66666 4.59999 7.26666 3.99999 7.99999 3.99999ZM7.99999 10.6667C9.79999 10.6667 11.8667 11.5267 12 12H3.99999C4.15332 11.52 6.20666 10.6667 7.99999 10.6667ZM7.99999 2.66666C6.52666 2.66666 5.33332 3.85999 5.33332 5.33332C5.33332 6.80666 6.52666 7.99999 7.99999 7.99999C9.47332 7.99999 10.6667 6.80666 10.6667 5.33332C10.6667 3.85999 9.47332 2.66666 7.99999 2.66666ZM7.99999 10.6667C6.21999 10.6667 2.66666 11.56 2.66666 13.3333V14.6667H13.3333V13.3333C13.3333 11.56 9.77999 10.6667 7.99999 10.6667Z" fill="#333333"></path>
  </symbol>
</svg>