<svg width="64" height="64" viewBox="0 0 64 64" fill="none" xmlns="http://www.w3.org/2000/svg">
<circle cx="32" cy="32" r="32" fill="#E5FFFB"/>
<g clip-path="url(#clip0_94_546)">
<path d="M49.7777 28.4445V21.3334C49.7777 19.3778 48.1777 17.7778 46.2222 17.7778H17.7777C15.8222 17.7778 14.2399 19.3778 14.2399 21.3334V28.4445C16.1955 28.4445 17.7777 30.0445 17.7777 32.0001C17.7777 33.9556 16.1955 35.5556 14.2222 35.5556V42.6667C14.2222 44.6223 15.8222 46.2223 17.7777 46.2223H46.2222C48.1777 46.2223 49.7777 44.6223 49.7777 42.6667V35.5556C47.8222 35.5556 46.2222 33.9556 46.2222 32.0001C46.2222 30.0445 47.8222 28.4445 49.7777 28.4445ZM46.2222 25.8489C44.1066 27.0756 42.6666 29.3867 42.6666 32.0001C42.6666 34.6134 44.1066 36.9245 46.2222 38.1512V42.6667H17.7777V38.1512C19.8933 36.9245 21.3333 34.6134 21.3333 32.0001C21.3333 29.3689 19.9111 27.0756 17.7955 25.8489L17.7777 21.3334H46.2222V25.8489ZM26.7911 39.1112L31.9999 35.7689L37.2088 39.1112L35.6266 33.1378L40.4088 29.2267L34.2399 28.8534L31.9999 23.1112L29.7422 28.8356L23.5733 29.2089L28.3555 33.1201L26.7911 39.1112Z" fill="#067910"/>
</g>
<defs>
<clipPath id="clip0_94_546">
<rect width="42.6667" height="42.6667" fill="white" transform="translate(10.6666 10.6667)"/>
</clipPath>
</defs>
</svg>
