<svg width="16" height="12" viewBox="0 0 16 12" fill="none" xmlns="http://www.w3.org/2000/svg">
    <path d="M12.6667 7.33332V1.99999C12.6667 1.26666 12.0667 0.666656 11.3334 0.666656H2.00008C1.26675 0.666656 0.666748 1.26666 0.666748 1.99999V7.33332C0.666748 8.06666 1.26675 8.66666 2.00008 8.66666H11.3334C12.0667 8.66666 12.6667 8.06666 12.6667 7.33332ZM11.3334 7.33332H2.00008V1.99999H11.3334V7.33332ZM6.66675 2.66666C5.56008 2.66666 4.66675 3.55999 4.66675 4.66666C4.66675 5.77332 5.56008 6.66666 6.66675 6.66666C7.77342 6.66666 8.66675 5.77332 8.66675 4.66666C8.66675 3.55999 7.77342 2.66666 6.66675 2.66666ZM15.3334 2.66666V9.99999C15.3334 10.7333 14.7334 11.3333 14.0001 11.3333H2.66675C2.66675 10.6667 2.66675 10.7333 2.66675 9.99999H14.0001V2.66666C14.7334 2.66666 14.6667 2.66666 15.3334 2.66666Z" fill="#333333"/>
</svg>
