<svg width="16" height="16" viewBox="0 0 16 16" fill="none" xmlns="http://www.w3.org/2000/svg">
<path d="M12.6667 9.33332V3.99999C12.6667 3.26666 12.0667 2.66666 11.3334 2.66666H2.00008C1.26675 2.66666 0.666748 3.26666 0.666748 3.99999V9.33332C0.666748 10.0667 1.26675 10.6667 2.00008 10.6667H11.3334C12.0667 10.6667 12.6667 10.0667 12.6667 9.33332ZM11.3334 9.33332H2.00008V3.99999H11.3334V9.33332ZM6.66675 4.66666C5.56008 4.66666 4.66675 5.55999 4.66675 6.66666C4.66675 7.77332 5.56008 8.66666 6.66675 8.66666C7.77341 8.66666 8.66675 7.77332 8.66675 6.66666C8.66675 5.55999 7.77341 4.66666 6.66675 4.66666ZM15.3334 4.66666V12C15.3334 12.7333 14.7334 13.3333 14.0001 13.3333H2.66675C2.66675 12.6667 2.66675 12.7333 2.66675 12H14.0001V4.66666C14.7334 4.66666 14.6667 4.66666 15.3334 4.66666Z" fill="#333333"/>
</svg>
