<svg width="16" height="12" viewBox="0 0 16 12" fill="none" xmlns="http://www.w3.org/2000/svg">
    <path d="M12.6666 7.33342V2.00008C12.6666 1.26675 12.0666 0.666748 11.3333 0.666748H1.99996C1.26663 0.666748 0.666626 1.26675 0.666626 2.00008V7.33342C0.666626 8.06675 1.26663 8.66675 1.99996 8.66675H11.3333C12.0666 8.66675 12.6666 8.06675 12.6666 7.33342ZM11.3333 7.33342H1.99996V2.00008H11.3333V7.33342ZM6.66663 2.66675C5.55996 2.66675 4.66663 3.56008 4.66663 4.66675C4.66663 5.77341 5.55996 6.66675 6.66663 6.66675C7.77329 6.66675 8.66663 5.77341 8.66663 4.66675C8.66663 3.56008 7.77329 2.66675 6.66663 2.66675ZM15.3333 2.66675V10.0001C15.3333 10.7334 14.7333 11.3334 14 11.3334H2.66663C2.66663 10.6667 2.66663 10.7334 2.66663 10.0001H14V2.66675C14.7333 2.66675 14.6666 2.66675 15.3333 2.66675Z" fill="#CFCEC9"/>
</svg>
