<svg width="54" height="54" viewBox="0 0 54 54" fill="none" xmlns="http://www.w3.org/2000/svg">
<path d="M27 0.333374C12.3334 0.333374 0.333374 12.3334 0.333374 27C0.333374 41.6667 12.3334 53.6667 27 53.6667C41.6667 53.6667 53.6667 41.6667 53.6667 27C53.6667 12.3334 41.6667 0.333374 27 0.333374ZM27 48.3334C15.24 48.3334 5.66671 38.76 5.66671 27C5.66671 15.24 15.24 5.66671 27 5.66671C38.76 5.66671 48.3334 15.24 48.3334 27C48.3334 38.76 38.76 48.3334 27 48.3334ZM28.3334 13.6667H24.3334V29.6667L38.2 38.2L40.3334 34.7334L28.3334 27.5334V13.6667Z" fill="url(#paint0_linear_66_3930)"/>
<defs>
<linearGradient id="paint0_linear_66_3930" x1="27" y1="0.333374" x2="27" y2="53.6667" gradientUnits="userSpaceOnUse">
<stop stop-color="#F2994A"/>
<stop offset="1" stop-color="#F5B47A" stop-opacity="0.5"/>
</linearGradient>
</defs>
</svg>
