<svg width="16" height="16" viewBox="0 0 16 16" fill="none" xmlns="http://www.w3.org/2000/svg">
<path d="M3.99998 10C4.73331 10 5.33331 10.6 5.33331 11.3333C5.33331 12.0667 4.73331 12.6667 3.99998 12.6667C3.26665 12.6667 2.66665 12.0667 2.66665 11.3333C2.66665 10.6 3.26665 10 3.99998 10ZM3.99998 8.66667C2.53331 8.66667 1.33331 9.86667 1.33331 11.3333C1.33331 12.8 2.53331 14 3.99998 14C5.46665 14 6.66665 12.8 6.66665 11.3333C6.66665 9.86667 5.46665 8.66667 3.99998 8.66667ZM7.99998 3.33333C8.73331 3.33333 9.33331 3.93333 9.33331 4.66667C9.33331 5.4 8.73331 6 7.99998 6C7.26665 6 6.66665 5.4 6.66665 4.66667C6.66665 3.93333 7.26665 3.33333 7.99998 3.33333ZM7.99998 2C6.53331 2 5.33331 3.2 5.33331 4.66667C5.33331 6.13333 6.53331 7.33333 7.99998 7.33333C9.46665 7.33333 10.6666 6.13333 10.6666 4.66667C10.6666 3.2 9.46665 2 7.99998 2ZM12 10C12.7333 10 13.3333 10.6 13.3333 11.3333C13.3333 12.0667 12.7333 12.6667 12 12.6667C11.2666 12.6667 10.6666 12.0667 10.6666 11.3333C10.6666 10.6 11.2666 10 12 10ZM12 8.66667C10.5333 8.66667 9.33331 9.86667 9.33331 11.3333C9.33331 12.8 10.5333 14 12 14C13.4666 14 14.6666 12.8 14.6666 11.3333C14.6666 9.86667 13.4666 8.66667 12 8.66667Z" fill="#333333"/>
</svg>
