<svg width="14" height="12" viewBox="0 0 14 12" fill="none" xmlns="http://www.w3.org/2000/svg">
    <path d="M2.99998 8C3.73331 8 4.33331 8.6 4.33331 9.33333C4.33331 10.0667 3.73331 10.6667 2.99998 10.6667C2.26665 10.6667 1.66665 10.0667 1.66665 9.33333C1.66665 8.6 2.26665 8 2.99998 8ZM2.99998 6.66667C1.53331 6.66667 0.333313 7.86667 0.333313 9.33333C0.333313 10.8 1.53331 12 2.99998 12C4.46665 12 5.66665 10.8 5.66665 9.33333C5.66665 7.86667 4.46665 6.66667 2.99998 6.66667ZM6.99998 1.33333C7.73331 1.33333 8.33331 1.93333 8.33331 2.66667C8.33331 3.4 7.73331 4 6.99998 4C6.26665 4 5.66665 3.4 5.66665 2.66667C5.66665 1.93333 6.26665 1.33333 6.99998 1.33333ZM6.99998 0C5.53331 0 4.33331 1.2 4.33331 2.66667C4.33331 4.13333 5.53331 5.33333 6.99998 5.33333C8.46665 5.33333 9.66665 4.13333 9.66665 2.66667C9.66665 1.2 8.46665 0 6.99998 0ZM11 8C11.7333 8 12.3333 8.6 12.3333 9.33333C12.3333 10.0667 11.7333 10.6667 11 10.6667C10.2666 10.6667 9.66665 10.0667 9.66665 9.33333C9.66665 8.6 10.2666 8 11 8ZM11 6.66667C9.53331 6.66667 8.33331 7.86667 8.33331 9.33333C8.33331 10.8 9.53331 12 11 12C12.4666 12 13.6666 10.8 13.6666 9.33333C13.6666 7.86667 12.4666 6.66667 11 6.66667Z" fill="#333333"/>
</svg>
