<svg width="14" height="12" viewBox="0 0 14 12" fill="none" xmlns="http://www.w3.org/2000/svg">
    <path d="M3.00004 8C3.73337 8 4.33337 8.6 4.33337 9.33333C4.33337 10.0667 3.73337 10.6667 3.00004 10.6667C2.26671 10.6667 1.66671 10.0667 1.66671 9.33333C1.66671 8.6 2.26671 8 3.00004 8ZM3.00004 6.66667C1.53337 6.66667 0.333374 7.86667 0.333374 9.33333C0.333374 10.8 1.53337 12 3.00004 12C4.46671 12 5.66671 10.8 5.66671 9.33333C5.66671 7.86667 4.46671 6.66667 3.00004 6.66667ZM7.00004 1.33333C7.73337 1.33333 8.33337 1.93333 8.33337 2.66667C8.33337 3.4 7.73337 4 7.00004 4C6.26671 4 5.66671 3.4 5.66671 2.66667C5.66671 1.93333 6.26671 1.33333 7.00004 1.33333ZM7.00004 0C5.53337 0 4.33337 1.2 4.33337 2.66667C4.33337 4.13333 5.53337 5.33333 7.00004 5.33333C8.46671 5.33333 9.66671 4.13333 9.66671 2.66667C9.66671 1.2 8.46671 0 7.00004 0ZM11 8C11.7334 8 12.3334 8.6 12.3334 9.33333C12.3334 10.0667 11.7334 10.6667 11 10.6667C10.2667 10.6667 9.66671 10.0667 9.66671 9.33333C9.66671 8.6 10.2667 8 11 8ZM11 6.66667C9.53337 6.66667 8.33337 7.86667 8.33337 9.33333C8.33337 10.8 9.53337 12 11 12C12.4667 12 13.6667 10.8 13.6667 9.33333C13.6667 7.86667 12.4667 6.66667 11 6.66667Z" fill="#CFCEC9"/>
</svg>
