<svg width="16" height="16" viewBox="0 0 16 16" fill="none" xmlns="http://www.w3.org/2000/svg">
<path d="M7.99999 3.99999C8.73332 3.99999 9.33332 4.59999 9.33332 5.33332C9.33332 6.06666 8.73332 6.66666 7.99999 6.66666C7.26666 6.66666 6.66666 6.06666 6.66666 5.33332C6.66666 4.59999 7.26666 3.99999 7.99999 3.99999ZM7.99999 10.6667C9.79999 10.6667 11.8667 11.5267 12 12H3.99999C4.15332 11.52 6.20666 10.6667 7.99999 10.6667ZM7.99999 2.66666C6.52666 2.66666 5.33332 3.85999 5.33332 5.33332C5.33332 6.80666 6.52666 7.99999 7.99999 7.99999C9.47332 7.99999 10.6667 6.80666 10.6667 5.33332C10.6667 3.85999 9.47332 2.66666 7.99999 2.66666ZM7.99999 10.6667C6.21999 10.6667 2.66666 11.56 2.66666 13.3333V14.6667H13.3333V13.3333C13.3333 11.56 9.77999 10.6667 7.99999 10.6667Z" fill="#333333"/>
</svg>
