<svg width="12" height="13" viewBox="0 0 12 13" fill="none" xmlns="http://www.w3.org/2000/svg">
    <path d="M5.99999 1.99999C6.73332 1.99999 7.33332 2.59999 7.33332 3.33332C7.33332 4.06666 6.73332 4.66666 5.99999 4.66666C5.26666 4.66666 4.66666 4.06666 4.66666 3.33332C4.66666 2.59999 5.26666 1.99999 5.99999 1.99999ZM5.99999 8.66666C7.79999 8.66666 9.86666 9.52666 9.99999 9.99999H1.99999C2.15332 9.51999 4.20666 8.66666 5.99999 8.66666ZM5.99999 0.666656C4.52666 0.666656 3.33332 1.85999 3.33332 3.33332C3.33332 4.80666 4.52666 5.99999 5.99999 5.99999C7.47332 5.99999 8.66666 4.80666 8.66666 3.33332C8.66666 1.85999 7.47332 0.666656 5.99999 0.666656ZM5.99999 8.66666C4.21999 8.66666 0.666656 9.55999 0.666656 11.3333V12.6667H11.3333V11.3333C11.3333 9.55999 7.77999 8.66666 5.99999 8.66666Z" fill="#333333"/>
</svg>
