<svg width="12" height="14" viewBox="0 0 12 14" fill="none" xmlns="http://www.w3.org/2000/svg">
<path d="M6 1.425C6.87 1.425 7.575 2.13 7.575 3C7.575 3.87 6.87 4.575 6 4.575C5.13 4.575 4.425 3.87 4.425 3C4.425 2.13 5.13 1.425 6 1.425ZM6 8.175C8.2275 8.175 10.575 9.27 10.575 9.75V10.575H1.425V9.75C1.425 9.27 3.7725 8.175 6 8.175ZM6 0C4.3425 0 3 1.3425 3 3C3 4.6575 4.3425 6 6 6C7.6575 6 9 4.6575 9 3C9 1.3425 7.6575 0 6 0ZM6 8.175C3.9975 8.175 0 9.18 0 11.175V13.425H12V11.175C12 9.18 8.0025 8.175 6 8.175Z" fill="#CFCEC9"/>
</svg>
